<mxfile host="65bd71144e">
    <diagram id="4gGBYLcJ-2EWmzkTlmES" name="Page-1">
        <mxGraphModel dx="1118" dy="779" grid="1" gridSize="10" guides="1" tooltips="1" connect="1" arrows="1" fold="1" page="1" pageScale="1" pageWidth="850" pageHeight="1100" math="0" shadow="0">
            <root>
                <mxCell id="0"/>
                <mxCell id="1" parent="0"/>
                <mxCell id="4" value="" style="shape=image;verticalLabelPosition=bottom;labelBackgroundColor=#ffffff;verticalAlign=top;aspect=fixed;imageAspect=0;image=data:image/png,iVBORw0KGgoAAAANSUhEUgAAAvAAAAY0CAYAAACPkDnLAAAAAXNSR0IArs4c6QAAQABJREFUeAHsnQWAG8X3x1/d3Q2KtLgVh+Lu7lbc3eGHFShSoOWPu7tD8Ra3okVLC6Wl1N1d/u+77aa53OYuuUvu9u4+D9JsZmdnZz+zuXx35s2barbcPp46ZWm4zTsEIAABCEAAAhCAAAQgEE8C1eNZLWoFAQhAAAIQgAAEIAABCEQRQMBHUSENAhCAAAQgAAEIQAACMSWAgI9pw1AtCEAAAhCAAAQgAAEIRBFAwEdRIQ0CEIAABCAAAQhAAAIxJYCAj2nDUC0IQAACEIAABCAAAQhEEUDAR1EhDQIQgAAEIAABCEAAAjElgICPacNQLQhAAAIQgAAEIAABCEQRqBmVSBoE8kFg3MiRNvDD/vbbwG9s8rjxNmXCBJsyfrzNmzPHmrZqZc1bt7bmbVpb+86r2GY77Wgbdu9utevWzUdVKBMCEIAABCAAAQhUWALVwpqzkFNIgvdcEpgwapS9+uBD9vX779vIoUOzKlrivdu229qOBx3krwOtRo0aWR1PZghAAAIQgAAEKjeB//7+20b9PcxmTJ1qC+bPi+XF1q5T1xo3a2YdV1/NOq2+ek7qGHsB/2yfvvZs3742e8aM4IJbtG1rZ99ys223774lBjB/7lwb9vvvZkuX2kpd17CGTRqXuKx8H/jhCy/aaw8/bMdceKFtuftu+T5dzsqfNHasPXPHHdbviSdt0cKFpS5XN3yPyy617Q84wKpXx/Or1EApICcEJo4ebSOGDPHRozbWec01rEZNBjVzApZCIAABCGRA4IdPPrExI0ZkkDM+Wdp37mwbb799qSsUawEvF4uD1liz0EU2c1eLV4f8WSi9uITXvCf4rSeesH/9B3fJ4sWJ7J26dLHjL7/Mtt9/f6tWLYEksb88N47ZZFMbNWyYrb/Vlnbn22+XZ1UyOvdi5/r4TTfZC3ffYwvnz8/omGwydV5zTbvk7rtsrY03zuYw8kIgZwR0j+tvyVO9ewc9PmHBGjHaaJtt7KI7+1rLdu3C5FK/6+/gWbvuZnNnz06UddjZZ9nh55yT+By18eU779o9V1yROO6cW2+xHfwBuKR27l57+SjaX8Hhur4HP/2kyL+X7z37rD1wzbWJ011+37222c47Jz6n27jlzLPsmw8+SOx+7udBVrd+/cRnNiAAAQiIgHreB33xRdCp13XDDa3jqqtavYYNYwln7qxZNuqff2zooEG2ZMmSwEW4tD3xse4umjphYmRDTPUftGxs1vQZ1vvss+2zt94KDlMDr9WtW9BbNnzwYPvvr7+s5wkn2rtPP2O9nn/OataqlU3xec2rH+pXHnjQDjz11LyeJxeFT5s0KeD40+efF1lcrdq1rVOX1YNeS/m812vQwNTWEirj3eVGvZrpbMSff9q5e+5lEiN7H3dcumykQyAvBBbMm2fn7bOvDf7++0Lla9/ADz+0U7bb3q59/PHgobtQphIk3H3Z5Tb2338LHJks5gvs8A/ad88VV9rbTz5ZYNf8uSUfWtbfyV+++jpRnr7rvw0caOttsUUiLXVj3py5pnyhvf7II8UK+KkTJ1r/l14qMGq31H/sMAhAAAKpBOQ2I5N477L++qm7Y/VZujOs458//hi4/FRqAZ8r+j1POMG+++ijYELkxf/3f4E/deiGoSehj1551fpedFGQ57Zzz7PL7r0nV6cudTkSqRVBqOqGvPrY49KKb/l+betuT1vsuqt1227bQLSng6MRB/XAqQdRT9eptnDBArv9vPNdRP1g597W22rXqZOahc8QyAuBh3penxDvDRo39pG7ywOhPmPKFHv7qaft41dfNYnQq445xp73nuPU3iC5Ag545RWrU7eej/jtZ3Xq1Suynl+//4F9/NprQR6NFKqzoSgb/MMPduMpp9po7+nJpUlUp1r/l14uUsCn5h/4wYemOTGtO3ZM3ZX4rE6UXLjcJQpkAwIQqLQE5PMuU8+7TH8r77r0suBvcJAQk3+aeZAOuX5rBFR1lV4K616aKpabM/ECd6+46uhjbNc2bW2HZs1tx+Yt7ORttwuGREpzQanHqjdY4l2+qXe+3c92PuTgAj7UEvJKu+mF54M87z/3nA356afUYvhcDAG1ZVTPuUTOCT6Mr2HwC/v2sa333KNI8a7TdFxtNTv49NOtz1tv2n0D+tumO+4YefZ3nn7a3nz00ch9JEIg1wQmjxtnL993X1CsRunuevcdO+i0U4NeFfkzXv3Iw7b/SScG+yXoNXk71e667DLrc8GFdvMZZ9gTt/ZO3V3gs4Zc1bEgW3mNNeyo888vsD/1g/KftdvugXiXK+CR559n3d3tpbS21OcKDXj5laCY1dZdx9qtvHKw/Yn/WGYjttVZ8vZTT6Wtjs7Tz10cMQhAAAKZEAgnrIYdJXEU77oOdeqobrKwrmHdg8QS/lNuAv7TN960L9ynW72pMv3x/vvXX+3p228v4aVEH/bQdT2DHbsdfrit6W4z6UxDwfKBl6lnKdXk3vH4zbfYpYccaids3d0u3P8A049x6tC2jps1fbr1Ou00e+SGG4Ji1JN8h/9on+T+sfKdDe3dZ9xlx/MNcZ8oid/nfXTgkoMOtuO32toWL1oUZBvw8stBnmSf0PB4vetcmuR7bY/jgwcguQK9eM89pom6qZZpvVKPy+Tzue4PnDqBb+dDD7Hnf/nZjrn4IqvfqFGBYtQTN+iLL+0j77GUEP/6vfeDB6fUeqvNbn3lZbv9jdc9xGSbAmWstckmtufRRxdI4wME8kVg6KCfE0VrNGmVtddOfA43eniPfGgv3HWXR0QoOA9k+B+Dw9024s8V24nEpI2H/e+Hvicy+dXXql20a9/ixUuCuT3q4e7j7oInX311gTCsJZ3fI1eZ8f/9F9Rj50MOCSaS64N6kL4b8FGQnuk/bz/5VOJvW+ox6miJ+nuamo/PEIAABKIISCjH1fJRt3LzgZ8yflwkZ8UHz5XpB0ZDyjL1RhVn8qs+/JyzC/UQy43j8sMOD+KVqwz12g//4w/78dNPvQf4MbvKe9623WefRPGKa67oMfqB14/qcy6wQ5ucdN2/f/tdkK/rBhsGDy7TJ08OswUPNPrw548/LStrrbUC95NEBt/4/dtv7fqTTvIf12U/8vIt10OQhpHe8eH8ax9/zCNjrJgEnGm9ks+R6Xb3vfa0ax571K47/oTgkDNvvNEOOOXkAocrjOSbjz1u3/bvn3akRRMBN9h6a9tm771styOOSLjHKJzkQz5p7trjj7dfv/4meBjr7cI+9cGgwAn5AIEcEhiRNHE+ne9ik+bNrUmLFqbv8sxp02yc+66v1LVrohbHXnKJP/hf6sK6nh1+dvpJqBpiDR/29zvxBFt3883to+ViPlFYxMZOBx9s5912W04jayV3aGy3336m0YXwb9qH7lqTSXQsPcz3f/ElX/9hnH313nv+/d67UO31t1SmHn4FKvjju+8K5SEBAhCAQGUjoCg6bbzjJbUTtLjrLDcBX1zFcrE/9ANt2KSJdVjuI1VUufLT1ivZ1CP8v6OODsT7vu5Lf8DJJwUxPNVr/t4zz9pbPlnttnPO9Xjl2xX60RzrjfLyvffa/n7MTh7LvGW79i5IaycXH2w/fvPN1rRlSzv75puCyRiatFVcQ+rh5LJDDwt64A889ZQgIkWr9u2D4fP7rrra/cffseu8N/6RLz4v4DKkE2Zar0IVLSZBP8q3+cNDvYYNbA2fVBKabs5Hb+zlcw1eSTyYhPtS3zUR8LsBA4LXk+5icKS7DUjA6KFJPfB93nzTPnQhINcAuedgECgrAvoDG9qYEcPDzQLvc2bODMR7mKh7P1nAy4Vsqz12LzJ6i1xN+lx4UfBdUbQX9aRnYgqH+7+HHswka8Z55CIjVxlZ1w02CMS1BHabTp2CXvmv3n3X5LoTDgunK3j9Lbe0v3/51Ucd/rS3/CE+VcBPHDMmWCtCx+9zfA/76t330hVFOgQgAIFKRUChMKVTNUdQQT0ytby40Ci0j/zZ5dcu/3b5uctHOnU4OdNKljTf6H+W/ciGPpslKUeuMxLIp13f03u2egc92hLXa7v7hiYlNPYeN/W0DXUf71RTj/dxl15q5956a9CD1nalToXcQHSMJrLd8+EHpt4z9ezpB7+44e6net8WiPd9evRw4X+zSbzL9KDS86kngx/bER454oPnXwjSk//JtF7Jx2S6vWH3rQuI909dcOtekCuQ3KSyMcWS/z/vsbz4gAMTk1LEfvcjjyj0sJRNueSFQEkIrJ4U5UAugKOHFxbxcmdLtrH/jkz+GGwX991W9BiFGpOdceMNpXpQTf7OJW8HhWfwj1xkwslW6n0PLVyHQx0cn/fLLLztvj56JpOrTGrcZo0YKrSv5hbscdRR4Wl4hwAEIFAlCMjFOdlNM5OLzouAlx+7XDnCHwz5ucvfXT96ZWkTx4wOTteiXdsSn1biX5MwDzvrrEKiWi4rW+62a1C2IqdEWTipLWpfmLazC3cNvWdjEsSyoy64oNBh6q0O3VcU1i7KMqlX1HHZpL3q4S+vPa6HqVeyNPbjZ58FDwHJIelKUx7HQqAkBFbyKDDyfZdppOhsnzCqEbhhv/0eREvq7S4xz9zRp8BDerJbXCbnlFh+2CPdyOQ2Vpq47Zmcr7g8/Zf/nVG+7fZbdu3a3nbfFS6DURFqlCfVdjnssEQ8936Pr5isqrj6/ZaHvNRDgkYjMQhAAAJVjYBGIrOxvLjQpPNjT+f3nk2Fs8nbwnv+ZeniyWdTlvIqnrwmnqlXXk9LCgk3fPCfQTFL3Nc91eQLm4mbR7vOnVMPLfKzzqsJEeq5/+WrryLzhj1coRtRcqZM65V8TEm2NZlODxNyCUg2ucLIBWajbboHIeXq+SItUz1e9D+//xH4x3//8ceJh7/wOIVhymZoKTyOdwjkksC5vW+1v37+OZhsqe/gHecXfICWAF2z20aJBYxadVg2MpZpHR6+/oagx1sjTTpXeZpcY+SKJ1tt3XULuCGuvemmwWJVGiXT8K/+JjZ3v/WiTC4+O7or4TseiUYT+I+/4nKfmFvbvvFQmZOW/3CFvfRFlcM+CEAAApWRwPy5c7K6rKwFvFwiFA5Hk5FkEqhHnndeRpNEs6pZDjJ3WHWVoJTSRjZQtJQHr7suEf85B1UrVRGhONfwtaLYFGXjRhYewi8qfy73aWLrFQ/cb71OPS0Q8bpXTrzyStvruGMTk1PD86ml1ON48Omn+WqPQ513zyTxsI7d9vprxcbMDsviHQL5IiCR+siXX9jD118fhFYMe9gV+nTzXXax03pelxDvqkNb9xXP1Ib6g0E/79GXKYxqsu98kFjG/3zx9juJaFZyE9RE/mQLI2XpAf3jV18LQmom74/a1nwWCXiNpn3er5/teOCBwSiG8mrCvVacxiAAAQhURQJ16mW34nTWAv7Oiy/xHu0VK6GqN/ihnj1t96OOLLYHpqwbJJy4qqgJCtPYqkOHrKugSAgX+4+MJnOp13jD7uo17mCNmjYNJh0826dvYqGVrAsv4QGhu40EsSLNFGXFTYYt6thc7JNfv+x998XXHIL2GYw2SLjc8MzT9sYjjwYRK664/76sXYxyUXfKgEAUAY0Ead6JXhry1ChTi7Yr3PT+HTIkcZgmeyab3MHu90nmGj07yyetJ0/2fuX++xMjT3JBvMYXRku25OHV9597PlgZdeU1ugZRZ5Lz5WpbEWZCUzjLMKRlmJb8LjcaxcQvzjQRdo2NNgpCxirqjOYSKSqVjN734uixHwIQqMwEwrmMmV5j1gI+Wbwnn0RuKsUNoSbnL4tt+VJ29vCLmsz5wt1321k33VTkafWjqLjkG2y1VWJE4eX77g/Eu4Z+r3p4RQz3IgvK8049iCjcoh6euvgPYijo83zaEhcvER8K+bAQRaMQa8XFnuYh91Z20S7Xg109Xn+4sqp66/TCIBAHAhrxmuAdAbI6/v2Ti1jqH1x1FMilRKbvaeoEernI/PXLL8H+Z26/I5hwHnzwfxYuWBhuJspIJKRsKC67XnNnz07Zk5uPcg8Kr0MT9bfYdZfIgj97q5/N8zoo7KXc9cJOk8jMyxP1nb71rLPt5y+/tDt9krrmStV1Nzr5yGMQgAAEqiIBRaHpuuEGWV161gI+q9JjkPnkq66yK4880odpn/BVEk8KVvmMqpYmj2kkQa5BinISWuhDHjWZTBPZfvVFTsraFMVirY27+Q/gV0GMeLmdpJquY7g/uMjfvUtS9IzUfGX9WYJDnNW7rqgTof32zTem6BvP9b3TFI9f7ggYBOJEQJPxT+y+jS30xZmq16hhd7//nn8PN05UUUJUiy+Fcz408T11BEwuNYO//z44Rg8AydbZV1vdYOutkpMKbGtuUThZvk2njtZ2pZVspS5dC+TJ1Qe5xITfTy2Cp2g4UbZo4aIgPKz2KbxrD49xX5zpb+k9V1wZdEDI/12mDhL5yGMQgAAEqhoBreRdkjjweYlCEyf4irmsRVAktk/faWf7wRdfSjUtynSBR5eQ6NWS5VvvuWciy0o+RC379M03Ej/M+qwJXr3POScx+UppZWkn/u9/wekUQ14LTSWbJpadvfse7vpzkC/2FK/FUOReoAVqQnGQXG9ty7//uTv/LzWZzxAodwLqIQkjsej+ve74E+y1hx4ORLX+rlx/4kmJsK3qtd7r2GMK1VmhZ0/weSASxKli99hLLra+7hee7qVF5kLTImfKd0GfO8KknL4nR5/Zfv8V4SNTTxLyUHqm0WjU277bEQX96fc94fjUovkMAQhAoEoQkGtxamdPJhde6XvgBUF+4tefdHIwZHvR/gcEPVeKoiBXjZF//ZVY8U+9Wr1ffSXhwqFjDznjDPv09TeCVQQVE3nTHXcIhroV/UW927t77/57zz6rrGVq622xRTDR7eX77vOHj/1svS23sI6rrmb/+gRQTYZTL+EmO+xgex5zdJnWq7iTrdmtW7As/G3nnheZtZOH6rv60Uci95EIgfImcK4vLqYHfoWOlAuL1ilINUVMuv7ppxIhE5P3a98xF12YnBS7bcW3D0cJ5Aa0lvupp7PNd945uE6tLaHRSrnS6DtenMnfXWFmZfKJT54LUNyx7IcABCAQRUB/X+X+F0dT3XJtlb4HXsA0wez2N1439XAJoiKzaFVQCW9NUtUqgkddcL496L1oqT6tmnR104sv2Cprrx2ssKhlxQf6pKu1NtnY+r7dz/1cswsTl8sGPLPXjXbNY49aR1/86devv7F3nn7ae9y/DSbYqoe+1/PPFXgYyeW5S1PWXsceG9lzqEWs+r71ZuzmUpTmWjm2chGQm8ftb7wRTNhUCMRkk1vNBltvbfd/NMDW2Wyz5F0VanuA/40LTQs2FbXwlCbjbuYiPrRMe+E10nn+HbfbSe7iqL9jGAQgAIFsCdSuUzc4RB4RMo1w5kMoB4WX4h/VSXWThXUN616KYq1aePDHU6dktEzmgWusWSAKTXj8K0P+TAivmzwEWtQKoFc88IDtcughwSHyl+x1auGoBbsefphd7r3KMsUWPsjPl2rNPJTbq36+kpqiOWjFq8WLFwW91go3qR+i4kwh41QnRUmp4T/WcTL5lmvl2eZtWifaIU71i6rLm48+GiwZr30Kw9e331sFonlEHUMaBOJCQKEVNRl77Ih/g8mqmoCUyd+RuNSfekAAAhCoyAS+fu99mzRubDDqF6e5fkUxVRADjVS2bNvOttx9t6KyFrsvoULdH/PaYnN7hrYrr2S/+oTD8ClCoQx7XHqp98LslDhc8XyVJxzKUE/VVrvvHvSAh34+6m0d4YsgKUa7/EnVy7P6eusFTylhVBWFa5Oby5CffgpcQnQC9aZrkqMmfJXUGjRq5JO/ugT+7s1atwqW786kLPlu6klKYePiZmIs8V6RFjvS0Hlz568Ho1teejFYGCZuXKkPBNIRUCQaTTzSIkdyv6tZq1a6rKRDAAIQgEAeCMijYsr48YGGrO+aMXVkNA+nLFGR0szq8Bk6aFAQeavrhhuWOoJg1j3wJao5B0EAAhCAAAQgAAEIQCCHBBTuNlzcMofF5rUoTVpV5JnSGgK+tAQ5HgIQgAAEIAABCECgXAj89/ffNurvYaZw4AvmzyuXOhR3Uvm8N27WzOcsrmbyQMmFIeBzQZEyIAABCEAAAhCAAAQgUEYE4ufMXUYXzmkgAAEIQAACEIAABCBQEQkg4Ctiq1FnCEAAAhCAAAQgAIEqSwABX2WbnguHAAQgAAEIQAACEKiIBBDwFbHVqDMEIAABCEAAAhCAQJUlgICvsk3PhUMAAhCAAAQgAAEIVEQCCPiK2GrUGQIQgAAEIAABCECgyhJAwFfZpufCIQABCEAAAhCAAAQqIgEEfEVsNeoMAQhAAAIQgAAEIFBlCSDgq2zTc+EQgAAEIAABCEAAAhWRAAK+IrYadYYABCAAAQhAAAIQqLIEEPBVtum5cAhAAAIQgAAEIACBikgAAV8RW406QwACEIAABCAAAQhUWQII+Crb9Fw4BCAAAQhAAAIQgEBFJICAr4itRp0hAAEIQAACEIAABKosAQR8lW16LhwCEIAABCAAAQhAoCISqBm3Si9dutQWL1oUvJYsXmxLliwxpYXv/iFuVaY+EIAABCAAAQhAAAKVgUC1albNX9WrV0+8V69Rw2rUrBm8tC8OFgsBL4G+cP58WzB/gQv3hXHgQh0gAAEIQAACEIAABKoaAdekQWeydyBHWY2atax2ndpWq06dQOBH5SmLtHIV8AK0YN48m++vpWlAlQUEzgEBCEAAAhCAAAQgAIHiCKijea6/5s2da3Xq1rXa/iqPXvlyE/CLFjqA2bNNbjIYBCAAAQhAAAIQgAAEKgoBdTzPmzPHvUfmW70GDaxmrVplWvVyEfAS7up5xyAAAQhAAAIQgAAEIFBRCagjevaMGUFPvIR8WVmZCni5zMydNcsWLlhQVtfHeSAAAQhAAAIQgAAEIJBXAuqYVq98vYYNy8SlpkzDSCLe83rvUDgEIAABCEAAAhCAQDkRUAe1tG5ZWJkJeLnN0PNeFk3KOSAAAQhAAAIQgAAEyoNAIOJd8+bbykTAa8IqPu/5bkrKhwAEIAABCEAAAhAobwLSvNK++bS8C/jA770MnkTyCYmyIQABCEAAAhCAAAQgkCkBeZ5IA+fL8i7g9RRCqMh8NR/lQgACEIAABCAAAQjEjYC0bz69T/Iq4PXkoUWaMAhAAAIQgAAEIAABCFQlAsFCpXnqhc+rgF/owe1ZYbUq3apcKwQgAAEIQAACEICACEgDSwvnw/Iq4BfMJ957PhqNMiEAAQhAAAIQgAAE4k8gX1o4bwJe7jOLF+V3Bm78m40aQgACEIAABCAAAQhUVQLSwvmYzJo3Ab940aKq2lZcNwQgAAEIQAACEIAABAIC+dDECHhuLghAAAIQgAAEIAABCOSJQIUS8ISOzNNdQLEQgAAEIAABCEAAAhWGQD40cd564Jf4zFsMAhCAAAQgAAEIQAAC5U3g0V697MfPPi+XauRDE+dNwOfDYb9cqHNSCEAAAhCAAAQgAIEKTWDM8BHW84QT7OYzzrSJY8aU6bXkQxPnTcDn42mjTGlzMghAAAIQgAAEIACBSkXgmw8+sDN33c1euvc+W7igbMKd50MT503A5+Npo1LdQVwMBCAAAQhAAAIQgECZE1gwb549c8cdds4ee5aJW00+NHHNvFHL09KxeasvBUMghwQmjxtnL95zrw364gubPH681atf31ZdZx3b46gjbYtdd83hmSpvUTOmTLFJznHVtdeuvBfJlUEAAhCAQLkRGPvvv4FbjX6XT/zfldaqffv81CUPmrhaWNOPp05ZGm7n4n365Mm5KIYyIFDhCHz44ov2aK+bbO6sWZF11x+KM2643ho3bx65v7wT1SMx8q+/gmq89PtvVqtOnbxUacyIEXbGzrsEZXfbdlu7+tFHEuf5/uOP7eYzz7JFPry5/QH723m9eyf2aaOoYwtkLOWHsjpPKavJ4RCAAAQgEEHgv7//tvH//WeTxo61Nx973MYMHx6Ra1lS7bp17ZAzzrD9TzrRatWunTZfSXc0adGipIdGHpe/HvjI05EIgcpN4Nv+A+yeK64MLnKDrbe2fY7vYZ3XWMOmTZrkw3Sf2cvucyf/u7mzZ9u1jz9m1aolnqErN5gsr+79558PxLsO+/T1N+zEK6+0Rk2bZlkK2SEAAQhAoKoRGPHnn/bRq6/a1++9n9Vk1dCt5qNXXrGTr7nGum27TazRIeBj3TxUriIRkMvH3VdcEVRZT/A9LrssUf2W7drZ6uutZ1vssqtdcvDB9vOXX9o7Tz1tex17TCIPGysIrL3JJvbdgI+ChE6rr454X4Em1luzZ860V+5/IKhj25VWsl0POzTW9aVyEIBA5SEg19Wnb7/DPnn9dSuNz7ncaiTi1+q2kdVr2DC2gBDwsW0aKlbRCHz2Vj+TiG+/yip29IUXRlZ/pa5d7Mjzz7NHb+xlbz3xOAI+kpLZ3scdZ01btjL9IUUEpoEUw+Q5M2fZqw8sE/DrbbEFbRfDNqJKEKiMBL4dMMDuOP8CmzdnToHLa9ikiXVZfz1r6b7tv37zjY37d2SB/akfumywQTDiu6aL97gbAj7uLUT9KgyBYb/9FtR1g623spq1aqWt98bbbx8IeP0hkZ98nJ/w015EnnfI/3AH933HIAABCEAAAkUReOORR+3xm28u0Ou++S47e9CIo0wdCTVqLpO6N5x8SloB37JdWzvm4ott2332qTCurQj4ou4K9kEgCwKzZkwPcrdz14GirG2nTondM6dPR8AnaLABAQhAAAIQyJzAgJdftsduuilxQNuVV7Kz/fM6m22WSCtqo069enbQaafafieeaHV8EmtFMgR8RWot6lo5CMRg4qom0U4YPdpatGljGmIsrcnfcNzIkcHDSNMcz7Qvbd3C41XHqRMn2sxp06y1D6eWduRDC3NocvKMqVNND2V1PVRoPm3WjBk2yVcPVG9Sh1VXterV0y/jkYv2WLxokY0fNSrojVJotaJGlXJ93YoYsXjxYmvTsWOuiy5U3sQxfq5FC621n6sopoUOTEnIdZ2D9nYOjZs1s+atW6ecbcXH4L6eMMFmTZ9hbTp1NAmSfFiuvz/Z3M/5uB7KrPgEhvz0k9139TWJC5Fov/Seu4PvTCIxzYYCSOxw4IHu7npBkd+vNIfHIhkBH4tmoBIQyD8Bic1n+/a1P3/40RRaSz/Iso6rrWa7H3mk7XnM0VkJGAm81x562AZ9+YX989vvNmd52MxmLjYUu323ww+3zXbeqUQXpj/MCiMp23afve34yy8vUTkSgQM96s9bjz9hf//6a4FV95p4GM91t9jcjrrgAmvfuXPG5cvt6Zk+fYOJUrN8BCW0Ni7idz38MA9BdpLVqFEjTM7q/cfPPre7lk9+Pvaii/wH5gD7vF8/9yt/0IYPHpwo6+kfvi/04JWL9li0cKEN8Mlb/Z54wsOtjXBhuyg4p37sNLdjz6OPtp0PPaRQT9XxW20d5FvivEMb/MMPFqYrbV3/cb2wb59wd4F3nefNxx6zHz/9zBRBQg9Zsvo+gazzWmsFw+AHey9ZLkKa6p7o5/fDD59+asP/+CNxLrlt6T7Y6eCDbA+/zuLCyOWizlHt/fNXX9nTt91uf/3yS4JRc3/QPvCUk4O5IWFiMGH4vvutv/dAau5NaLoPDz3zDNvxoINK7QpQ2u9P1PVlej+H18M7BKII6N78v0svS0QrW8V/c65+5OGMHmAl9E+88opgbZaositKGgK+orQU9YRAKQj8+eNPdstZZ9lU76lLtVHDhtnD119v3/bvb1c8cH/q7sjP6pm9/bzzbeigQYX26xw/6PXJJ8Ek3R6XXpq18JKQDOs6e8bMQufIJEEC57rjT4iso46f7qLny3fe9bCeH3rEoEttnx49ii1W9dKDhaIIpZpiDT/V+7YgdNm1TzxuDRs3Ts1S7OeF8+cnrnve3DkeUeF2e9lFWnGWi/ZQBIf/HXV0MHE49Xx62Bv9zz/2UM+egdC+6fnnTKJSFvYApx6T3IbaF4ry1HyaqNznwosi20kPhX98913w+vq99+wCfwBQWNaS2kQfwehzwYX2x/ffFypCS6r/O3RosIbD2x4h6sI+d1jXDTcslE8Juapzanv/4w8UN55yqimcXbJN8cXgHr7+BtMD0r4nnBCMduneVj1STffhXZddbj99/rlddOedqbsz/pyL70/q9WV6P2dcSTJWWQIDXno5+JskAA38b+0V999XrHhvt/LKdtm991SaxRQR8FX29ufCc0VAAlBhq/74bpkoUG/vFy4M01nY8639d5x/fuCrd/Bpp5XapSPd+SRWrj7mWJOgkqlXc4Pu3YOZ+UsWL7GhPw+yX7762n75+mt78LqeJteQokyi4aL9DzD9wMs0+WeLXXezVdZa02a7m8dfv/zqwvidoJy3n3zKxcZ/dtXDDxVVZM736RqSxbuuec1u3WyNjTa01h062sSxY2zgh/1NE4/Vk/rYTTf7vo2sq0cgSGeLPJ+EkcT7quusbWtvsqmPXqwauNH8/u13QYQDHaue/mf79LFTPI5waWzw9z8Eve8qQ2FIdc4Wbdq6q8T0xKQs7ctFeyhyww0uHENB2KnL6sEIikJ4TvNF+X7/9lv7yUcHJIAlEK8+rof1eeP14MFMvfNHnHuOqhLcE28++liwLZeUnQ46MNjWPwormWqjfVGVC/fbPxE5Qj/E62+1la2+7jp+jbWC9tF9qYUBtbjYRQccaL2efSatsE4tP/mz6n3Bvvsl7tu6DRrYBn6urhtuYLV9sbJRw/6xz996KxhJUl4J6d6vver3S4fkYixfddaKzb1OPU1PRLajD+0r7OzM6dN8VOJTG/LTsgflx2++JXD10UOd2kqjZ5vssIPJ71cuPN+8/4Ffx7Cgvl+8/Y5tu+++ttlO2Y+C5eP7k+n9XAA2HyAQQUC/oS+6q0xoB59+WkYrqGql1cpkCPjK1JpcS5kT0Kqr4cJN4cklcvTKxNQzrtegL76wW30oPJwtn8mxmeZ58tbeCfHeec017XLvqUj1LdaPvsSDYt8WZ096L3Mo3jVj/7Se11n9Ro0KHLbXscfarWefbeo5VE+83AIklsrKfvHzhaMDK3ftauoRb9aqVYHTH3rmmfbUbbcFccvVs/nELbfajS4O05nKVPuccu01QXSD1EW43nvuObv/qquDw9975tnA3SEb15zU837mYlJ+9Rod2NXdkdL5Z+eiPQZ++GHgTqI6aFVcjcQk+7xv50JQPejn77NvIBRHuQvWD+7ussWuy1bSPczbWiZ/8lDA6x4L04OdEf8ockQY9k2C9dJ77vEf4nYFcso95LZzzwseMLUy7yM33mi3vPRSgTyZfHjc2ze8bzv6g4l67FLb55iLL7I+HopO7jUaoenrIwO9fLQh2fJVZy3yJveX2157zRRuNrTDfOTsuTv/z164667gofjmM84MdsntTYIk2dVHeTUypsXiZHIVKomAz8f3J9P7Oag4/0CgCAJ//fyz/x0aF+TQ6qb6vamKln4WVFWkwTVDIEsC8k3OhQ1zH/Kfv/wqF0UVKENC5M8ffwzSGvlkOLk+pIp37VRP3s0vvlDsKMBg95+XK4NsFfdNPrf3rYXEu/Yphu4ZN96gzcCevPXWhM99mJbP9wXz5rurwfHB66ybbyok3sNzH+kjIPKFl8l9oTiTm438wFPFu47b/YgjbP0ttwyKUA/mEH8wK62deu21wfyEdOI9V+3xm/ewh3bAyScXEO9hulbC1QQxCUe9Fi6YH+4q0fuvX3+TWKyracuWduNzzxYS7yq4sbfPNb5qsSbuytQb/Xm/t4PtTP/53d1wwvtWvfw3v/B8IfGusuT2dKkPsYejBRq9Um98aPmu81kePSNZvIfnPezsswrUd2V3Izr56qsKiHfllZg/6ar/hYcFowWJD1ls5Ov7U9z9nEUVyVqFCQx0d8/QFC5SI2hV0RDwVbHVueacEQhdDnJRYC7LCuujnuDQ9nPf2aIir0go7V1MT0Y/78kOrcfllxU5YrDJ9tsHQl759YASDu2Hx+fzXZNnT/BVcfXqsv76aU+lyaYSQzJNTi1q5EQi+rCzlvV+piuw+157JXaNHv5PYrskG+ol1iTWoixX7TF/7gqf67+Xr2cQdV6x1IiLXtvsvXdUlozT3n7qqURePTQUFcJN7XTIGacn8r+TdGwisYiNfk88mdi734knFJoAnNjpGxIDJ/gEN8WQ1muKz+cILZ91lovUej6pOsp078nVJzRN7E43Wid3Kz0QyTSvYYHPq8jW8vH9yeR+zrae5K+aBBTkIDS5kFVVQ8BX1ZbnumNHINk3PleV08TD0BQ9pDjb7YjDi8zy319/B/vlXrH2xhsXmVc7V19vhXgeO6LwhLtiCyiDDPUaNkicZe6s2Ynt1A25NxT1AKT8CuMX2vj/RoWbJXrv4i4lxVmu2kPzF0J79cEHA3eV8HO+3pMfcHZM8pVPd75t3F2rpvcwy0Yl3dfp8ienjxq27L5V2q6HHZa8K3JbbienXndt8For6T7PZ507r7lWZF3CxAaNm4SbPmK2emI7aqNF22UTjLVPk3PzaZl+fzK5n/NZT8quPASmjF/xUB2OzFWeq8v8SmpmnpWcEIBARSKgMFuKTiLThL1M4rO3aNs26IGM6rWTW0g4SiB3iveff6FYHJqYF1p4bPi5LN91PRK74/8babM8qo0m287xSbizZ84IRgcyqYsEfHEmLqGJf2msSYtlrj3pyshle8j9RxOONRFy5tSpwaRnhY3cZIftPfzj5rbWJhtb8rWlq1Om6cvqPjLIrgnGmZStXvhW3rus+0h1VBzxTCL9JJ8r+B4s753OtK5hvuRy8lHnxs1W3DvhOdO916xdK92u5enVitmf3e5cfH+Ku5+zqxG5qzKB5FGxotZIqOyMEPCVvYW5vipLQIv+hHG8o/zeo8DIt7u1C1VNUkw1ibuwN08LIin0ZDZW1gJeAlrRgd54+JECce+zqXNy3nR+6Ml5ynI7l+2hkYXrnnzC7rz4ksTk3zEeIeZNvZZHlVFIxe577mHb7befaeJYaUyuSpqQKmuVEuWlqHIV2Sa8j1S/oqIGheVM8IfY8FzJqyCH+zN9L8s6Z1qnfObL9fcnn3Wl7CpMYPl6JlWRAAK+KrY611wlCCT3AFfPYmGhdIsQLV64KMFNrgyZ9OgnDvCNXCzCk1xeUdtaafaKI45MRFYJ8+oBRRFzNJGxYRN/uVuCwhNqkauKZrlujw7e436TT+5U/PAvPQTh9x9/XCB2u6L66PWSR0tRJJ7S+MAvWbRidKJGzRoZo69eY4XX5+KkMooqIHnCcWnc1MqyzkVdT1nsqwrfn7LgyDnyQ0C97mNGjAgKn+KdSR28AyLXpo6C03faOShWq5U//s3XkZP7c33ebMpDwGdDi7wQqEAEFL9avcYa+lcvZKYWut2k5m/dsUMwcU69+nJluG9A/9QssfmseO1aZVOmXtsDTz0lWAlUC3mkTv676fTTg5jwsal8hhXJR3vo4U2Tj/WS2NXCRn94jPtvBwwIQp2qagoneYeHWtSPqFY0LIm19rkCagfdSxNGjc64iOS8HVbpnNFx6uHXA6d64dPd25kUVJZ1zqQ++cxTFb4/+eRH2fkl0LzNCgGvkTh1PuTatCJ0aApxmxxWN0wv7/cV3RnlXRPODwEI5JSA/uC0bN8+KFM+3/IZLs60YM48772OMgmu0BVHvRNh/O6ovOWZNsP9o796d9lCWgqdqfCY8vFWqMxU8a56FjVxtTyvo7hz57s91HOtVU/3POZou9bDOPbt91YiqpDE/XOlWOVTDwrhnAItTKX5CMWZzjlx9DKxrxEURU3KxPQQ284XOpLp3i7paEtZ1jmT68pXnqry/ckXP8rNPwEtuhfadx99FG7m9P3Xb75JlLeaLywXR0PAx7FVqBMEckQgeaGaz954s9hSP37t9SLzaGJjaL8NHBhuxupdq6uGtt4WWwQ9xeHn1HeJwuT8qfvj/rks20OLgCksZ2jDB6/ooQrTkt+XLl2S/LHQdnKv2edvFx/XXSvnhpOrk6+7UMERCR1XXS2R2t+XYC/OtCbABz5JW6+RQ/9KZC/LOidOWsYbyd+Hyv79KWO0nC5HBDbfeZlri4ob6Cuhh38XclR8UN6nSb+XG27dPVdF57QcBHxOcVIYBOJFIDmO+KsPPpCYhBpVy/lz59prDz0UtSuRtvMhK0JRaoXXZD/7RKakDflL97344uBVVnHgkyebphtNCKv4sa96Ga7OGabl+33RwoU5+8HJRXtoZObh628IXk/ffnti1d4oDhrFCPk29tGNVKtVZ1mYR6VPmzQ5dXeBz8l1f+W++xMTrgtkSvrw0r33JD7tknQfholFcd3j6KPCbPbGI48EMf8TCREbWl353v/9L3gtWrQwkSPXdU4UXMYbRbEK21dViuP3p4xRcboYEuiywQbWsl3boGZaMfntJ5/MaS3f91W1NWotUyfYeltukdPyc1UYAj5XJCkHAjEkoImGK3XpEtRMS0/fcPIpBSYmhlWWW8E1x/UwudAUZVvsuoutvckmQRZN/pTQmT9vXuQhT/jS9c/ccYd94r36WpU0217TyEIzSFwtKX66hkG1iFSUDfriC3vgmmujduUtTcvJn7TNtnbCVlsHYRtLe6JctIdCMf7oK/b2e+IJe9mF9GO+Gmg6e90j+mhOhWzdiEWHNLG5dt26wX6tQTBiyJBgO+ofraAYljHBXWNuPOVUkztNqunB8vbzzk+048pdu9pOhxxcIFtxXLVCbrjgi3z4rz72OJuSFOI0LEwjMo/26pUYldE9u+raa4e7LZd1ThRaxhvFsYrz96eMUXG6mBKQe9+hZ56VqJ3+bk0cMzbxuTQbWvzsmT59E0UkP/wnEmOywSTWmDQE1YBAcs9XrmiozKMvvNB6nXZaUOTPX35p5++zr22x666+Qul6tmTxEhv6y8/2zfsfmEJDbrXHHkGM7WT/v9S6aAXWyw49zI9dbB+98oovbf+TbbvvPrbaOuvYAhfzQ3/+2f788Ud/LVstT3XocdlliZ7b1PJy/VmCVNf3zQcfBCMOlx9+uG3YfWufmLmDtfPelNH/DLMfXLB+N+CjoBdnzW7dTFzybRqtePLWWxM+2E95b7cWMKrnMfpLY7loj718Bd6HevYMqqF48AqZuO7mm9s6m27mgryOjRk+wvq/9JKF/qYNPJLPvj16RFZbK9v+5feAxPBF+x9g3bbb1jbaZhtr0aataYXPZDvh8svt4oMODnrff/zsMztv732Ctltt3XV9vkKNQEirncKIEzpWq6QmR0rKlGuPyy61X776Khj9+OuXX+z8ffezrXbf3Vc43dDq1q8XhKf86JVXEysG1/KJr+fccktydYPtXNS5UKFllJAJq7h+f8oIEaepIAT0EP/mY48F31f1lus37maPolWnXr0SX4GiL/U67fTEyJM6v7Qac1wNAR/XlqFeFYKAVoFLXu20NJVuv0rn0hye9liJpkvvudvuvOTS4A+T4oertzXVuu+1l51/x+128xlnpO4q8Fmxt296/rmgV1Q9p7r+5/reWSBP+EETaS/s2yfouQzTyuL9rJtvsuGDB/vCTf8FDxXf9h9geiWbJlH2fOrJYPi1LAS8K1r9X9AKJRTcncmnXLTHXsceY+p50iqssiheYV3q1q9vl99/n3VaPrITpofvPS69xK48ctmPnlw1wrI27N69kIBf1R/6bnnpxSCqjUR6untTZWuRsfN69y48nJ0hV7n/3OYuU7efd14QXUejTe8+80zwCusevksESLyv2W3FZLlwX07qHBZW1u8Zsorl96esWXG+WBPQQ/xZPlr4v6OPDiJMKerY9SefbJfefXdGC8OlXpxG/27xXv1wDog6ns7sdWMso8+EdceFJiTBOwRKQOCws1cM45Xg8MQhWq59/a22SnzO9caWu+1mt736im283XYe/3zFkuw6j6J5HHzG6YF4T+7ZLKoOigLQx6OS7Oa9222XR/hIzq+FgfbxHtp7PvzAdO6yNvUi9n3rzeC6UntkWnoIzG333Td4CAmj6pRF/RQ15tiLL7Imzls92EdfcL6JUy4sF+1x7CUX243PPhO4miTHTg/rp9VSD/GHuwc//STonQ/TU98VWlLlrLu5eu+XudMoj496R5pCtN3x5hvB/aIH4tRz6/7a5bBD7c63+xUW715iNlxX6trFer/2qh3gP/SduqxeaFRI7aEh8/s/GmBb+6JV6ay0dU5Xbr7TM2UVx+9PvtlQfsUjoAfs069fNnKo2v/2zUC7+MCDbPAPP2R1MRotvmC//S155Pn0G6635Gg3WRVYRpkTf1I/njoltW+oVFUozpe2VIVzMARiROBnH5aXn3fy8s6ZVk/uCWu6GN7bxW6dJLGT6fElzTd2xL827r+R1rxNmyCGbmlj3CoMoHq8q3mvhURxM48Rng+XoJJcbxgHX73x8mlutTy0ZknKysUxWs1W7kepDxa5KDsso7TtsXD+fJvoIzVaP0AuPm1XWqnEq6/K51yuG3pwSRXnYX2T3+XzrvjzWqip8xpdM37IKQlXzd/41+M961jdG81atUquSsbbJa1zxifIccZsWMXt+5NjFBRXCQhobs4TPmImt73QNPK8j8/rWnvTTSLDB+tv0p8u9F/3Se1y00s2uXzuf9KJyUk52S7tCtaplUDApxLhMwQgAAEIQAACEIBAhSGglaNvP/+CQhGmNOKsnvQWbdsErjWzpk23yT6BXb30YaSZ8CK1vsS5vW+1zXYqOFcn3F/a94oj4D20T2GHz9JePsdDAAIQgAAEIAABCECgIAFFonmub19TeODk3viCuQp/0sigIrYd4y6OeRuh9XNoFDKXlrceeK3mtnR5uLFcVpiyIAABCEAAAhCAAAQgEEVALnj9X3zJBvbvH7gBRuVRmsS6wstqEr8muefT5F4atXZGac6ZNwGvGb2LFy0qTd04FgIQgAAEIAABCEAAAiUi8N/ff9u4kSODOWozp06zhk2bWLOWrazDqqvkXbQnV1gTyFMDSCTvL8l23gS8fIsUQgyDAAQgAAEIQAACEIBAVSWgQBHysc+l5S2MZFwiUOQSFmVBAAIQgAAEIAABCEAgGwL50MT5E/AeZB+DAAQgAAEIQAACEIBAVSZQPQ+aOG8CXv4+GAQgAAEIQAACEIAABKoygXxoYgR8Vb6juHYIQAACEIAABCAAgbwSqFACXnE1a9SslVcgFA4BCEAAAhCAAAQgAIG4EpAWzmQV6mzrn7ceeFWkdp3a2daH/BCAAAQgAAEIQAACEKgUBPKlhfMq4GvVqWMKXo9BAAIQgAAEIAABCECgKhGQBpYWzoflVV1ryKBO3br5qDdlQgACEIAABCAAAQhAILYEpIHz4T6jC86rgNcJanvl8xE+R2VjEIAABCAAAQhAAAIQiBsBaV9p4HxZ3gW8njzqNWiQr/pTLgQgAAEIQAACEIAABGJFQNo3X73vutC8C3idREvI5vMpROfAIAABCEAAAhCAAAQgUN4EpHmlffNpZSLgdQF6EqlVm6g0+WxMyoYABCAAAQhAAAIQKD8C0rpl4XlSZgJeKOs1bIiIL797ijNDAAIQgAAEIAABCOSJQCDeXeuWhZWpgJcvUP1GjXCnKYuW5RwQgAAEIAABCEAAAmVCQG4z0rj59HtPvpCayR/Kajt0p5k7e7YtWby4rE7LeSAAAQhAAAIQgAAEIJAzAoo2I12bb5/31AqXi4BXJXShDZs0sQXz5tl8fy1dsiS1bnyGAAQgAAEIQAACEIBA7AhokSbFeVfPe1n1uidDKDcBr0roguvUqxdc/ML5823B/AW2eNHC5PqxDQEIQAACEIAABCAAgVgQqFHTIyvWqR2ssFoewj2EUK4CPqyEAOgJRq+lS5e6iF8UvORes8R75pUWvvuH8DDeIQABCEAAAhCAAAQgkDsCrkmlS6t7D3v4LjeZGjVrBq/yFO3JFxkLAZ9cIYGRe01Z+xIl14FtCEAAAhCAAAQgAAEIxJVAmUahiSsE6gUBCEAAAhCAAAQgAIGKQgABX1FainpCAAIQgAAEIAABCEDACSDguQ0gAAEIQAACEIAABCBQgQgg4CtQY1FVCEAAAhCAAAQgAAEIIOC5ByAAAQhAAAIQgAAEIFCBCCDgK1BjUVUIQAACEIAABCAAAQgg4LkHIAABCEAAAhCAAAQgUIEIIOArUGNRVQhAAAIQgAAEIAABCCDguQcgAAEIQAACEIAABCBQgQgg4CtQY1FVCEAAAhCAAAQgAAEIIOC5ByAAAQhAAAIQgAAEIFCBCCDgK1BjUVUIQAACEIAABCAAAQgg4LkHIAABCEAAAhCAAAQgUIEIIOArUGNRVQhAAAIQgAAEIAABCCDguQcgAAEIQAACEIAABCBQgQgg4CtQY1FVCEAAAhCAAAQgAAEIIOC5ByAAAQhAAAIQgAAEIFCBCCDgK1BjUVUIQAACEIAABCAAAQjUDBEMGTQo3OQdAhCAAAQgAAEIQAACEIgpgWphvbYaNnRpuM07BCAAAQhAAAIQgAAEIBBPArjQxLNdqBUEIAABCEAAAhCAAAQiCSDgI7GQCAEIQAACEIAABCAAgXgSQMDHs12oFQQgAAEIQAACEIAABCIJIOAjsZAIAQhAAAIQgAAEIACBeBJAwMezXagVBCAAAQhAAAIQgAAEIgkg4COxkAgBCEAAAhCAAAQgAIF4EkDAx7NdqBUEIAABCEAAAhCAAAQiCSDgI7GQCAEIQAACEIAABCAAgXgSQMDHs12oFQQgAAEIQAACEIAABCIJIOAjsZAIAQhAAAIQgAAEIACBeBJAwMezXagVBCAAAQhAAAIQgAAEIgkg4COxkAgBCEAAAhCAAAQgAIF4EkDAx7NdqBUEIAABCEAAAhCAAAQiCSDgI7GQCAEIQAACEIAABCAAgXgSQMDHs12oFQQgAAEIQAACEIAABCIJIOAjsZAIAQhAAAIQgAAEIACBeBJAwMezXagVBCAAAQhAAAIQgAAEIgkg4COxkAgBCEAAAhCAAAQgAIF4EkDAx7NdqBUEIAABCEAAAhCAAAQiCSDgI7GQCAEIQAACEIAABCAAgXgSQMDHs12oFQQgAAEIQAACEIAABCIJIOAjsZAIAQhAAAIQgAAEIACBeBJAwMezXagVBCAAAQhAAAIQgAAEIgkg4COxkAgBCEAAAhCAAAQgAIF4EkDAx7NdqBUEIAABCEAAAhCAAAQiCSDgI7GQCAEIQAACEIAABCAAgXgSQMDHs12oFQQgAAEIQAACEIAABCIJ1IxMJRECEIBAjAgc1qSpbVu/obWqWdOmLl5kP86da49MnWyLIuq4R8NGtk2Dhta6huddstgGed5np0+1pSl5sykz5dCcfcy0rjk7IQWVCYE1atfxe7CBbVyvfnD/PeD3KgYBCEAglwQQ8LmkSVkQiDmBBtWr2zp16lpbF8I1q1ULRO1SV7ZLg//0brbAE6YuXmyTXSiPWLDAFpfzNe3gYvycFq0StehQq5atW7eezfd6Pj5tSiJdG93rN7D/tW5bIG0rT5M94yI+tGzKDI/J9Xumdc31ecPy6nn7d6lTx9rVrGW1fDud6X4YvmC+vxZEPjClO64qpeuHtJuL9W38Xuvuwr21Mw1tfb9Xf5w3176bOydM4h0CEIBAqQkg4EuNkAIgUDEItHHRfl/7jtYmSVwUV/OZLuQHuvB4d+YM+6acBEhX782MsnXq1i2UrIeTKNvA8z4zfcWebMpccVRutzKta27Puqy0Vj46cXf7DtaxVu2Mi1/kQv7P+fPsIe9N/h0ucYQAAEAASURBVN5HNSq6dXNh3d4fBnVdejgZ4g8p2VpDfyA+vmlz26dxY2tQvUbaw/dr1BgBn5YOOyAAgZIQQMCXhBrHQKACEtjFXUuyEe+6xEY1atjOfpxeP3sv4v9NnugiLnuhUxpctdP0Dkelp+tJTk2POlZ1TJdemvqnOzbdueq4KMy37dKwYVbiXfXRiI1GPu5s19G+mD3L7po8yUYtWpjvqual/Bt8lGYHv6eT7UUfobnTrykbO7FZczu0SbNiD9FIBwYBCEAglwTy/0uRy9pSFgQgUGICTYvoIcyk0A1cvD3QvpMd0LhJJtlzlieNfrcop48Z7vMeZTOXLCmQnE2ZBQ7M4YfyrEMz74EvjXV3t6YHOnQK5hmUppzyOFbfg1Txrnoc1Lhp5D1VVB0Xp06sSJP5t3nz0uwhGQIQgEDJCCDgS8aNoyBQ4QhUj1K8WV6FemEvatnazm3RMssjyyb7R7Nm2TR3+0m2he4i8ba7AGErCNTIwb3Q1EdnerVpZ7Wylr0r6lEeW5oHEmU1/N7WNWVj8m1PZ3P8ofHjWTPtknFj7PqJ49NlIx0CEIBAiQiUrhumRKfkIAhAoKITkNvApEWLC0wMjcM1yaXjuFH/mkYLWngv83TvkR/sftsjF1ZMV484MC2qDmv53ILzW7ayWydNKCpbrPYV9eyS7cPIV3Nm2z/uO7/q8nka0/3h8Ys5s+zT2bMDn3dNAMYgAAEI5IMAAj4fVCkTAhWMgCbyhaY+yGrp/DvCTP5+evMW9peLl2/LaXJrUlUKbE5yETXAfbSxkhFIvhdUQnH3w37uUvXstKkV1h++ZJRWHHX2mNE+R6Rh8F341V1lCjprrcjHFgQgAIFcEkDA55ImZUGgAhIY6pNSjx89MlHzOi7eV/cexTV84t2R3tPeziN1RJlE/rke3vFY7/Eu6LQSlXtZmvyPV61d25q4q8IUD1M5btEiG+8vLB4EUu8F1Uq90ut5T/vZ7jbVNU2UH02QfiwlpGfUFeWq/TUBWJF0WtasEUR/mRTcRwt9xKXs5fM0H+V5ecZ06+Tfk+18bsBsr4M4Kh2DAAQgkC8CCPh8kaVcCFRQAoqv/ru7neil8JFnuHA70Cf4RVlnF+N7eoi8t4rwMVcc9iN8ISa5GUT5GP/lYufdWTPs5enTMn4QiKqL0uTd3MPD+m2lWNwu8Ga5mPrBRwjunjIpiBuf7rhs09f2h5tNPe73eu6qoweS/9xF5w/vfX1pxjR/MFlsm/u+A71nWlFb5nkdRrtrz+3uZvJvFq48XZzXbi6MN/QyND4iVyC9FM5TcfrLyhb62eXrfc7Y0fZEx5UiIxlFhfQM65er9tdIwPYukA/zh8p059O6Bf3d7/wDf4l5sh3XtJnt5DxrFOGzf0vbdh6JqLrV9wkjc5csdVeYWVbUIky6B3S/dfX7oX6Kb/1Ef6gY5Nzu8cg2E/1hFYMABCCQSwII+FzSpCwIVDICc13M3z5pormWsYNdhEeZel+jBLx6SM9z/2iJrqJMIfa61Gllu3s5/xs/rpDwKurY1H2qy4nu2hOatlZ2gS1XnzeLeMgI8xf3LhF5RvOWdriLwWRTeM5NXMwd5Ixu8gmLF/jIRHOPux+Yjza09d7Zaz104fGj/0s+LO32zs7silZtLDmk5NrL495rJdqeE8aXueuSIvl87r7dUfdBS2/rVMtl+6vH/V5fw2CtNCMA4bn1QHmSt38PD+/Yx+/b12cuC/6/rh93irdbcZY6wnBs7eb2t987qS5ZjVysa0Rir0bpIzJp1WDdj1vVrx+I+DdycP8VV3/2QwACVYdA9HT8qnP9XCkEIJABgXu8B/tf792MMk0Y1YI2ybaxpz3baeVixXvyMRJPt7drb41TykrOU9z2Ki7gomybYh4ioo5JTVOPvkRkqnhPzqcIJzd4ZJaEeE/audryiY5JSZGbEqnXeRnJ4j05o0JA3t62vZ3gIrWsTSMaUZYa1SbX7X+lP8wUJ96T66VoSbs3WhHnXS5hJbXUY1fxxa+e6bhykeI9+Vxa4OkSr7/arOC3JDkX2xCAAASyI8Dfk+x4kRsCVZKAomk8lcbHWWJptSThrN7Jq7y3OdWlIBNwnVwcXehhKktqaRdH8jqWxtTzfrO7V8glpqSmMIWZ/MHNhFt1L+vEZi1sxxw8mGRzPesvHwVIPWZY0sNdrttffvNaSCxbU0jR0OqWIoZq8sOp7q+ebdpai3B0JTxBBu9buCuZ3G0wCEAAArkgkMnvSS7OQxkQgEAFJ1DUUvMK2Ria4sTLfaCkJlHawV1S4mRHusvMGsW4b2RS39I9RhQ+w1nuxqFJx/k2jYoo6lA3dxOKMs1jCC3X7a/J1FE2yyeJan7DZ+6nPj7F311uRu/7vIrQFN6xpDY2qWy5T4UhI0tSnlx71snBfVSSc3MMBCBQuQiU/Fe2cnHgaiAAgWIIyIVGIQbV455q4eTULV3gFdVb+qdPwnxv5kxTh+iW9RrYpu4fnGrqXd7Rw/I95aEJ42Aru/96ebirZHLt8r0/1nt1H5o6OZPsxeZp6w9eV7u7R7I1ch9+TdasFdHuYT75icvy0f5t0jwM3u2TQ5PnXrTwemrCrCYWa0J0ckSaZRN/F1m2K9DOdOH/sT8gyDbw0YdD0swDCTL4P+m+H+F+jcJc3bqNHfbfv2ES7xCAAARKRAABXyJsHASBqkegnvfCRol3kVDoPNlGaXpote/F6VPt/1x0hRHnX3CR9ViHTpGhCRWSLy6mKDuKTBJlWvX1VY88M3bhIlvTe4oVEz0do6jji0qb7FFMPnLxONoj13T3qDqaJBtlO/iIRa4EfGMXwbv59WZjir7z3fK1APLR/pqAHGUnuQuRRn4Gzp1tGgGY7G0hQZ8s6sPjFLXnwJEjbAtnqBCml6U8pIT5ek4YF4jwun6vK3rQTx5FRlGFZJv5A2c6+83z3eX3tqIE1fF7RXHhT/feevFMtY7uJtbOH0rGEj41FQ2fIQCBLAgg4LOARVYIVGUCXYuYCBiKnNWTfOGTWWm1yjtd4KTaiIULIgV8I/d7jospnGOUyU2jx6iRpoWjZO94R61W5ry9XYeo7FmlPTl1ij3overhw47CU17qrkn7+gNCqnXwhx39IS+PQIXzXeReP3FcYvGifLT/3/OjR35augg+2d16TrYWttBHhob5PfalR8mRgI8K26h5HJ95+3Qswj3rp7lzbYK3a5QpVGSUaWTqXA+xOc/Ll81ZuiSIeDTKH7zu9HtBI0qppu8SAj6VCp8hAIFsCCDgs6FFXghUYQIbp+kBFpL/XIjL0kVa0UTAmz2ySrLJT36NNOJYvc5xsXTC7XEX2aF4D+sqV42BLhI3d1eOkto497mOij3+uE8ijhLw6vHX5N/hy9ugpOctyXHq+R+Z1Fb5aH/Fof/Ne/k3rJd+ArHce9Z033K95Gf+nI/23DclN25FIZd0D7BveqjKULyHefWu2Plio9CWqabQqZ/6fYJBAAIQKCkBBHxJyXEcBKoQAQnto1Nin4eXr8VztKJqfRdR6hWNstbe66lXpvZlTMSNrimd3/TfSZFXkq/rH08vjYBP9/CiFWvV0xzliy6Xo/IQ8OEIga4/n+1/g/fyP+TuVunaIpm//MyP9nkBWrBJC3jlwuq7W0y6e3tM0gNM6rk0uTZKwOuBC4MABCBQGgLRjp2lKZFjIQCBSkWgmfvxahGidL7dX8xZNslvjovL0Be+NACe88mr8j2Og+mapqTxVU7nLqKVWfNli5e7aaSWHyXqU/Pk47NW6A0dRPLZ/nI3uWzcWF+BNtq9JerajvAHTk3KzYXJLUY+8VFWlBhfOY1Qn5zFdUSdkzQIQAACufnrBkcIQKBSEtjN42+f56uKRk3G0wVL1Lzok1FDkz9wuGJomKb3Cd4T+YX7JxdlM7wsTYbU8vPJtji5mzdpR2lEazZlahLl5hFC8HifRCmf9zFJAl+rzpam9z3p8splUw9gv6fy95q09uuPco+R//3W7i70xfIRk3y0fwjiN58gepBPRN3f5wEc5A8OOndxpog042bNLJBtSWJmQYHk4EOjGtXdB75wulLG+D0cFUJS9ZEbjVaqTbZ9fDKwVuCNsnSjLFF5SYMABCAQRQABH0WFNAhUIQJNXbTsn7QkfD2P8aiJm/InXrmY3mSJd0X/CE1uHFECXosTPe1+yXIDydZmerzvKFvJezfll6zJi9E5oo5alpZNmUMl4CN82hU683FfkfPNGdN9QuLCgNfuJVhwKH0ty36PhOX548YUOrEW6nrSrzXKDvXQiqGAz0f765xaHGpXZyt3Fd1zimCk3vVudesH4R239ig9Ue416/o9/GGKgJ+4aLEt8ZGMqMmlOscjPrdBE15T7Rf3w48S8O1dpGuF3gfc5/5nf/jRfbGff5+KCjn5hz+MYBCAAARKQwABXxp6HAuBSkBAvukXt8p+9dMhLkIeS1mdtb+Lpb0iwhA29Kgyj7gP89seIeSbOXNMvdryK25Xq6Zt6L2kit+tHtXHXDy94oI42RSqMcoklB7ruFKwSyEqo6LcRB2ntGzKVJ0P9R7fOi4iU62Bp8lVo7KbVlod5BFaoiaSanKzBL7y5KP9Jd6f9YeH5stHQdTL/7Tfdx/4vfaOL9ak127zGnl89baFmiFqZV5Nip3gD5JRvePynT/E21q96T/Om2M3TZyQEPNy7drX7+0o4S9hf0vb9oXOH5UgjoOTFr6KykMaBCAAgeIIIOCLI8R+CECgEAHFKL/UfZJTeyq/LSIKi3pIJZD0Smdy1/nTxc3vST2U6cR2chmHNmlmigqTqWVT5n/e66te2TN81dOqbC97KMsoAS8mcmm5ddIEy0f7n+KhIkPxrnNpVOhKF+vne1jNkT7iowhHbdNMkJbbTZSN8hGTKAGvvHpQ02vXho1tiN+Lzy93EdMx/WfPDNKjysw07amUh95MjyMfBCAAgWQChbuUkveyDQEIVBoCSwp7BZTo2uRmcfbYUZGxtlXgPR75Qy4KJTH1bsqNIdk0oVUrXBZn8tPO1LItU2EJNeJQWiv+Kkp2hmzLzQBnoYp85otKTUzjArVNkotRLttfqwHs5kI6yuSWJTcvLYyUboL17+72EmXv+KhKJiY3rWTrPXGiaU2DktoLfh8p1CgGAQhAoLQEEPClJcjxEKggBDQJr7T2g4uPk0ePtH9dxKczuVKUJnxfqhCXO4POW5wtchWrMItRljpSkE2ZKk/TEzXioBU3S2qKIJM8zTHTuiafL/U6wn3pygr3p75PSzOvoKhy5MikVWejTO5MTZcvvpXL9tc5iwrTGFWXMO0bn1irhcKi7H13v1G8/uJsvkefSTZFo7nY5whoUna2pgcgrdaKQQACEMgFAQR8LihSBgQqAAEtN19SG+mi/AoXLuf4ipPTU6JtRJWpSYa3TBzvYSWj/dejjlGaeu7fjegd7TN5oo0r4qFB4lgraComfZQNj0jPtMywPK3uecaYUfbScpeKMD35fbr761/mnORilGqKD59s2dQ1PC61jDA96vrCfVHv6coZuiC6xzos43Wfn6DVV1PtPRfEyQ8FuWz/G/0++s7nTWRjEu8KO1mU9fJyP3VRXZRFcdWaB8f6Crwf+TVnYnoouteF+xXjxxYR/yaTksgDAQhAYAWBxHrlnc49+9oVyWxBAAKVjcAkF6CuJayJ95Zqcp+2JXxTX3NdoEmkyFVAEwXvdZeY+33FzRFFCOgoVkP8+H4uxmt6oHCtutpgeQ9tVF6JnF/d3eF6X7DnW5/kl2oKMam6aGEcifzaHilH9VcoyfF+Xc+6a8L3fpwEV12fHKvY9XV8n65ZoR7v9wghqb3XmZaZXBf178sF4lsXlGIkdlowSD77n3qYzFsmjfft+c5ugbVZ7pc9y+uu/fIRTxa52dQ1rMNv8+cGCwMpUpBMK+A+6Nf2XZYjA/Lrn+P10iTcOs5L0YG0eJbcX1I5hefW+3y/3umLl3hUnvrBZM7h3sbqVU6dzKy8uWr/Kf5QpAeEz52v/N3VtvX8PdUWeO/4QG+bJ6dODZhosmpRprj1A1zAf+3XLZpqJ72rbPW09581yx71uQ9RpYjRx37sL85d92BHn4CtBaSSTQ9xb/gDz81+T4RRepL3sw0BCECgNAQSf3G2GjY06u9UacrmWAhAAAIJAl188mE7F7UtXMzrAUKCSXHHtTiPonIUJRwThbARCwIS/vWCB6TMR1hy2f4S8hLNEvMa9ZDI16u87iHdz+38vtZDm9xu9HCnSDf8qMbidqUSEKiUBBDwlbJZuSgIQAACEIAABCAAgcpKoPA4ZGW9Uq4LAhCAAAQgAAEIQAAClYAAAr4SNCKXAAEIQAACEIAABCBQdQgg4KtOW3OlEIAABCAAAQhAAAKVgAACvhI0IpcAAQhAAAIQgAAEIFB1CCDgq05bc6UQgAAEIAABCEAAApWAAAK+EjQilwABCEAAAhCAAAQgUHUIIOCrTltzpRCAAAQgAAEIQAAClYAAAr4SNCKXAAEIQAACEIAABCBQdQgg4KtOW3OlEIAABCAAAQhAAAKVgAACvhI0IpcAAQhAAAIQgAAEIFB1CCDgq05bc6UQgAAEIAABCEAAApWAAAK+EjQilwABCEAAAhCAAAQgUHUIIOCrTltzpRCAAAQgAAEIQAAClYAAAr4SNCKXAAEIQAACEIAABCBQdQgg4KtOW3OlEIAABCAAAQhAAAKVgAACvhI0IpcAAQhAAAIQgAAEIFB1CCDgq05bc6UQgAAEIAABCEAAApWAAAK+EjQilwABCEAAAhCAAAQgUHUIIOCrTltzpRCAAAQgAAEIQAAClYAAAr4SNCKXAAEIQAACEIAABCBQdQgg4KtOW3OlEIAABCAAAQhAAAKVgAACvhI0IpcAAQhAAAIQgAAEIFB1CCDgq05bc6UQgAAEIAABCEAAApWAAAK+EjQilwABCEAAAhCAAAQgUHUIVAsvdalbuM07BCAAAQhAAAIQgAAEIBBPAvTAx7NdqBUEIAABCEAAAhCAAAQiCSDgI7GQCAEIQAACEIAABCAAgXgSQMDHs12oFQQgAAEIQAACEIAABCIJIOAjsZAIAQhAAAIQgAAEIACBeBJAwMezXagVBCAAAQhAAAIQgAAEIgkg4COxkAgBCEAAAhCAAAQgAIF4EkDAx7NdqBUEIAABCEAAAhCAAAQiCSDgI7GQCAEIQAACEIAABCAAgXgSQMDHs12oFQQgAAEIQAACEIAABCIJIOAjsZAIAQhAAAIQgAAEIACBeBJAwMezXagVBCAAAQhAAAIQgAAEIgkg4COxkAgBCEAAAhCAAAQgAIF4EkDAx7NdqBUEIAABCEAAAhCAAAQiCSDgI7GQCAEIQAACEIAABCAAgXgSQMDHs12oFQQgAAEIQAACEIAABCIJIOAjsZAIAQhAAAIQgAAEIACBeBJAwMezXagVBCAAAQhAAAIQgAAEIgkg4COxkAgBCEAAAhCAAAQgAIF4EkDAx7NdqBUEIAABCEAAAhCAAAQiCSDgI7GQCAEIQAACEIAABCAAgXgSQMDHs12oFQQgAAEIQAACEIAABCIJIOAjsZAIAQhAAAIQgAAEIACBeBJAwMezXagVBCAAAQhAAAIQgAAEIgkg4COxkAgBCEAAAhCAAAQgAIF4EkDAx7NdqBUEIAABCEAAAhCAAAQiCSDgI7GQCAEIQAACEIAABCAAgXgSQMDHs12oFQQgAAEIQAACEIAABCIJIOAjsZAIAQhAAAIQgAAEIACBeBJAwMezXagVBCAAAQhAAAIQgAAEIgkg4COxkAgBCEAAAhCAAAQgAIF4EkDAx7NdqBUEIAABCEAAAhCAAAQiCSDgI7GQCAEIQAACEIAABCAAgXgSQMDHs12oFQQgAAEIQAACEIAABCIJIOAjsZAIAQhAAAIQgAAEIACBeBJAwMezXagVBCAAAQhAAAIQgAAEIgkg4COxkAgBCEAAAhCAAAQgAIF4EkDAx7NdqBUEIAABCEAAAhCAAAQiCSDgI7GQCAEIQAACEIAABCAAgXgSQMDHs12oFQQgAAEIQAACEIAABCIJxE7AT5023SZOmmyLFy+OrHBy4vQZM4O8CxYuTE6uFNtTp02zV996x8ZNmFgproeLgAAEIAABCEAAAhDIDYHYCfg+9z5ol1xzg40bP6HYK3z82ReCvIOH/FVs3oqW4ZMvvra33vvQ3h/wSUWrOvWFAAQgAAEIQAACEMgjgdgJ+Dxea4Uqeo0uq1nLFs1t7TW6VKh6U1kIQAACEIAABCAAgfwSqJnf4im9pATWXqOr9e55VUkP5zgIQAACEIAABCAAgUpKoNL3wC9atMgW+qusLBPf/ai6LFmyxFTXklhJjyvJuTgGAhCAAAQgAAEIQKB8CVTKHnhN/Hz3w4/s59/+sOkzZgSEGzaobyt36mTdNlzPdui+lVWrVi1If/PdD+zr736wg/bZ0zbZaIPI1rj/0Sft31Gj7bzTT7Y2rVoWyKMJt59/PdB++X2wTZg0yebOnWeNGzW0VVZeyfbfaw/rvFLHAvn1oeetfbwuHe24Iw6xESNH2QcffRIcP3vOHDvp2CNt6803ta8Gfm9vvf+h7bRtd9t5+20KlaHzvvLm2/bvf6Ns/MRJVrduHevUoYNtuenGtn33LQvlJwECEIAABCAAAQhAoHIQqHQCfryL9xtu62uzZ8+x9m3b2DprrRGI6r//GW6//znEFi1eZDtus3Wi9WbMnBlMmJ0zd24iLXVj0pSpQZ7FET3kDz7xtP39zwhr16a1rbf2Wla9ejUb9OsfwcPD738OtZ5XXBzsSy5TdVy6dKmNGTfebrvrvqBOerhQT3pbL0c2a87s4JwzZ81KPjTY/vaHn+yxZ16wefPnBw8CW262sc2YMcuG/zvSnnjuxeBh4LTjj7batWsXOpYECEAAAhCAAAQgAIGKTaDSCfj+n34eiPcD9t7D9t1j1wKto575sOe9wI5SfDj8wP2sRo0a3tPeKVGKXHYee/r5oGe/3/v97WTvVU+1SZMn2x33PGDr+gPG8UcdbnXqZCa2NaIg8b7U/zv7lBOs2wbrJYrWQ8u9jzxhP/3yq73jIxD777V7Yh8bEIAABCAAAQhAAAKVg0Cl84GfPGVa0DLrr7NWoRZq27pVIReYQpmyTFhtlc4FxLsOr1Wzpm3hriyy0WPGBu+p/8xysd24USM77YRjMxbvKuP1t98Pet532X67AuJd+xq4m9BpJxxjtWvVsnf7f2zTpi9zH9I+DAIQgAAEIAABCECgchCodAK+62qrBC3zxHMvBYs8lVczrbU8/GPogx9Vj/332i0quci0P4YMDfan83Nv1LChbdJtQ1uwYIEN+evvIstiJwQgAAEIQAACEIBAxSNQ6VxodtlhWxs6bHjgRnL5db1sw/XXDSZ1rrvWmnlrHfmp/+H+7vKVnzJ1qs2eM9cWLl8d1l3d09pKHQtPcE2b2Xcs9kg1kydPsZrew9+iebO0WcOJtprcikEAAhCAAAQgAAEIVC4ClU7Ayx/97FOOt4Hf/2TvDfjYfhj0S/DSJNN999jNXVu6Zd2CmnAaZfPmzbMnnn/Jvv/pl2ACaoP69a1Z0ybWsGGDwI0m6pjktCaNGyV/LHZ7hvu/S8Q3K+a4Jo0bB2VN9gcKDAIQgAAEIAABCECgchGInYBvLHE62rwXe06xpGfNnh3kCQVreIAmqkqo66XILB9+/JkN9MgtDzz+lP0z4l878pADwqwZvc9dHqEmWchru+/9D7ubyrDAF12TZju2b5cob/78BXbaBZcmPkdtZDuhtmmTJla3Th2bNWvZdUeVqbRZyyPXZPuAkK480iEAAQhAAAIQgAAE4kMgdj7wHdq2DeiMHT+xWErjxk8Iosq0b7ss9GLUAYrHfkqPo+2KC8+xGtWr24effBaEZwzz1qheI9ic7z7j6WzqtOmFdo3yyakS7y1bNLczTupRQLwr87TphY8pVEiWCRL8K3tceUW5Kcq3fqK72cja+KRdDAIQgAAEIAABCECgchGInYCX4JZ9/PmXptVJ09nA7380RXLp2KFdRvHOV+u8cjC5U+Ul+4Y3b940OIV82KNs2PARQdSX1H1jxo4Lktq2bh08GKTuH/L3sNSknHxeZXm4yi99oacoU8//D4N+Dh5sVvVrxiAAAQhAAAIQgAAEKheB2An4zTfZyCS2tcKoIsloZdNU+/WPP+2Zl14LROrRhx5UYLd6xuUnnmqLFy+2CcsndWqBp9DatVm2LQEvn/Zk0+JOL772VnJSYrtVyxbB9p8e6UXx15NN8eZffuPt5KScbW/nq8gqXKRWmhWjZNN1P/vya8GDzTZbbl5oAankvGxDAAIQgAAEIAABCFRMArHzgZebyPFHHWa33/OgffbVN/bjz7/a6qt2NglmCezR3vP9z4iRvuJpdTtwnz2s62qrFiD/wqtv2n+jR5viwLdu1dJ9xuvayFGj7C+PTCNhvfnGGwVlhQcpn3qq5Rt/1Y29TauaahKqxP6PP//m2/Wty6qr2F//DA8PCd5X9p7wlTt1DER0z959Aj/45k2b2n9jxtjX3/5g2261hf36x2AP57iwwHGl/aBY9ueffrLdeue9duNtd9qmfj2d3Pd+hvu9/z54iF/raGvfrm3AprTn4ngIQAACEIAABCAAgfgRiJ2AF6IOLkh7XX2Zvd7vPfvGXWUG/fp7gpwmca6zZlc77ID9rFPH9on0cGPjDdf3+O+T7POvvw2TgvfGjRqaJpruscuOBdL1QSuavvjam8G53nrvw2B//Xr1bL2117Qe/jDxzgcDCgl4+dOf5dFunvRRAo0IvOcLJ8k0cfSQ/fe2XXfYLpg0O3hI7mOxr7ZKZzv39JOCXv6vBn4XnFf/KAa8wmgesv8+GUXBSRzIBgQgAAEIQAACEIBAhSFQLaypR1WJjpUYZijHd/W8y29dK5cqTGMmJrcWTfRcsHCRH9PYhfWy0IpFHbvIJ4dO8gmgGgXIZgKoXG0mTprs52nqdWxY1Clyvk8x6KdMnWaKUEPUmZzjpUAIQAACEIAABCAQOwIVQsDHjhoVggAEIAABCEAAAhCAQDkRiN0k1nLiwGkhAAEIQAACEIAABCBQIQgg4CtEM1FJCEAAAhCAAAQgAAEILCOAgOdOgAAEIAABCEAAAhCAQAUigICvQI1FVSEAAQhAAAIQgAAEIICA5x6AAAQgAAEIQAACEIBABSKAgK9AjUVVIQABCEAAAhCAAAQggIDnHoAABCAAAQhAAAIQgEAFIoCAr0CNRVUhAAEIQAACEIAABCCAgOcegAAEIAABCEAAAhCAQAUigICvQI1FVSEAAQhAAAIQgAAEIICA5x6AAAQgAAEIQAACEIBABSJQM051nT1njk2aNNnmzptnCxcuilPVqAsEIAABCEAAAhCAQDkTqFWrptWrW9datmxhDerXL+falN/pq4WnXuoWbpfH+0QX7uPGTyiPU3NOCEAAAhCAAAQgAIEKRqBtm9bWyoV8VbRY9MCr513ivVq1atamdStr2qSJ6QkLgwAEIAABCEAAAhCAQEhAHhrTpk+38RMmBtqxfv16VbInPhY+8HKbkUm860kK8R7eprxDAAIQgAAEIAABCIQEpBGlFaUZZaGGDPdXlfdYCHj5vMvU845BAAIQgAAEIAABCECgKAKhZgw1ZFF5K+O+WAj4cMIqPe+V8RbjmiAAAQhAAAIQgEBuCYSaMdSQuS09/qXFQsDHHxM1hAAEIAABCEAAAhCAQDwIIODj0Q7UAgIQgAAEIAABCEAAAhkRQMBnhIlMEIAABCAAAQhAAAIQiAcBBHw82oFaQAACEIAABCAAAQhAICMCCPiMMJEJAhCAAAQgAAEIQAAC8SCAgI9HO1ALCEAAAhCAAAQgAAEIZEQAAZ8RJjJBAAIQgAAEIAABCEAgHgQQ8PFoB2oBAQhAAAIQgAAEIACBjAgg4DPCRCYIQAACEIAABCAAAQjEgwACPh7tQC0gAAEIQAACEIAABCCQEQEEfEaYyAQBCEAAAhCAAAQgAIF4EEDAx6MdqAUEIAABCEAAAhCAAAQyIoCAzwgTmSAAAQhAAAIQgAAEIBAPAgj4eLQDtYAABCAAAQhAAAIQgEBGBBDwGWEiEwQgAAEIQAACEIAABOJBAAEfj3agFhCAAAQgAAEIQAACEMiIAAI+I0xkggAEIAABCEAAAhCAQDwIIODj0Q7UAgIQgAAEIAABCEAAAhkRQMBnhIlMEIAABCAAAQhAAAIQiAcBBHw82oFaQAACEIAABCAAAQhAICMCCPiMMJEJAhCAAAQgAAEIQAAC8SCAgI9HO1ALCEAAAhCAAAQgAAEIZEQAAZ8RJjJBAAIQgAAEIAABCEAgHgQQ8PFoB2oBAQhAAAIQgAAEIACBjAgg4DPCRCYIQAACEIAABCAAAQjEgwACPh7tQC0gAAEIQAACEIAABCCQEQEEfEaYyAQBCEAAAhCAAAQgAIF4EEDAx6MdqAUEIAABCEAAAhCAAAQyIoCAzwgTmSAAAQhAAAIQgAAEIBAPAgj4eLQDtYAABCAAAQhAAAIQgEBGBGpmlItMEChDAnPnzrN/RvxrI/4bZUuXLrVVVupknf3VoEH9MqxF6U/1+59Dbdr06Vavbl3rtsF6pSpw5qxZ9svvg4My1lh9NWvZonmpyuNgCEAAAhCAAAQqLgEEfMVtu0pZ88+//tbuuOdBmz5jRoHrq1Gjur3y5EPWuFGjAulx/vD4sy/aD4N+sQ7t29pT9/9fqao68r/RdtWNvYMyrrzwHNtpu+6FytO55s9fYFts2s2qV2dwrRAgEiAAAQhAAAKVhAACvpI0ZGW4jC8HfmfX3HRbcCnqtV6jy2pBD/yw4SNstVU6VyjxXtbt8ceQoXbx1TcEp736kvNt++5blnUVOB8EIAABCEAAAmVEAAFfRqA5TdEE5CrzyFPPBZlatWxhfXpda+3btkkcJLcaLD2BMWPHJ3aOHjs2sc0GBCAAAQhAAAKVjwACvvK1aYW8omHD3ed95Kig7gftu2cB8a7EevXqVsjrKqtKb7npxrbheuvYvHnzbadtC7vXlFU9OA8EIAABCEAAAvkngIDPP2POkAGBcRMmJHKts+YaiW02MiOgCb533HhNZpnJBQEIQAACEIBAhSbATLcK3XyVp/LjJkxMXEyzpk0S22xAAAIQgAAEIAABCBQkUOl74OVb/d/oMfbXsOGBG8ZaXVe3Zk2bJigsWrTIJk+ZajVq1rCWzQuH5pswaZItXbLU6tSpY02bNE4cF7URlqV9TRo3sro+EbM4mzFzpg31uk2cNNk6d+poq3Reyer6ubK1kpSzcOFCmzJ1WuS1jx47zv4c+ncQzaR9uzbWsX07a1A/f2EcJ06cnLjk6dNnWI2kKCoNGzZInHvqtGm2YMHCQnz/9ZCTf/tkV7mQ6AFg8403sho1aiTKTN0oCa/UMgrcW97WXbusGnkPpR6X7vOs2bOD+1QPM6v6fbBq55WtVs3MvqJhW6rsJn6fZnIP5YJBumshHQIQgAAEIACB/BHITB3k7/x5K1ni6rFnXrBX3nzH5s4rOAGyTauWdkqPo22HbbayH3/5zS67tpd1aOeh/h4oHOrvpHMutlmzZlv3LTaznldcVGR9//l3pJ12/mVBnovPPs322GXHtPm/+3GQ9b3/YRs7boXriDIr/F/3LTa1C8481aOuNEx7fLijNOUMHvqXnXf5tf5wUtveefGpIOLLPQ8/bh999qWHcZwZniJ4r127th2y/9521MH7Z/RgUuDgNB+GDvvH+r3f377+9ofgISrMdubFV4abwfvJxx1pRxy0f7B9fe87bdCvv9sZJx5rB++3tyk++o23/599+8OgxDE1XfS+9/LTic/JG6XhFZaje+vRp5+3V996t9C91aJ5MzvV762dt9/GOS1/EFsaHhn9Ptzvm1533GWaB5BstWrVtI03WN8uO/+sFWV5Bp0/1cK2VPrVl5znUWi2Ss2S+JwLBonC2IAABCAAAQhAoMwJVEoBr55MCT0JldBau2hXz6ziaY+fOMluuO1Ok991pj2cYTmlfZf4euK5l+ypF15JCLG2rVsFddPCRYq28tlXA+2PIX/ZdZddaGut0SXylLkqR4UrdrhGKBQF5ruffg7Op4eHtq1b26QpU4Je+gULFtgzL75qv/z2h915c8/IOmWbKNE98PufgocW9e7PnjMnKKJ5s6YFes+jev41cqA6XXn9Lfbb4CHBcRLu4tKuTetCcdBzxWvGzFl+b/UN4ruH15u4t0aNDh5EJMb/9e1GPnJQnOlh6ba77rd58+cHWWvXqhWMwugBarz3xH/z/Y92xoWX/z97dwEnR5H2cfwJcXcnHiI4hOAEh+DB3d057DiCHW5vgMOCuweX4E4gCcEhLsSIG/EEeOtfm57MzvbM9M7O7szu/opPMrPd1dXV3+4NT1dXVdsFZ56Srqi067NlkHZHZEAAAQQQQACBUhWokAH8wEefigXvm2y4vl1+4bnW3E1NGKRRY8fZTQPusYeeeNbqlfHbPV97+1178vlBvipb9trULnYt9fFdd97/+DO7a+AjNmfuPLvpjnvssXsHFApmg2PIVjlBeRdfea0tXrLU9t1zNzvx6MP9DUWwTi3Et9x1n40ZN8F+/m2UqY577LJjsDrjz2MOO8j0R+mZl15xNxDP++8D77i5kIlfmPCXfK5zN2EK3rdzTyyOci30Xbt08l1v1CqfmLLlNfCxJ2PBe9i1pacKurZ0s6MW9FRp+oyZ7hzfbX/99bfPe9E5Z9gu7qmQbkSUlrsnR8+/8oY97crqf/0tqYqKtC5bBpF2RiYEEEAAAQQQKDWBCjeI9Y+Zs+w9F2AqKcC69dorCgXvWt5jva42cMDNfqpCBa1llRSQqeVdqdemG9vNV19eJFBVYHzh2af5PFOn/2GvvjXYf4//K1vlxJcph1OOPdLvO3EQaacO7f3TALUOK73/SYFv/PZl/f0j13L91TfD7bgjDrHrLr/EP6nQ0xR1QWrYoPBYhWx5KeD+4JPP/aEmu7a6delsugFp17aNrVq1OiXL0y++7IN3Zbqu/6W2x859YsG7lmkMxQlHHebPSbqylD9VypZBqn2wDgEEEEAAAQTKRqDCBfDPvfyaC4r+8npHu9bdZF1kNK+45hsvy/TS62/ZAjdAs0qVKnbe6Scl3fUufbaztm1a+fWvvf1ekXzZKie+YA26PSiFR0vXzWfTjTfwm0ybPiN+05x8V3cQ3YgpwE2XsuX13CBdW3/73aW6tmq68QLpri114/rgky98WRv06GZbbr5p0sPY093UNWtadIB10g1CVmTLIKRoFiGAAAIIIIBAGQtUuAD+1zX9ofUWzy1cK3eqtOeuO6VanfV1Q9cMtOzQrq1voU22AwX4aslV0owkq9xMOfEpW+XEl7ntlluknblEfcuVZrvuK5pxJ9fplOOOjFSFbHn9NnqM31+Ua0ut6anSaNeNK7jR3G+vPVJl9V2oSvpypmwZpKwoKxFAAAEEEECgTARSd9ItkypkdyczZhbMJ96xfbu0BdepXdsNNKznZzJJmzkLGYKWaw0OVX/yVCmYAvHvv/+26W5Kxw5uiskgZaucoDx9xo8RiF8e/z0YTKo6rXADSIO+2vF5yvJ7DzclaJSULa/iXFvq/qKBwBr0Gpbi573v1CH9taqBsiVJ2TIoSR3YFgEEEEAAAQSyI1ChAnjNax1MGRm1y0Gzpo3LJIBfumyZm5pxkT9rmllEf6ImtXgHAXy2ykncd1SvxO1y9bPqqxuwdClbXplcW5pSMmkAv+ZGU/WPH8Sc7HiaNmmUbFXa5dkySLsjMiCAAAIIIIBAmQhUqAB+3vyFMbR0L10KMjZqqLd+Tgl+LNln0em5Y+XpRU1BUv/72hFe8hTkrxb3QqJslROUHXyW9Ww8wX4z/YwSvKvsbHll+9rSC6mCpPEH6VLBdZouV/j6bBmEl85SBBBAAAEEEChrgQoVwGv+8CAFrd3Bz8k+Ne+6T1WS5Yi+PH76wsRYPr6Vdc9ddko5iDXVHrNVTqp9VKR12fLK5NoK5na3kGsrvjy10qe74VyxZp54nRuNkShOypZBcfZJXgQQQAABBBAoPYEKNYhVfY7Vuq2kecKjJL3MyafEiDvKxgl51NUlWarr5psPgrTJ7iU/maZslZPp/svbdtnyyuTamhM8dQm5tjQOIkhRrtX4a0sz8BQnZcugOPskLwIIIIAAAgiUnkCFCuDFFARGeqtpuqQWUk3rmCrVc28IVYpvXU+WX2/ODFJYG6nmBlfSi5GCGUiC/MX5zFY5xdlnec6bLS+9MVfpd/c233RJ53deXDeZxPwtW6wdlPp7hGt1lpt2siQpWwYlqQPbIoAAAggggEB2BCpcAK8X7Chp1o0RP/yUUkmvsU+X2rRu6bNoJphUSTOzBC/5Ub6wNtLea+b6nr9gob3q3siaacpWOZnuv7xtly2vjdbv6Q9dL9j67sefUzJ88sWQ2JzxYRl7dlsvNovP64PfD8sSW6YW9yjXamyDkC/ZMggpmkUIIIAAAgggUMYCFS6AP+qQfrFX2D/x3EsW64ecAKvlejFPutSmdcELldSFYciwb5Nmf+u9D01v6kyVDj9wP2vdqqDrxJPPD7Ix41NPJamydGOQmLJVTmK5FfXnbHkd6a6tYOpMXVuaSjMs6a2nzw56NWxVbJmm7ey7207+519+G5Xy2tKbhXXTUJKULYOS1IFtEUAAAQQQQCA7AhUugNf0gnvvvqvX+cW91On8y66ykaPHxl6GtGTpUhv23Q92yrkX+4A73fSJ+/Xd3dZZp4Dp9rsH2keff2mrVq3y5Su4njJtug2490G78/6HTdMGpkrVq1e3s085wWdZvHiJnX1xf3vkqeds1JhxpsG0Km/uvPk2etx4e/G1N+3cS6+wh598tkiR2SqnSMEVdEG2vFq6udj32m1nr/SzC7rP/3fRa2u4u7ZOPf9SmzR5qsUPVA2jPUZvCq5eMI786ptu9+d8zryCcRS6FnRDeN8jT9ht/7s/7bUVVn78smwZxJfJdwQQQAABBBDIjUCFmoUmIDzjpGNtyZIl9uFnX9rY8RPt7Ev6+5bT+vXqmrqvKNVwwfQVF5/vu9m888HHwaZFPtfr3MkO3LevvfzGO76//A23/89ucgF940YN3bzuf8beSKquO1f/+0I77MQzYsuKFOYW6I2nV136L7tr4CN+XvhnXnrV9EepatV1inS72KBnd78u8a9slZNYbkX9OVteZ7pra7G7ttRFRk9Qwq4ttdJfdsHZNsfdjIXdgAXGLZo1s+v7X2o3DrjbX0sDH33K9Kdhgwbuhm6ZrVxzo7hBj252nct3xMln2cokrf5Bmak+s2WQah+sQwABBBBAAIHSF6hwLfAiq1mjhl1+0Xl27mkn2bptWvtp91avXu2Dd82/vvEGPe226660nXfY1gdj6ZjVaq7gvO2a7jRBS7kGKqr8g/bb22699go/y0y7tq3TFWc7bb+NPXbvANtj5z6F3oD6119ru8uoq83hB+7vnibskrS8bJWTdAcVbEU2vPSG1SsvucBPA5p4bdWsWcM2XL+H3XLN5bbHLjtalGtBfdMfuPMW23qLzS14062mQFXw3qplCztg7z1swA1X+2sruP5KclqyYVCS/bMtAggggAACCJRcIDZZihsoFzbusuR7iFDCz7+O9Lk2coF1aSS9iXL8xN9NLfDt120b6xKjfV169fX27fc/+eD8qQf+l3b3an2d/sdMU5lqndcUfSVN6tajLhea61sv7FHrvv4UN2WrnOLut7zmz4aXuj6NnzTJTV9a2zq1b1fo2srERYOlZ7oZZzp3bO9b4jMpozjbZMOgOPsjLwIIIIAAAtkSKO34MVv1LI1yKmQXmkQovbVzI9cyGpZity2xW5mwXGuX1atb17p17bx2QRa+qeVV3SRKmrJVTknrUV62z4aX3juwYc/waysTBw2aDgZOZ7J9cbfJhkFx90l+BBBAAAEEECiZQKUI4EtGxNapBDQ//tKly1JlCV2ngcGaiYWEAAIIIIAAAgggUDwBAvjieZE7QeCpF162Qa+/nbA0/Y+aoWXQEw+mz0gOBBBAAAEEEEAAgUICBPCFOPihuAK1atbMqK92g/r1irsr8iOAAAIIIIAAAgg4AQJ4LoMSCZx0zBGmPyQEEEAAAQQQQACBshGokNNIlg0de0EAAQQQQAABBBBAoOwFKn0LvGZ/0dzw6d6aWfanhj0igAACCCCAAAIIIFBUoNIH8CccdVhRFZYggAACCCCAAAIIIJCnAnShydMTQ7UQQAABBBBAAAEEEAgTIIAPU2EZAggggAACCCCAAAJ5KkAAn6cnhmohgAACCCCAAAIIIBAmQAAfpsIyBBBAAAEEEEAAAQTyVIAAPk9PDNVCAAEEEEAAAQQQQCBMgAA+TIVlCCCAAAIIIIAAAgjkqQABfJ6eGKqFAAIIIIAAAggggECYAAF8mArLEEAAAQQQQAABBBDIUwEC+Dw9MVQLAQQQQAABBBBAAIEwAQL4MBWWIYAAAggggAACCCCQpwIE8Hl6YqgWAggggAACCCCAAAJhAgTwYSosQwABBBBAAAEEEEAgTwUI4PP0xFAtBBBAAAEEEEAAAQTCBAjgw1RYhgACCCCAAAIIIIBAngoQwOfpiaFaCCCAAAIIIIAAAgiECRDAh6mwDAEEEEAAAQQQQACBPBUggM/TE0O1EEAAAQQQQAABBBAIEyCAD1NhGQIIIIAAAggggAACeSpAAJ+nJ4ZqIYAAAggggAACCCAQJkAAH6bCMgQQQAABBBBAAAEE8lSAAD5PTwzVQgABBBBAAAEEEEAgTIAAPkyFZQgggAACCCCAAAII5KkAAXyenhiqhQACCCCAAAIIIIBAmEBeBPDVq1fzdVu1anVYHVmGAAIIIIAAAggggEBMIIgZgxgytqKSfMmLAL52rVqee8HChZWEncNEAAEEEEAAAQQQyFQgiBmDGDLTcsrrdnkRwDdr1tT7zZw122bPmWvBXVV5RaXeCCCAAAIIIIAAAtkXUIyoWFExo1IQQ2Z/T/ldYpWgev+4FHzPxadOxoyZs3Kxa/aJAAIIIIAAAgggUM4EWrVsYc3XNAKXs6qXuLp5E8DrSJYsXWpzXCC/bPlyWuFLfGopAAEEEEAAAQQQqFgC6vOubjNqea9bp07FOrhiHE1eBfDFqDdZEUAAAQQQQAABBBColAJ50Qe+Uspz0AgggAACCCCAAAIIZCBAAJ8BGpsggAACCCCAAAIIIJArAQL4XMmzXwQQQAABBBBAAAEEMhAggM8AjU0QQAABBBBAAAEEEMiVAAF8ruTZLwIIIIAAAggggAACGQgQwGeAxiYIIIAAAggggAACCORKgAA+V/LsFwEEEEAAAQQQQACBDAQI4DNAYxMEEEAAAQQQQAABBHIlQACfK3n2iwACCCCAAAIIIIBABgIE8BmgsQkCCCCAAAIIIIAAArkSIIDPlTz7RQABBBBAAAEEEEAgAwEC+AzQ2AQBBBBAAAEEEEAAgVwJEMDnSp79IoAAAggggAACCCCQgQABfAZobIIAAggggAACCCCAQK4ECOBzJc9+EUAAAQQQQAABBBDIQIAAPgM0NkEAAQQQQAABBBBAIFcCBPC5kme/CCCAAAIIIIAAAghkIEAAnwEamyCAAAIIIIAAAgggkCsBAvhcybNfBBBAAAEEEEAAAQQyECCAzwCNTRBAAAEEEEAAAQQQyJUAAXyu5NkvAggggAACCCCAAAIZCBDAZ4DGJggggAACCCCAAAII5EqAAD5X8uwXAQQQQAABBBBAAIEMBAjgM0BjEwQQQAABBBBAAAEEciVAAJ8refaLAAIIIIAAAggggEAGAgTwGaCxCQIIIIAAAggggAACuRIggM+VPPtFAAEEEEAAAQQQQCADAQL4DNDYBAEEEEAAAQQQQACBXAkQwOdKnv0igAACCCCAAAIIIJCBAAF8BmhsggACCCCAAAIIIIBArgQI4HMlz34RQAABBBBAAAEEEMhAgAA+AzQ2QQABBBBAAAEEEEAgVwIE8LmSZ78IIIAAAggggAACCGQgQACfARqbIIAAAggggAACCCCQKwEC+FzJs18EEEAAAQQQQAABBDIQIIDPAI1NEEAAAQQQQAABBBDIlQABfK7k2S8CCCCAAAIIIIAAAhkIEMBngJbJJgsWLrIx4yfY3HnzM9mcbcpIINl5Sra8JNVavGSpvyZmzppdkmLYFgEEEEAAAQQqmUDeBfB/Ll5ss+fMtUV/Lk57Kv76+2+fd+GiRWnz5jrDsO++t5sG3G2fD/km11XJ+f6Xr1hhkyZPsXw8b8nOU7Ll8xcssFfefMdmZBCEj584yV8Tr7/zXs7PCRVAAAEEEEAAgfIjkHcB/HODXrNLr77e+l93kwvw/kwpOX/+Ap/3wcefSZmPlfklMPiDj+2/twywh558Nr8qlkFtPv3ya3vz3Q/svY8+zWBrNkEAAQQQQAABBIovkHcBfHAI6l7w9IsvBz/yWUEE/nZPTb74epg/mt9GjbE58+aV6yPrvl4Xa9a0ia3ffb1yfRxUHgEEEEAAAQTKj0DeBvD16ta1b7//0Ub88FP50aSmaQV+/m2UqdvJFptubP/88499MWRo2m3yOcP63bvZbddeab033zSfq0ndEEAAAQQQQKACCeRtAH/kwf0881MvvGxLli7NCvmq1aszLmd1mm2jll21atVCdVCLdKZp5cqVKTfVGAH9yacUjAE4tN9+Vr9ePd8an4lBuvMRdsy59sikzsFxlGTboAw+EUAAAQQQQKBiCFTL18PYaIMevpX2W9cCr37xpxx3VEZV/eizL23YiO9tyvTptnz5CmvRvJl17tDeDjlgX2vSuFGRMocM/dbefO8DO+uk461evbo26PW3YrPHtGnV0tbr0tkOP3A/q1WrlmlmktfeftfGTpho0/+YYXVq17aunTu69ftbm9atipStBdWqVfWDNwe9/rZpEKMGPzZt0tg6qU777+Prl7hhUKdzTj3RWrdsYYM//MQ/ndBAUHXfUAtwkNSqPfjDj+27H362yVOn+cWqS59tt7Jd+mwfZEv5efeDj9r0GTPt5GOO9McTlnnm7Dl25/0PWYP69e0//zonLEuRZRq0+uPPv1q7ddv44+zlWuE//XKIqVV+kw3XL5JfC4JjP/uUE/y+Xnjlde+tgc6NGzW0ju3b22H99rVWziUsZcMjrNxgWVC/XZ3tbjvtECyOfS5fvtxeePVNGzlmrGm2mYYN6rs6t7N++/S1amtu5v6xf2L547/oGF9+4237fcpUk3etWjWtXdu2tk3vXrbT9tvEZ+U7AggggAACCFQigbwN4FesWGnHHH6IC3zG2VdDh9vWvTe3DXv2iHxqli1bbvc+/Jj96vpZqztONxd413WfU6ZNs6+Hj7Cffh1pp51wtG28QeHAcfHSJTZj5iwb6maNGfrtd6bYqlPH9tasSRMbNXacTXOBugKrYw4/2Abc+4C/KejSqYO1bN7cBaIjfbljxk2wm6+53AVrDYrUd+asOXbtrXfYX3/97QK5dX3ZU6ZOt+Hf/WC/jhxtZ596gutP3a3QdkGd5rr+4roh+eSLr3wAvEGP7j6IDTJrdpd7H3rcfhk5ygf2vXtt5vbzl41yhnqSIYtzTzspyJ70U/26v/vxZx9c64YkLH097FvvtNH60c/Jl67vu1rBt99qS1/kdlv19vtQq3yyAD44dvnovK1cucrd7LSz9Tp3svGTfrfvf/rZB8dnn3J8kesjWx5hxx8sC+qn2ZMSk/r33373QB+460Zr2y238OdDAblmJNo1JOAPytBN52PPvGA87/ZlAABAAElEQVQ6hg7t1rVttuxlixYttom/T7YnnnvRX2dnnHiM1ahRI9iETwQQQAABBBCoJAJ5G8CvXLXKB6FHHtLPHnazlTz+7It2/RX/tlo1a0Y6NW+8+74PWBUYnn7CsVa7dq3YdkNdcPToU8+ZZq+5+Zr+LsCvE1sXfHn7vQ9dq/XWdtwRh1jQ7UUB2c133OPKHW1XXH+L9ejW1c46+Xjf8q7tlriBt/c+8riNHD3W3nEzrQTdgIIy9algdYvNNrFTjj3KatZcG3x9/PlXLsge5I/zpqsvt6rrFO3d9Mqbg/2gz4vOOb1IsKqy33J1VvC+1Rabu/KPdK39Bad36bJldtf9D/ugXDdDCpxTpW237G2DXnvLvv3hR3+jEmauYFpph623SlVUoXWffz3UWyoYVdLNQcsWzX2rvFrnw254ggLeGPy+P66Tjj68UND66luDTeueePYlf9MUnCttly2PoA7F/ZShWt11vk8/4ZjY+dBTgZfd1JO6xsKSLBS8q2VeN1ybb7JRLJuusfseecLfuOgaU0s+CQEEEEAAAQQql0DRKDFPjn+VC+CVFGyq5V0vQHrJdUWIkubMnWcffvqFD/ZPPf7oQsG7tt/KtUzv0mc737f+jcHhc3Ar4NfNQ3xAqFb4Tda02CsIO849IVC3mSDVdTcCW7vgWWnqtD+CxYU+q7ug+vgjDy0UvCuD6rNBj26+dV+t22FJLbenHnd0aPCuoO+DTz73mx28396xYFELVMcjDj7Ar3vTBbvpkm5o1HqvpyBqCU5ME1zL9yzXpUMtw+oOEyXppkbb6IZKfd+DtMPWW/pW+a9c16VUSTcRx7qnHoktzgfuu5fvkqKbqyHDCm4qVE42PVLVK9k6PcUZ5p4aqN4nH3NEofNRpUoV0zlq2bxZ6Oavvf2eb3nffacdCwXvyqxr7IyTjrUa1av7rlTqxkVCAAEEEEAAgcolkLcBfPxpOOGow3wg9LHrOjJm3Pj4VaHf9cZTDfrrvfkmVrdO0dZ1bRT0B1dXmrDUs9t6oa39G/Ts7rO3ci3H6k+fmNZ3QbjSvPnhb1zt6aYbVJeesKSWb6Wx4yeGrfaBarKuJiNHj3PdS1aaym/erGmR7dXvWi3y6kutpxvpUtDH+vOQWWKCYHu7rVO35Mfv47OvvvY/bu8C9vi07VZbmALaL9yTiVRJTzuSncsdtyvoDz52woRYEdn2iBUc8YuuQd3kqZ+/xkskJh3zlu4mKSz9NnqMXxycg8Q8ugHaws16o/M92nXrIiGAAAIIIIBA5RLI2y408adBgzwPdQMV1Y9bXQv+e/klvgUyPk/8d7X0KjVvVjTADvKpT7Ja19Var1lQ1knostIopP+6tg1a3BuHDICNX7/a9T0PS40aNgxb7Jc1bdrYf6pOYalDu7Zhi/2yWXMKjnnx4iU28NEnQ/Ot44JGJfXhb5tkkG2wofqYt23T2g+01YBWDeBVUp96tcrrZmDb3lsE2VN+qtvHCNenXq3GapEePbbwTZjK1tiC0e7mrHvXLqFlNWlcYBO2MmjJjnfLtkfYflMt0xMjJXURSpY0CDcxaYzAXHf+5avrPlkKjlk3ZCQEEEAAAQQQqFwC5SKA1ylRi/nQET/4FnjN/HKYm4ZQrZhKibN4zF+w0C/XjB/Jkrat72aZURcEdbdo3KjwjDSagSZVqpnh4MGw/vbBfuqteVqwYGFB/YPlwWeqPuJBwKjAdZ57Q21Yqu4CaP2JOiXhjtttbc++9Kqb6nGon1lHZf7iBtouXrLEtyyrO0eUNGTYt7F93vq/+5Ju8pl7q2myAL5unbVdlRILaLDmPC+M605SGh6J+031s+a6V0p1DYadz0XuWlQQ3zjFtVtQbsEA6eA4/c74CwEEEEAAAQQqhUC5CeB1NjSA8cobbvWvrd/SdSFIDLqDM6buLUp/utboVElvey0I5OulypbVdUuWLktaXjDffXwf8aSZE1boZkSp3959re9uOyeszexHzZqigZjqk3+om3ZTTymC/vk7bBN98Oqna7rPaJrFqutUDa2MZtbRi7uOPuyg0K4yi/5cHLqdFgYzwMS7lYZH0gqErKhXr+CaWprifGtGHaUq7r8g6QmNnlLoSUqqtHjNrDepbhBSbc86BBBAAAEEECi/AuUqgFd3hH5u0OJLr71pj7hZZP59wTmh8ppTXSm+S0ViRrW6qyVaA1OD2VoS85TGz9pvsjR3Tcu5uvcUN7VsUTAP+h9u8GS2kvqcb+HGEWiucw1C7eq61Xzv5nFXy/GGEaePHDdhkp8jX1NTHn3oQUmr9qdr1R/iZsj5Zvh3tuuOReerT+U2e05Bl6N4t9LwSFr5kBVBXYKnQSFZ/BtptTz+CZJuKDu46UXVzUjHHNZKr21mr+lmlaqLjvKREEAAAQQQQKDiCZSLQazx7H133cnPfjJ1+h9uppmCWVfi1+u75ldXGv79D34mFf9Dwl9ffjPcL+napWPCmtL9cZQLzDS3d1jSXOdKGnBa3NTFzVWv4E+t2Opznq208/bb+aKGjvjOfvjlVz9wUtNAhk1zGbbPYPBqn222DlsdW9ZnTYv+Z0MKBrvGVqz5ksrtq2+G+VzxbqXlkVivZD+3dy9cUhrx409+jEVYPr1XICx1WnP+g8HCiXk0O9AIN8Wnznfnjh0SV/MzAggggAACCFRwgXIXwKsbh94QqgGomuc7LGnWD3XXUCD73Muv+T7F8fkmTZ5q77q3marl/cB99opfVerf9WbOV954x89QEr+zn379zX785Tf3ttF6/q2p8euifA/etqo53x968hk/RWbidhqAqnnJi5M0V7sGvP706yg/j7y21dSPUZKO1U+l6M7HFpttnHITtdCrNVkvtdLLihJTMrcv3MuhNPg10a20PBLrlexnuXVzA3LVRz3sOtW5TjYD0o7bb+unixzs5nnX1KHxSf3jnx30qhuHsNTUjUlv5iUhgAACCCCAQOUSKFddaIJTo7nH99ljV/8Cn2BZ4udRhxzouigsNLUAT5o8xc2x3t0PWp3iWu6Hu1lUFAgdfuD+oVNBJpaVzZ+33aq3r9P4SZNMU1Wqr7Tqp9Z39YQ+/KADisx1HnX/hx6wn01wwa+Cw/7X3ezf6KqpLvVWWs2TPnLMWNto/Z525knHRS3S59vJBZTPvPSKb91X9yQFx1FSwZtTV5q2T5y/PWz7Pttu5bpHveV8vnFvWy3oBhXk0/SZOpcxNzcV59gJE/1NhZ4GhLmVlkdQp3Sfhx+4n93m3sSql01p+tPu63X1N24Kyr//6RfbeYft/Ft1E8vRGI5/nXmq3XrXfXbD7Xf5OfnbuRmBFrl+73pb7+Sp0/w5OGi/sr35TKwnPyOAAAIIIIBAbgTKZQAvqv367u7eFPqT718dRqfuBaefeKy9+Oob9qVrpQ1aMtVyv64LhjRYUlMllnU64qD9bY+d+/jpMAe7pwCawlJJQbHe+ppsFpYo9dSsMFdfeqG/sdEbX4O3pQbbdnHdLXrFvdUzWJ7uU3O1a9yB5o9PnMc91bYKxJUUmEdJ2221pelts0O//c6/xTb+TbXrd+9memmTphGN6lZaHlGORXnUveXqf19ojz39vI0aM86/GVjLFaDrDb6bbrSBvynRssTUpVNHO//MU2zQ62/7sQHBeg3U3d1dP4e6WZj0UjASAggggAACCFQ+gdj0F+6lM/9U1MPXYNU5riuDupBo/uyyHLSaylQB8cyZs61586ahL41KtW2UdZrVRgM8a9WqaY0aNsh4H6uc3wWXXWV6O+4dN/03dJaYKPXJJM/7n3xmzw16zfrt09cO2HtPX0SmbtnyyOQ4dA1qgLHmdg/eJRC1HM2yo6lBNUMNs85EVSMfAggggAACFVegUjThKWAPppbMp1OpFxupO1BpJc0iU7d9tLnaU9VBA2PVt34r9+bQZG9DTbV9NtYFTypUVqZu2fLI5Hh0DbZrm9m5Vqt7/BSZmeyfbRBAAAEEEECg4giUu0GsFYe+fByJZsx55c13fGX3dDMAkRBAAAEEEEAAAQRyK1ApWuBzS1x+9z5r9hx72QXvmk9fg0gTB5aW3yOj5ggggAACCCCAQPkVIIAvv+eu1Gp+vZv5ZN78+X4WH+1E0zueetzRpbY/CkYAAQQQQAABBBCILkAAH92q0uTcyL1ldcKk3/0sKl07dbRd+mwXaRrI0gBq7AZuduvS2Q/+LI3yKRMBBBBAAAEEEChvApViFprydlKoLwIIIIAAAggggAACyQQYxJpMhuUIIIAAAggggAACCOShAAF8Hp4UqoQAAggggAACCCCAQDIBAvhkMixHAAEEEEAAAQQQQCAPBQjg8/CkUCUEEEAAAQQQQAABBJIJEMAnk2E5AggggAACCCCAAAJ5KEAAn4cnhSohgAACCCCAAAIIIJBMIK/mgV+ydKnNmTPXli1fbqtWrU5WZ5YjgAACCCCAAAIIVEKB6tWrWe1ataxZs6ZWt06dSihQcMh5Mw/8bBe4z5g5q9KeCA4cAQQQQAABBBBAILpAq5YtrLkL5CtjyosWeLW8K3ivUqWKtWzR3Bq5t2/qDouEAAIIIIAAAggggEAgoB4aCxYutJmzZvvYsU6d2pWyJT4v+sCr24ySgnfdSRG8B5cpnwgggAACCCCAAAKBgGJExYqKGZWCGDJYX1k+8yKAV593JbW8kxBAAAEEEEAAAQQQSCUQxIxBDJkqb0VclxcBfDBglZb3iniJcUwIIIAAAggggEB2BYKYMYghs1t6/peWFwF8/jNRQwQQQAABBBBAAAEE8kOAAD4/zgO1QAABBBBAAAEEEEAgkgABfCQmMiGAAAIIIIAAAgggkB8CBPD5cR6oBQIIIIAAAggggAACkQQI4CMxkQkBBBBAAAEEEEAAgfwQIIDPj/NALRBAAAEEEEAAAQQQiCRAAB+JiUwIIIAAAggggAACCOSHAAF8fpwHaoEAAggggAACCCCAQCQBAvhITGRCAAEEEEAAAQQQQCA/BAjg8+M8UAsEEEAAAQQQQAABBCIJEMBHYiITAggggAACCCCAAAL5IUAAnx/ngVoggAACCCCAAAIIIBBJgAA+EhOZEEAAAQQQQAABBBDIDwEC+Pw4D9QCAQQQQAABBBBAAIFIAgTwkZjIhAACCCCAAAIIIIBAfggQwOfHeaAWCCCAAAIIIIAAAghEEiCAj8REJgQQQAABBBBAAAEE8kOAAD4/zgO1QAABBBBAAAEEEEAgkgABfCQmMiGAAAIIIIAAAgggkB8CBPD5cR6oBQIIIIAAAggggAACkQQI4CMxkQkBBBBAAAEEEEAAgfwQIIDPj/NALRBAAAEEEEAAAQQQiCRAAB+JiUwIIIAAAggggAACCOSHAAF8fpwHaoEAAggggAACCCCAQCQBAvhITGRCAAEEEEAAAQQQQCA/BAjg8+M8UAsEEEAAAQQQQAABBCIJEMBHYiITAggggAACCCCAAAL5IUAAnx/ngVoggAACCCCAAAIIIBBJgAA+EhOZEEAAAQQQQAABBBDIDwEC+Pw4D9QCAQQQQAABBBBAAIFIAtUi5SJTXgr8uXix/fTrSF+37l27WLOmTUpUz19HjbEFCxda7Vq1bPNNNipRWWyMAAIIIIAAAgggUDoCBPCl41ompU6eMs2uvOE2v6/+F51nu+64fYn2+/izL9qIH36ytm1a2VMD/1ekrPkLFto3w0dYr802thbNmhVZzwIEEEAAAQQQQACB0heokAH8v6++wWbOnh1ZTy3Xt193VeT8lTXjzXfcY8O//9E6tFvXHrt3QE4ZEs/xBWeeaptutEGx6zRk6Lf24BNPx7br1qWzXe5uhkgIIIAAAggggEC+ClTIAH76zJk2bfqMyOYrV62OnLcyZ5w+Y6Y//JmzZtvq1autWrXcXT6J5/jNdz/IKIB//Z33bPLU6bHT2rBBg9h3viCAAAIIIIAAAvkokLsIrAw0mjZpbHvvvkvaPdWrWzdtHjKYHXVIP3v6pVdsn913zWnwHn8uatWsactXrLCvvhluGhNQv169+NUpv8+aM8dG/Pizz1OzZg1bsWJlyvysRAABBBBAAAEE8kGgQgfw6hpz4tGH54NzhajDXu5mSH/yKfXZdit7/5PPbeWqVfbRZ19av336Rq7eux9+an///bc1adzIunbuaMNG/BB5WzIigAACCCCAAAK5EmAayVzJs9+sCLRbt4116tDOlzX4w08il/nPP//Yu2vy77HLjr5LUOSNyYgAAggggAACCORQoEK3wGfqOn/BAlu5cpU1bFDfarkpFYP0+5SpNm7iJFu+fIU1btTQtuq1mVWtWjVYXehTLbvKP3bCJKtXp4516dTBWrZoXihPlB8WL1liY8dPtBmu33nnju3dnw5WPcO+5wpap0yb7svTVJHd1utszZpEn3oycKlarWqk7bJlkMppydJlttduO9t9jzzpj2uc81Zrerr0nes6I1MlbR9Mx5luu/j1i/7808a4czN7zlzr6Ab2dnLnR116UqXAsCTXlspfvny5TZo81SZOnmI1qlf3U4hqcHGjhoX78C9dtsz+/HOxr5K6lKUbt7Bg4SLXlWiFv67DpiWNWv+N1u9hS925UWrkfldq1qjhv6f6S+Mq5s6b77PUqVO7WN2hUpXLOgQQQAABBCqaAAF8yBm97ra77Ieff7WzTj7ODjlgX9+3+ob/+1+hLhYKhN4d9HSRrRVY3Xn/w/bpV9+4m4DCfaoVXF1w5inWZ9uti2yXuGDi75PtxgF32/iJvxdaVb16Neu1ycZ22b/OcTcXa4NFBefJktY9+vTz9sqbg22Zq198UlB3+gnH2G477bC2vCRFBS7t121rj993R3wxhb5ny6BQoUl+UNC3+8593Ewyz/pW9MEffmznnnZSktxrF7/zwcf+BwWa7dq28UHr2rWpvw3/7ge7c+DD9seMWYUyrrPOOrb91r3twrNPtwb1w/viB4aZXFva2U+//uavr9/dFKKJ51z736BHN7vlv/1jNxJ6ynDPQ4/7ej70v9usi7sBTJVuu/t++3rYCGverKm98Oj9RbJGrf+dN15j51x6hd/+0H772pknHVekrMQFOif63VHKxrSoieXzMwIIIIAAAhVFgC40Kc7kvPlqiV9p/a+7JRa8K3BXq3vrli1MAVN8UovoGRf+p6BPtttOrbHd1+tibVq1tCpVqriXJC2ya24eYP93zwPxmxX5/vHnX9nZF/ePBe9qYVU5rdw+V6/+y7759js766L/mOZlT5cWudbXS920ms+89GoseG/RvJkvr3btWr7FUzcKj7gAv369kg/mzZZBuuMK1v/111/uSUkD26b35n6R+sGvckF9qiQTDXpVCgY5ayBsuqSAWXPlX/bfm2LBeyv3VKVnt64mSz1x+HzIUDvlvItt5OixKYsr7rWl43zwiWfswv7X+pb3IHhX//2g1V/711iA4OeUFSjhynT1X9/dSHTt1NHv5QM3RkH1T5eUT6le3Tq2wzZbpsvOegQQQAABBCqtAC3wKU79nLnz7Lrb77JfRo627VzL6lEH97OuXTpZVRe4a8aT+KRA/9KrrzdtU9d1mTn3tBN9y7ACdyUFPDe5edT1oqS33//INuzZ3fbcdSe/Lv4vTdV40x13u4Dnb1Nr+0XnnGG77LBtrOuDWreff+UNe/rFV6z/9bfEbxr6feBjT/p9auUmG65vl194rm9dDTKPGT/Bbhpwjz3jytP+SpKyZVCcOshJaa/ddrEvvh5mCs6/dJ87O7Nk6cNPCwa9qpvGjttv47Opy1S69Nrb79qTzw/y2bbstaldfO4ZhboSvf/xZ3bXwEf8NaBzrbnyk3WxKs61pR0OeuNte/7l1/2+m7vB2eefcYptuH5319Jf3y+bM2+eDXeDcNVdpSxSlPrv23c336KuG9chrlU/VVCu615vAlbayZ27GhG63JTFcbIPBBBAAAEE8lGgcBNyPtYwh3X6yLWEq6X2uCMOsesuv8R6dl/P9z9Xy3vifOHqnqKgRgH7jVddZhoYGQTvOgS1lN5yzeXW3g26VHr4qed8P2b/Q9xfT7/4sg/etei6/pfaHq57SHy/ZfXJP+Gow1w3jdNsVZr56xUUBa2aCt5vvfaKQsG79qEXFw2842bfjSRdecqfKmXLINU+kq1TQK3uQErqRpMqBd1ndt5+28it1bpxeuqFl32xvTbd2G6++vJCwbtW6JzrvChNnf6HvfrWYP897K/iXFu6WdQTFCUN2H3wrltt2622iAXvWq6xDJohaJvevfRjqaco9Ve3LI21UEp3Tj767ItYnfuG3NjGVvIFAQQQQAABBKxCB/CrXHcCvXQo3R/lC0vqptBjva4+YA5bHyxbsmSpPbemdXTXPtuZ+lWHJQX+Rx16kF+lwXpffDOsULaZs+e4gLsgkFFf5i0337TQ+vgf9nTBYtggw/g8zw16LXYzcPRhByUd/KoBhgfvv3f8psX+ni2DYu94zQayVQCt9N2Pv5jmeA9Lo8eNtwmTJvtVQfeZsHyJy156/S3fBUo3ZeedflLi6tjPu7jz37ZNK//za2+/F1ue+CXqtaXtdB4XL17iizj+yEOL3Dwmll0WP0epf53atW3nPgVPQjRuIBigGla/4LrX+Ir1u3cLy8IyBBBAAAEEEFgjULI+E3nOqEDtyFPOTlvL/7v+Ktts4w1D851y3JGhy+MXjhwzNtalZrutU/fd7eH6sgdpStwbQLVs9Nhxsb7C++21R5At9FNdM3bts7298Ooboeu18LfRBV0S1Ad/C9dqnCqppT8YQJgqX7J12TJIVn6U5Wq5VbCrvuDvffSpHXv4IUU2e+f9gtZ5tWTriUrUNHTNHPEd2rX1TyuSbacAX0819CZgzXKj/vjJZg2Kcm1pPz/8/Jvfnfrb77DNVsl2XebLo9R/3z13M5mrq9P7n3xmR7puaIlp1Jhx/omFlu+5a8FNWGIefkYAAQQQQACBtQIVOoBfe5iZf+vhBiimS9P+mBHLomBtzLgJsZ8Tv8QPllQ3i/gUTGuoZcHc5vHrE79rMGqqNGNmwTSJHdsXzJOeKq+65mjmFPUhzyRlyyCTfQfbaDaZDd3Tj19+G+W6bBQN4Fe4cQoaIKykqSOLkxSQK7Vq0SLl+VWeoN+7biSmu2tD0zuGpSjXlrb7Y+ZMv7nOY3y3rLAyy3JZlPrrCZam9dT0noM/+CQ0gP/AjUlQqlrVPUXZmQC+LM8h+0IAAQQQKJ8CFTqAV3/zS849M+2Z6bjmRUCJGdVFRd0A0qXpfxQEWMp3xQ23psseW6/5w+NTEHBrWZT52Zs2aRS/eaHvmqM8mDIyXVebYEP1Ic80gM+WQVCXTD8VmCuAnzFzln3/0y+Fnqx85qb2XLJ0qR9ToKknoybNpb5w0SKfXTMA6U/UNNuNiwgL4KNeW6rvwkV/+t01a9Yk6m5LPV/U+qsiaoXX0x3dsP7szk18FzPd5HzyxRBfX40tCMYxlPoBsAMEEEAAAQTKsUCFDuBru+B7AzfbS6YpSvCusmfPXRuIa7Bq1FS/XuG5wvWSnCDpRT/pUqOGyWccmTd/7RSTiS/3SVZuQXlTkq1OuTxbBil3EmHlzm5WmXsefMzfvAx284rHd43Sz0rbbrlFsfqRx99oabrIYGBmhOpYtSQv+op8bc2ZF9tN4xTnO5aphF+C6SnTFRO1/ipHg1kfeOzpgnPiBhjHB/DDv//Rjy1Qvr67Fu+piLYhIYAAAgggUBkFKnQAX1YnNL7V8NF7/q/Q7CDFqUN88K+W8HSBt96YGaTErhXxZQWtx0HeZJ+x7j1VkuVIvjxbBsn3EG2NugLt5IL4we4FRp+76STPdwOM67p5xdXF58dfCvqS773HLtEKW5Mr/mnInrvslHIQa7EKjpA5/imLpmMs7RQMlnVvicrarhTsa3Cvpk/97Mtv7Dz3oq3gDccffVowaFs3s5qqlYQAAggggAAC6QXWSZ+FHOkE1Pc6SJOnTgu+FvtT/auDpCkp0yV1zwhSYsup+rOrtVgpSlk+X9ClJ4PYLVsGvsIl/Kvvmv7tmpf+o8+/9KUFU0fqDaPpBvQm7l43AMHNVEnOb2K5UX5WYFtvzQu24p8ERNk2kzyltQ/NCa+kbl1frnmJlsYkfDX0W79cAX6ywb4+A38hgAACCCCAQEyAAD5GkfmX+OA11QDWdHto2WLtoNTfp0xNl91muWknUyXNWqL0+5T0NxV6U+a8uC48qcoNW5ctg7Cyi7tMXTTWbdPab6bAPZiVRgs0/WbiG3SjlB8c38TfJ8dmCoqyXTbyaBYhpfETJ/ljKU6ZeqlYkP5MM0BZ18Bc98Ixn9xsOtlM3bt2sfXcS9CUgoHEQ1zwHozTKO6g4mzWjbIQQAABBBAobwIE8Fk4Y926dnZ9qgv6rOstqbGuKMUsu2e39WIvbXp98Pspt1aLexAIJcu40fo9/SoNHvzux5+TZfPLNZAweKtpyoxJVmbLIEnxxV4ctMLrhkovQdKbcNXNSC87yiT1XjMn//wFC+1V90bWskybbVQwxameuAQDPqPuv03rgjnplV8v9kqVPnDdWVa7aS99ymIXmmCf+/Xd3X/91r2NePGSJfbZV1/7nzt1aG+6fkgIIIAAAgggEE2AAD6aU8pcauU8+diC+eLVXeWehx5bGwgl2VKtwolJ3Tv67raTX6yZVIYMK+hekJhPP7/38WexubPD1mvZkYf0i90QPPHcS6YuC2FJbxl9dlDBmz7D1kdZli2DKPuKkkct7ZqWUOmxZ17wn5tutIG1brm2m5JfGPGvww/cz1q3Ktj2yecH2ZjxyacKDYoMO8fBuuJ8HnVov1g3msefe9H0wq+oKWi9V/43UtwUarabZ9e87TVq2cXNp/cWqFuXbhK+Hj7Chq2ZW583rxZXkvwIIIAAApVdgAA+S1fAPnvsGmtF1ItrzrjwMtfXd5ibw3uWGw/4jylInjJtug/Kb797oB183Gl+WeLuj9EbU6sXjC2++qbb7cXX3rQ58wr6uisgVCvqfY88Ybf97/60U+61dPPEB10TNH3f+f++ykaOHutfLqT9KmjTGzJPPf9SmzR5qsUPfE2sV5Sfs2UQZV/p8mhQbe/NNi2UrThvXi20ofuhevXqdvYpJ/jFGuh59sX97ZGnnjO9hGjZsuW+a4veNKo3veqcnXvpFfbwk88mFpPRz+oHr+tCSfPRn/Gvy/yLqvRkRdeWprnU+Xv1rcF2zc0DCu1DDtuvebmYnkb895YBforNIJMGS381dLidfO7FfqBvSa+BoNywTwXvCuKVHn3qef+kSnPma5YaEgIIIIAAAghEFyiIFKPnJ2cSAXXPuPnqy/18158P+cb0Ftirbrzd51aQov7FUVKLZs3s+v6X2o0D7vbzfw989CnTn4YNGrhAcZmtXLXKF7NBj252nct3xMlnmQZrJktnnnSs766grhdqNT77kv6+Vb6+Gxip7iBK1dzLpy674Gx3ozC/REFntgySHUtxl++1+86xOds1EHSHbbYsbhGF8mv6yasu/ZfdNfARPy+8uuboj5Ja+xO7IJVkCtNCO3Y/HLL/Pu48rzI9SdGsQrfcdZ/PknhtBV254rc/+9QT/Jz4umHTXPj6U6dObTdotLovS3l103j5Ref6F0899syL8Ztn9bvmhH/rvQ9jTxG26rWZNW6UfDrUrO6cwhBAAAEEEKggArTAZ/FEaqaSay670AV5F1i3Lp2tZs0avvT44F2B0tZbbG6Xnn+WW18zdO/qb/3Anbf4fMEgRAVtCt5buS4gB+y9hw244Wo/M0rbuD7OYYVpur4rL7nAT32ogZ0KstWFQcG76qc3l95yzeW2h+ty0q5twcDPsHKiLsuWQdT9pcq3Te9esfne1fJbo0bB+Ui1Tbp1mqLysXsHuDeG9jF1eQpSfPCurjaHH7i/laTFPyg3+NTAW7XC33vbDbbJhuv7AFzr4q8ttbaH9fHXk5gnB97pn8YEb4ldurTg5VQK5NW16LZrr/Ct42EvnQrqkI1P9XXX70aQ9tx1p+ArnwgggAACCCAQUSA21YR7FJ/B5IER95Im28+/jvQ5NtqgYNBlmuzlZrVI1eXlD/dHgZJelNTMBVnFDSSnuznM1e+5c8f2sYA0UwR19xg/aZLri1zbOrVvl9GMLMXZd7YMirPPssyrVm11X9Gc/Dq/ak0uqxZlXRPqlqUXS6nri2Yd0g1aqqRuWNpOb6rVNu3XbZt2m1TlZbLu31ffYHqBk54qDXriAff0omomxbANAggggEAlF6io8WOU0xr7vz0BfBQu8iCAQEkEdPNw9Knn+DEDB++/d2xcQUnKZFsEEEAAgcopUJkDeLrQVM5rnqNGICcCmglHTwH0pECDnkkIIIAAAgggUHwBAvjim7EFAghkIDBuwiR76bW3/JbbbtnLOrouXCQEEEAAAQQQKL4AAXzxzdgCAQSKKaBB2DffeY8fQK3W96PXTItZzGLIjgACCCCAAAJOgGkkuQwQQCDrApOnTnPz0r/rBqrWt19GjrIff/ktNs3m8Uceaj3W65r1fVIgAggggAAClUWAAL6ynGmOE4EyFFiwcKG9/s57hfao2WY0n/1xRxxSaDk/IIAAAggggEDxBAjgi+dFbgQQiCDQxr2fQIH67Dlz7R/3X7u2bfwbYfVJQgABBBBAAIGSCRDAl8yPrRFAIESgWZMmdsJRh4WsYRECCCCAAAIIlFSAQawlFWR7BBBAAAEEEEAAAQTKUIAAvgyx2RUCCCCAAAIIIIAAAiUVIIAvqSDbI4AAAggggAACCCBQhgIE8GWIza4QQAABBBBAAAEEECipAAF8SQXZHgEEEEAAAQQQQACBMhQggC9DbHaFAAIIIIAAAggggEBJBQjgSyrI9ggggAACCCCAAAIIlKEAAXwZYrMrBBBAAAEEEEAAAQRKKkAAX1JBtkcAAQQQQAABBBBAoAwFCODLEJtdIYAAAggggAACCCBQUgEC+JIKsj0CCCCAAAIIIIAAAmUoQABfhtjsCgEEEEAAAQQQQACBkgoQwJdUkO0RQAABBBBAAAEEEChDAQL4MsRmVwgggAACCCCAAAIIlFSAAL6kgmyPAAIIIIAAAggggEAZChDAlyE2u0IAAQQQQAABBBBAoKQCBPAlFWR7BBBAAAEEEEAAAQTKUIAAvgyx2RUCCCCAAAIIIIAAAiUVIIAvqSDbI4AAAggggAACCCBQhgIE8GWIza4QQAABBBBAAAEEECipAAF8SQXZHgEEEEAAAQQQQACBMhQggC9DbHaFAAIIIIAAAggggEBJBQjgSyrI9ggggAACCCCAAAIIlKFAXgTw1atX84e8atXqMjx0doUAAggggAACCCBQHgWCmDGIIcvjMZSkznkRwNeuVcsfw4KFC0tyLGyLAAIIIIAAAgggUAkEgpgxiCErwSEXOsS8COCbNWvqKzVz1mybPWeuBXdVhWrKDwgggAACCCCAAAKVWkAxomJFxYxKQQxZ2VCqBAf8j0vB91x86mTMmDkrF7tmnwgggAACCCCAAALlTKBVyxbWfE0jcDmreomrmzcBvI5kydKlNscF8suWL6cVvsSnlgIQQAABBBBAAIGKJaA+7+o2o5b3unXqVKyDK8bR5FUAX4x6kxUBBBBAAAEEEEAAgUopkBd94CulPAeNAAIIIIAAAggggEAGAgTwGaCxCQIIIIAAAggggAACuRIggM+VPPtFAAEEEEAAAQQQQCADAQL4DNDYBAEEEEAAAQQQQACBXAkQwOdKnv0igAACCCCAAAIIIJCBAAF8BmhsggACCCCAAAIIIIBArgQI4HMlz34RQAABBBBAAAEEEMhAgAA+AzQ2QQABBBBAAAEEEEAgVwIE8LmSZ78IIIAAAggggAACCGQgQACfARqbIIAAAggggAACCCCQKwEC+FzJs18EEEAAAQQQQAABBDIQIIDPAI1NEEAAAQQQQAABBBDIlQABfK7k2S8CCCCAAAIIIIAAAhkIEMBngMYmCCCAAAIIIIAAAgjkSoAAPlfy7BcBBBBAAAEEEEAAgQwECOAzQGMTBBBAAAEEEEAAAQRyJUAAnyt59osAAggggAACCCCAQAYCBPAZoLEJAggggAACCCCAAAK5EiCAz5U8+0UAAQQQQAABBBBAIAMBAvgM0NgEAQQQQAABBBBAAIFcCRDA50qe/SKAAAIIIIAAAgggkIEAAXwGaGyCAAIIIIAAAggggECuBAjgcyXPfhFAAAEEEEAAAQQQyECAAD4DNDZBAAEEEEAAAQQQQCBXAgTwuZJnvwgggAACCCCAAAIIZCBAAJ8BGpsggAACCCCAAAIIIJArAQL4XMmzXwQQQAABBBBAAAEEMhAggM8AjU0QQAABBBBAAAEEEMiVAAF8ruTZLwIIIIAAAggggAACGQgQwGeAxiYIIIAAAggggAACCORKgAA+V/LsFwEEEEAAAQQQQACBDAQI4DNAYxMEEEAAAQQQQAABBHIlQACfK3n2iwACCCCAAAIIIIBABgIE8BmgsQkCCCCAAAIIIIAAArkSIIDPlTz7RQABBBBAAAEEEEAgAwEC+AzQ2AQBBBBAAAEEEEAAgVwJEMDnSp79IoAAAggggAACCCCQgUC1DLZhkwossGDhIps1Z441bdzYmjZpXKGOdOGiRfbjL7/5Y+q1ycZWt26dCnV8HAwCCCCAAAIIVA6BchHAz1+wwGbPmWvzXXBZs0YNa9SwgbVs3txq165VOc5SGR7lsO++t+cGvWb777WHHbjvXmW459LflY5r6IjvbfNNNrI+226d9R0OGfatLV++wnbps13Wy6ZABBBAAAEEEEAgEMjrAP6b4d/ZR59/YeMmTArqG/usWrWqbdizux124P7WplXL2HK+IBAmMGrsOB+8t2vbxk49/uiwLCVatnr1anv06eftr7/+sl6bbmQNGzQoUXlsjAACCCCAAAIIJBPIywB+5cqVPhhSa6mSgq4O7da1tm1a24oVK3wXj59/HeUD+yaNGyU7NpaXQ4E3Br/vz/Gh/fbLWu2Xu2vmkSefs3brtrFLzj3TatWsmbWyg4KqVatmG2/Q0xYvXmIN6tcPFvOJAAIIIIAAAghkXSAvA/iHnnjGvv3hJx9oHXfkobZN715FDvyvv/+2Oa5bTWkEY0V2xoIyE/ji66HWpVPHrO5v3rz5tuuO29v222xl9Uqx3/t5p5+c1XpTGAIIIIAAAgggECaQd7PQDP32Ox+8q0XziovPDw3edSBV11nHWrZoHnZMhZatcl0bMk16EpAu/e1uJNR9IlXSzYb+FDelK7e45WVaj2T7ydR2xYpw16nT/7A5c+cl213S5enOQZvWrazvbjtbzZo1kpaRbkWmx5qs3GQGYfmzfR2E7YNlCCCAAAIIIFB+BPKuBf7djz71ervssJ3vMpMJ5UeffWnDXPebKdOn+0GFLZo3s84d2tshB+xrYV1uhgz91t587wM759QTrXXLFjb4w0/s2+9/tEmTp1izpk3stmuv9NW49tY7fFee491TgUmTp9r7H39qP/060pYsXWqnHHeUbbdV71h1//nnH1fOx/bdDz/b5KnT/HIFkn223coNctw+li/xiwbrvvzG2/b7lKk2c/Ycq1WrputC1NbfyOy0/TaJ2dP+nGk9khX8x8xZvn4Tf59s8+YvsMaNGlqXjh3s8IMPsGZNmiTbzD789Asb/t0PpiB96bJl/snJum1b27577m49u3W1V98abJ8N+cZvr5li/nPtTbGyDnXnTQNPlYpzDpQ/02vhrJOOt8aue9ag19+ysRMm2h8zZlqNGtXd9dHS9uu7e6w+2keQVLdly5fbTVf9J1hU6DOVwSYbrl8ob7avg0KF8wMCCCCAAAIIlGuBvArgFbAqaF7Hta5rFpTipmXLltu9Dz9mv44a47pK1LVuXTq7qQLr2pRp0+zr4SN8sH3aCUe7vsqFg6XFS5fYDBeYzp03zwd8n3zxlSno36BHdx+gBvWYOWu2KSCe7oK52+++31b/tdoF9O18C3wrF/gHSX2u733ocftl5Ch/A9C712Z+cOOoMePsqRde9vU797STguyxT910PPbMC6bt1ed/my172aJFi03B8hPPvejrf8aJx7hAMlpLcqb1iFUo4csI163p4SeftZWrVlnP7ut5R7mpu9Ovo8eYupD0WK9roa0UrMviN7e+RvXqpqC9UcOGvqV9/MTffd5lbuaWue5mYN3WrX2wXMfNLqRxD0GqU6d28NWinoOSXgvDv//BhrubOPVp79yxvXXt1NHdUM220WPH290PPmrHH3mYJd5QqW463sQUxSB+m2xfB/Fl8x0BBBBAAAEEyr9AXgXwCt6V1EqeyRzdb7z7vg+O1Zp5+gnHFppmUgNiH33qOXvw8Wfs5mv6h/aFfuXNwTbHBfEXnXO6m+GmR+jZnTN3rg249wE/A86JRx8R2i3jrfc+9MH7Vltsbqcce6SpO5CSArm77n/YvvvxZ/tq6PBCLfaao1zB+z/uPwX3QYuztluyZKnd98gT9v1PP9s7H3xs/fbpq8VpUyb1SFbo4iVL7GHn97e7gel/0XkuqO0Qy6qnFfc+/Lg9/uyLdsMV/zbNEBSkN92gVAXv3bp2sbNOPq7Q7CyL/lzsz7O6Q5118vHuBuU3u+O+h1zezv78BWUkfkY5ByW9Ft589wN/Dk459qhC19Hn7imBztPLb7xlO7inKap7uhTFICijNK6DoGw+EUAAAQQQQKBiCKSPPsrwOBe6ed6VWrrW7+Im9Z1WFwUNatU0gYlzxG/lWsE1P7e6u7wx+L3Q4tVt5dTjjk4avGujxS6Y1iwjZ5x0XGjwrgDsg08+9+UfvN/eseBdC+rUrm1HuK4mSgrq4tNrb7/nW95332nHQsG78uhm5oyTjvUt2Oreo5ctpUuZ1iNZuQpol7vuIb0326RQ8K78W7hlumlSC/Qw100mSHPd4NEPXXem6u4GRgF64tSKDerXixQAB+UFn+nOQTauBfWXP/How0Ouo8398agOUfrrF9cg29dBYMYnAggggAACCFQcgbwK4IPuBw3di5qKm8aMn+C7svTefBOrWyf8DZtB33P1Ww9LHdu384Fo2Lr4Zf322TP+x0LfR44eZxr8qi4mzZs1LbROP2gfapFXdyF1RQmSWqmVErtlBOvr16tnW2y+qS97tJvTPF3KtB7Jyv3J9UtXUh/+sNSlU0e/eOq06bHVa8/Jpi54z+7UiqnOwdr9Zn4tqCuQumElJgX23d06pSgB/Nq6RDPI9nWQWH9+RgABBBBAAIHyL5BXXWiaNm7sRecvWFhs2VkuIFZq3ix5670GpKp7hwIvzVyivvbxqUO7tvE/Jv3eft11k66bNaegHuo7PfDRJ0PzrVOlil+ugYpt3cBWzQ4z19VJgX3TJgUGYRsGTyYU/KdLmdQjWZmymu3qV8XV++PPv/J/EvPOcseiFJwHfdfxKUWZLchnLMZfKc9BFq6FJmuuxbAq1atXcIP4lxsDkS4Vx6A0roN09WM9AggggAACCJQ/gbwK4Fu0KAi+g6CnOJxB0J+qpVcBaP16dX0XFHUxadyo8EugErt4JNt/qn2oy4SSAmjN0hKWqrvBnPoTTA+4yNVFwVvjNK3UQf2CfYSVHSwL8hSnHsG2iZ+y0htG5ffLyNGJq2M/68nHOnH93zWeQKlRBk9UYoUm+ZLqHGTjWtB1ko1UHIPSuA6ycQyUgQACCCCAAAL5JZBfAfyaLicKfDXAUX2ko6ZWa+aE/9O1fKdK6rtcEMhHLzuxPG2fLAWBX7+9+/q5x5Pli1+uWVnUd1+t9qnS4sWL/epUwWuwfSb1CLZN/NRMPko13ew399x2Q+LqpD/Xr1tgrAGw2U6pzkFZXgvpjqs4BqVxHaSrH+sRQAABBBBAoPwJFO5DkuP6q0V83TatffeWN92MMsVJndw870qp+iWrJVmt3uqqE8wMU5x9RMnbskXBdJKaLz1qUjDaof26ppcFqY7JkrqxKEXpkpJJPZLtV9M/qmuPpqWcvyD8qULYtsEYgOBpQFie0liWL9eCjq04BqVxHZSGL2UigAACCCCAQG4F8iqAF8URBxXM0vLpl1/blKlrB0SmY+roAmAlzd+d7C2XX34z3Ofp2qWj/yyNv7q4OcMViGlqRU3/GDV1coNblb5yL5UKSzqmET/86MuOn8IxLK+WZVqPZOVpHnQlnZeoSQN2lYaN+MEPvk23XXBTtXDRn+myplyfL9eCKllcg2xfBymhWIkAAggggAAC5VIg7wL4DXp299M4qqX8+tvvtI+/+CoUVi9Uig/0atWqZbvttIMPmp97+TXfpzx+Q7059V03BaOCxAP32St+VVa/B29b1Yw6Dz35jJ+2MnEH6k+uKRfj047bb+unixzs5nnXdJbxSf3jnx30qp/CcodttvJvi41fH/Y903qElaVlB++/j58+UYbf//RLaDY9/VArfZAUSGs+e3WheealV30/+mCdPnUO4/M3b1owa8+YcRNCX4gUv22q7/lyLaiOxTXI9nWQyol1CCCAAAIIIFA+BfKqD3xAePapJ/iA9YshQ+2p5wfZq+4FS3qDZxv3Gvs/XTCo19rPcAGwWqL/869zgs3sqEMOdF08FtpnX33t3+iqN6mqL/iU6X/YcPciJwXChx+4v3/LamyjUvhy6AH72QT39tQf3dSL/a+72dbv3s3vU28H1aDGkWPG2kbr97Qz3VzyQVK/7X+deardetd9dsPtd5ne3trOdSda5Pq9/+oGjk6eOs0UlB+0X/Sbj0zqEdQn8VNdQY44uJ89+9Ir9r8HHrHu7sVM7d2sPbXdjdP8hQtt8pRp/sbjhisvszatWsY2P8x5T/x9iukFSOMmTLQe3br6N8lOcsv04q4D993L9thlR59f+9BbTydMmmz/vWWA7bDNlj5vuzZt/LScsUIjfMmXa0FVLY5BaVwHEbjIggACCCCAAALlSCAvA3gN6DzJveV0s402tPc/+cymTZ9ho8aM838CW/XJ7umCwfikriunn3isvfjqG/bl18NiLdmaOlJ9648+7CBbr3On+E1K5btevHT1pRe6F0a97wPXr4ePKLSfLu7Go5drmU5MXTp1tPPPPMUGvf62DXFvag2S5oDffec+dmi//XwreLA83Wem9UhWrl6E1aVTBxfEv+qC7N9t9Ljxsaz13DEr4E4cYKupL6+/4lLXAv+Kb7nXNJRKmk+9Q7t21tadl/ikF2npyYWC+JffeMevOtLdOGhe/eKkfLkWVOfiGmT7OiiOG3kRQAABBBBAIP8FYtOpuO4M/+RzdTUrzVzXeq0W33quVT3sJTvx9VcXnDluSkd1V1EAFfSvjs9TVt/19tfZc+ZZrVo1/ZSKukFJl/50Le+ajUczkyQGxem2TbY+k3okK8vPDe/meV/hXlqlN9NqxqDEefXDttUx6Y2urV0rvYLsZEmDefU0RTcvqebGT7Z9/PJ8uhZUr6gGylsa14HKJSGAAAIIIIBA+RWIRVD5HsCXX2JqjgACCCCAAAIIIIBA9gTybhBr9g6NkhBAAAEEEEAAAQQQqHgCBPAV75xyRAgggAACCCCAAAIVWIAAvgKfXA4NAQQQQAABBBBAoOIJEMBXvHPKESGAAAIIIIAAAghUYAEC+Ap8cjk0BBBAAAEEEEAAgYonQABf8c4pR4QAAggggAACCCBQgQUI4CvwyeXQEEAAAQQQQAABBCqeAAF8xTunHBECCCCAAAIIIIBABRYggK/AJ5dDQwABBBBAAAEEEKh4AgTwFe+cckQIIIAAAggggAACFViAAL4Cn1wODQEEEEAAAQQQQKDiCVTLp0NasnSpzZkz15YtX26rVq3Op6pRFwQQQAABBBBAAIEcC1SvXs1q16plzZo1tbp16uS4NrnbfZVg1/+4FHzPxedsF7jPmDkrF7tmnwgggAACCCCAAALlTKBVyxbW3AXylTHlRQu8Wt4VvFepUsVatmhujRo2NN1hkRBAAAEEEEAAAQQQCATUQ2PBwoU2c9ZsHzvWqVO7UrbE50UfeHWbUVLwrjspgvfgMuUTAQQQQAABBBBAIBBQjKhYUTGjUhBDBusry2deBPDq866klncSAggggAACCCCAAAKpBIKYMYghU+WtiOvyIoAPBqzS8l4RLzGOCQEEEEAAAQQQyK5AEDMGMWR2S8//0vIigM9/JmqIAAIIIIAAAggggEB+CBDA58d5oBYIIIAAAggggAACCEQSIICPxEQmBBBAAAEEEEAAAQTyQ4AAPj/OA7VAAAEEEEAAAQQQQCCSAAF8JCYyIYAAAggggAACCCCQHwIE8PlxHqgFAggggAACCCCAAAKRBAjgIzGRCQEEEEAAAQQQQACB/BAggM+P80AtEEAAAQQQQAABBBCIJEAAH4mJTAgggAACCCCAAAII5IcAAXx+nAdqgQACCCCAAAIIIIBAJAEC+EhMZEIAAQQQQAABBBBAID8ECODz4zxQCwQQQAABBBBAAAEEIgkQwEdiIhMCCCCAAAIIIIAAAvkhQACfH+eBWiCAAAIIIIAAAgggEEmAAD4SE5kQQAABBBBAAAEEEMgPAQL4/DgP1AIBBBBAAAEEEEAAgUgCBPCRmMiEAAIIIIAAAggggEB+CBDA58d5oBYIIIAAAggggAACCEQSIICPxEQmBBBAAAEEEEAAAQTyQ4AAPj/OA7VAAAEEEEAAAQQQQCCSAAF8JCYyIYAAAggggAACCCCQHwIE8PlxHqgFAggggAACCCCAAAKRBAjgIzGRCQEEEEAAAQQQQACB/BAggM+P80AtEEAAAQQQQAABBBCIJEAAH4mJTAgggAACCCCAAAII5IcAAXx+nAdqgQACCCCAAAIIIIBAJAEC+EhMZEIAAQQQQAABBBBAID8ECODz4zxQCwQQQAABBBBAAAEEIgkQwEdiIhMCCCCAAAIIIIAAAvkhQACfH+eBWiCAAAIIIIAAAgggEEmgWqRc5TjTsmXLbcKk323SlKn2zz//WKf27ayj+1O3bp1yc1R/Ll5sP/060te3e9cu1qxpkxLV/ddRY2zBwoVWu1Yt23yTjUpUFhsjgED5F/hl5ChbuOhPq1O7tm228Ybl/4A4AgQQQKCCC1ToAP6Lr4fZgHsfdP9jWlToNFatuo69/ORD1qB+/ULL8/WHyVOm2ZU33Oar1/+i82zXHbcvUVUff/ZFG/HDT9a2TSt7auD/QsvS+hUrVtrWvTe3ddbhQU0oEgsRKCcC8xcstG+Gj7Bem21sLZo1K1LrR59+wX74+Vdrv25be/y+O4qsZwECCCCAQH4JVNgA/quhw+3qm2732mpp7r5eF98CP37iJOvSqWO5Cd5zcbn8NnqMXXLV9X7XV136L9tp+21yUQ32WQkFZs6abUNHfG8zZ8+x2e6PPqtWrWrNmzV1gWdT69l9Pdt6C24qi3tp3HzHPTb8+x+tQ7t17bF7BxR3c/IjgAACCOSZQIUM4NVV5pGnnvPU+h//HTdeY21atYzRq1sNKbnA9D9mxlZO++OP2He+IFAaAn/99Zd9+c1we/v9D92ToZ/9jXaq/TRp3Mh222kHO/rQA61+vXqpsrJujcD0GQW/07pBWr16tVWrViH/6ed8I4AAApVGoEL+Kz5+ouvzPnmqP4kH7793oeBdC2vXrlVpTnAmB7pN71626UYb2PLlK2zXPiXrrpPJ/tmm8giohf2/Nw+wUWPH+YOuVbOmbb/NltapQztr3rSpb3lXgD97zlyb9scM+/TLr23q9D/sxVff9N+vvPh826Bn98oDluGRHnVIP3v6pVdsn913JXjP0JDNEEAAgXwSqJAB/IxZs2LGG/Tgf+4xjIhfNMB3wA1XR8xNNgQyE1BXmZsG3G2L/lzsb7KPOPgA26XPdn4gxfxbQwAAQABJREFUZbISTzrmCNOAy7sGPmK6Ub/g8qvt8gvPs5132DbZJix3Anvtvov/AwYCCCCAQMUQqJCjE2e4x8RBatyoYfCVTwQQyBOB73/6xfpfd4sP3rfbagt74I5bbN89d0sZvAdV37BnD7vv9httnz12tb/++ttuv2egTZk2PVjNJwIIIIAAAhVeoEK2wM+ePTd24hYuXGRV42ZRqVevrtWtUzCF5PwFC2zlylXWsEF9q+UGugbpdzfl5Dg32FVdSHQDsFWvzfxAumB9/Offf/9tyj92wiSr58rt0qmDtWzRPD5LpO+LlyyxseMnmm4+Onds7/50sOoZ9lPVGAAFNCpPA3i7rdfZmjWJPvXkqlWrbN78Bb7eDRs2MHVrSJcW/fmnjXH7U1eHjm6gXCd3DOm2C/ZTtVrVQvWT6dgJE23i71PclJ/rWtdOHZM+9ld/3tFjx9vvU6dZy+bNbN22bfxnuvrGr8/0HGbj+lE9ZsycZRN+n+zN1b9bx9GpQ/sis/8sXbbM/nSt1UpNmzROauIzuL8WuGt/xYoV/toNm3o0av03Wr+HLV26zBfbyP0+1KxRI9hF0k+dl7nz5vv1derULtRXXS3uGlQp90MO2MfOOvn4pOUkW1G9enW76JzTbZa73oZ/94Nde+sd9uCdt1qVKlWSbeKX65inTp9h0113HA2Obd2yhTVxluuEbKdzof0o5cu1qmvgD9ef/Q93zejfJ/1b07pVi0K/P77CCX8F5zrxdy0hW9Z/jHpth+1Y/fYnut+LJUuW+n9PNP1vlH8T8+VchR0TyxBAAIFsCVSYAH7M+An21nsf2tfDRsQCByGdfUn/QlanHn+UHXlwP7/sutvu8lOnnXXycS6Q2Nc03/oN//c/Gzbih9g2Guz17qCnYz8HX5YvX2533v+wffrVN+4mYGWw2H82ckHvBWeeYn223brQ8rAf9D+oG103AnUHiE/Vq1ezXptsbJf96xx3c7E2gFZwnixp3aNPP2+vvDnYlrn6xScFfKefcIwf/BcrL0lRI8eMtQv+c43f/KpLL3Cz0CTvnqDg6c6BD7ugYm23JW2oqSe337q3XXj26W7Gn/CBhsF+atasYe+8+JStdDcOt951n5vu7rtC9a/hgijNPnLlJReYgiql8W5u/7sfeNT1nR5fxF9TX55/+slpb6RKeg5Lcv2scNfMwEefsvc//qzQsfqDc3/pxvGU446yvXbbOVhk7374id3z0OP+54f+d5t1cTd5qdJtd9/vfx80kPuFR+8vkjVq/e90g8DPufQKv/2h/fa1M086rkhZiQve+eBj//uh5YlTn95+90CbPXeenxlK12RiUp93nV/9TkxxN2Y13Q2kfqc0xWHPbl0L3WxffuE5dsJZ//J5v3WzrPTefNPE4vzPCgYffPwZ+3zIN6Hrwxbeft2Vsfck5PJa1bXymft3ZrAz/fGX38Kq6hsZTjvhaH/jF5YhONdlMU1kJtd2UGf9W/rA40+7a/3TIr8XuuHaZMOedsm5Z6b83c7luQqOg08EEECgtAUqTACvoHvot9/7wFEt7EuWLvV2Cvj0D3+Qgtb34Gd9qrVZ/+PQI/1fRo72qxS4KyBWC13iPOgaIHvNzf9nk11woaSW5g6upVito2oZU8vnNW5gnh7xq5UwWfr4869Mwcxy10qqpEBVLdd6oYpmi/jm2+/srIv+428GkpURLFer5nW33enndw+WtXAtuQoEVU+1hupGQS3V9d1TiJIm2Tzx3Ev21Asvx2YNaeVaA7U/vTRLM/18PmSo/TZ6rP33sot8AJ5sn5pvfvS48Xbfw094f3m3bd3KtzBr4KICewUu/7n2Jrvzxv+6Y5hq/776Rn/DpXPbft02rg5mCtIU/OkGYNSYcfb0g3cn7ZKRrXOoYyru9aObzRvdjeLkqWu7fejc6+mQ5uuWrT6bOMuySOnqv36Pbv4piJ5KffDJ53ba8UcX+p0Kq6PyKdVz4yl2cINSgzRh0mQ348wwf61ffuG5RcqZNHmKv4lOvKENttc7HP572cW2ret2o9SwQQPbfec+Nuj1t22wu8EJC+BV5hkX/sf/juvGePutt7R27kmNbnLHjJtQKCjWuxHatGxp+t3R9ZyYcnGtvvP+x3b3g4/GqqJB+Pr9WKfKOjbVzRKlpyMaT/DTbyPt8Xvv8AN/Y5nL+EtJru1x7inm9bffFft3VVXX0yg9HZ06fbr/3f7ux1/s1PMvsX+ddVracQ+5OFdlzM3uEECgEgtUmAD+mMMOMv1ResbNtvDIU8/77wPvuDnt4+U5rjXwOvc/DgXv27lW46NcC33XLp181xu1yscnBfqXXn29aRvdDJx72ok+gAge3SsYusl1D9CLkN5+/yPb0M2QseeuO8UX4b8r2Lzpjrt9H14FFRedc4bt4gbiBdO7qXX4+VfesKdffMX6X39Lke0TFwx87MlY8L7Jhuu7gX3nFvofuf7HetOAe+wZV572V9L02tvv2pPPD/LFbNlrU7v43DMKOatlWQMN5SQPzT0dfyOVuP9Lrrze38icfuIx1m+fvrFuGnJQq7NadNUl6OKrrvNdlhTkXnLemba7m04wMFM3pP+75wHfWqmbqGdeetVOda3YiSlb5zAotzjXj47n8mtvjnVR2rfvbnbQvnv7mxDduKzyXYLG+adAYcFosM9sfkapv+qpJ05yHeKecsUH5Yl10bWtt/0q7eSu6RpxXW7e/+Qzv1wBuILo+DRk2Ld27S13+Bu2ddu09kG65i1XNzjdGL/57gf+96XKOlXiN/O/Xwrg9e4H+cV3s9ANna4/nXPdzGtK2cT96kZagaOSzsWB+/YtVH7iD2V5rWrfu++8g730+lu203Zb+2OVSZDUVekJ93uo32vdNN/78ON2jbthzkUqybWtRgzdoKuhQb8Hxx95qPt3YM9Y1yudv6Gukeb/3HiHoLGiZYtmtn73bikPtazPVcrKsBIBBBDIokCFHMRaXJ+P3P/Av3LzUB93xCF23eWX+NZiBQH6H4la+OKTuqco4FHAfuNVl9keu+xYqN+tgoRbrrncB2Ta7mE3H73+x5aYnn7xZR+MaPl1/S+1PVwrYhCIaplanU446jDXBeU01/92tRYlTQqYghZPBe+3XntFoeBdG3br0tl0M6PgJV15SXe0ZoWORy3vSr023dhuvvryQsG7lstFdVfStH+vvjXYf0/2l56YXOyeVhx+4P6x4F155aCnGHr0rzTSteirxfEmZ6/uJfFm9erW9TcuQX/vT74Y4rdJ/Ctb5zAotzjXj27KdJOnpG5WF7qWxI7u6Y2uNSVddxqkqdlWgmV+RSn+FaX+mndd4ymUBn/4ccrafPTZF7H1feNuXtXn/cNPC9bttuMOsTz6ouDzjvse8sH7ji5QffCuW+2ME4/151iz05zpurkFqa7rUx+f1JVIT8F0XWsMRnxSC7tu/JROPvbIIsG7lmvmG924Kz3/yuv+M9VfZXmtqh66rp996B47zXU3ig/etU7X/8nuWtnQjVNQ0jz6uUolubaff/n1WNdHdds79vCDY8G7jkc3gbpp1GDn4N/ke90Tu3SprM9VuvqwHgEEEMiWAAG8k1Rrbo/1uvqAORWsBlM95/5Ho7Sr+5++BveFJQVeRx1a8DRALUpfuC4D8UlzX3/wSUEgs4HrnrBlkn672mZPFwgHAWl8GfHfnxv0Wuxm4Gj3FCK+BTI+nwYfal78kia1BqolVjcx551+UtLiFBipS4LSa2+/lzSfVjRv2sT3zw/LpP3Evw1Wc9RvvMH6YVn9oEPNaqI0e84cP1AyPmO2zmF8mVGvn4WLFtlLr73lN9Ug1f332iO+mJx9j1L/OrVr2859tvV11LiHYIBqWKWDa1s3XfEtpHoKpJsXDWrVU5v49JS7oVWZGi+hJyuJA6CDQbTaprarS2IKfkcSA/iJrvtMkHRzmyzpSZmStteA7FSprK7VVHVIXKe30yopYNXvZlmnklzbqq/m9VfSWJdUY4c0aPeQAwr+DdPN/Kdfht+kB8efj+cqqBufCCCAQEkECODX6J1y3JFpHTU4KuhSs53rR5sq9VivS2z1lLi+zlo42r20Ro/2lfZLE8Sp20m6lyn9Nrqgu4LeNruFaxFPldTSX9KkR9lKHdq1DW3RDMpX4K2WfyXNrqPuDcnS1u7lUam62KgvbJB6b75J8DX0s2Xzgr7LmmIwMaDL1jlM3HGU60cDboPBxYdk4UYqsQ4l+TlK/TXNo5Jcg64wifvU2AM9cVHac9cdC62e5W5cldTHPP7JiZapy5nSPm4fullITApMg1Q3ZH0wuFmzrcSnYJ9apoGwyVKD+vVjqzT+IFUqq2s1VR0S18X/fsyeW/gpRGLe0vi5JNe2xr8E44AO2nevtNXrt3ff2L8V6Z445OO5SnuAZEAAAQQiCJS8M3SEnZSHLD3c7BbpkgZUBkmt3Ho8nywF/0PS+iCgCfLGz1OvN06mSxpQlyrNmFkw772mWUuX1CVFrZzqR5ppmuam4VNq1aJFSgPlCYJydZ/Q1H2JXQCUR6lZ08YFX5L8Hf/23BbNUnvE513mptqLT9k6h/Fl6nuU60fT/wWps5tuNJ9SlPrrKVXXzh1Ngw0Hf/BJbDan+OP44NPP/Y8abLrHzoUD+Nlz5vl1mhEpMQU3ucmuD02fGKSwFvggwE/8XQla5rWtfg+DG8qgrOBT3dCUNJhY/e9TpbK6VlPVQX3fNYWmjltT4cZf13qiUtapJNe2/l0IUnvXKJAu6UVzalnXv6OJ/7YmbpsP5yqxTvyMAAIIZEOAAN4p6n/yYa1+icDT/1gbgF1xw62Jq5P+nNgKHATc2iDK/OxNmzRKWrYe9wetuvHBStIN3AoFUJkG8Aqk9LhcSbPk6E/UpKkDkwVoTRoXDeqSlRu0tiZbn2p5ts5h/D4iXz9xAXzzpk3ji8jp96j1VyXVCq/BrAqcfv5tVKFuZLpJC8YdaGxEYqCusSNKTRNu1tStJrjhjW9J9pnX/BX/O5PYB15ZglbzxJtY1UNd2lS3Qa770uUXnRdfrP+uMR0adK2kLhzBTadfEPJXWV2r8bvWkwXdNA0ZPsLPUCWzpIF62cfvfgaooL7Fvbbjbz6ibqupURXAx28b7D/+MxfnKn7/fEcAAQRKS4AA3slGCd51AuIfTRcniKxfr/A86PGP+fUSqXSpUcPk0wnOm7/2cX+qLgLx+ygob23f4Ph16b7H34yopTsY2JhuO62vFjedZ2L+sKAsMU/ws1p3M03ZOofx+498/cQNsIx6ruL3U9zvSQO8hIKi1l+baTDrA4897W8aNZg1fhzIcDcPe9D/uu+uOyfsxdyYiYJFajGOT/XdE6EgyNYYhbAUTNmqfPGz2iivplxVQKvW98Rj0TSwB++3t5/F5cPPvrS/Xeu05rJv37atab7ycRMm+oHmuq51LQcDr8PqECwrq2s12N89Dz1mbwz+wNTqrqTjb9PaTXXpnkTp3w/Nk68XJiWbIz4opzQ/4/9dKO61PWduwQu/VL9k74xIrHswkDX+39LEPPq5rM9VWB1YhgACCJSGAAF8MVTjWxQfvef/3P9s0gffYcXHB/9qCU/3Pzy9TTNI6lcen+LLClrG49eHfQ9aO61wUWFZiyyLf2Kw5y47pRzEWmTjPFiQrXOYyaHE71vnqnGj5E9WMik/cZvFi5cULMpilwoFyBqcrClSP/vyGzvvtJNiL1b6aM0MM7phDWZ1ia9TuzUzCU2dVtBHPlin7mh6CqD+6nojbTDHe7Ben59++bX/US3panXVPOhB+viLr/zXrp06BosKfWoGG/2ePPjEM6YpI/UnMWmw9QVnnJJyTEfiNmXxs6aF1KxJShq8fVi//fwAYN3IxKdCL3nK4Pc6vqxMvpfk2m7QYG0Dxzz3pCH+35hkdVE+pagt9snKYTkCCCBQXgUK/1+gvB5FGdU7fv7ooEUwk12r73iQgm4Fwc9hn+p6EqTEVlW1WAV9vqOUpXLmBC3BGTxqV//T4IajJAbB8ZT1Z7bOYSb11iDjIKn/cmmn+FbRbO5Lc8IrqevWl276VSW1Zn819Fv/XQF+2ExIwVSgeilPYgpmDnpj8PtFZoHR/O96Y3HwYqXvf/oltrn6Tz//8hv+54P2Sz4AUl1/NF2nkqZc7Na1s22x2cZ2wN57uDd7nuFfgKTuNvmU1Kr+8hvv+Cr56WH/29/0luHE4F0ZFid5clFWx1OSa7tJ3I3s7NnRfi9mBwOi427kyupY2Q8CCCCQDwK0wBfjLMQHfxrAqvm6M0l6AUmQfp8y1Q8MDH4O+4yfSSNsvQKbib9PcS84mha2utAyzX4TtF4VWlGMH+SgrhIKqlReuj7DxSi61LNm6xxmUtE2rda2Guv66f7/7J0FnFTVF8cPSneDII2Cga3Y3d2F3d2BYmCAqKh/uzARLOzETiREEFEakVJSQDrkf393eePs7PTM7szufg+fZd68d+t975uZc88999z2/0UqSqa88F2EtetvPFG/zHNuJV4iZm3i5Uvmmtq9kdvoTPHVZc2WW80gp7wHazEUnz+aaMdciZRNPT/BQFDntAmbfLw1CD3viuv9vghyk/h17DhvfVdowcsvONtOOf9SvyupNorSQsaBn3/lI0MpzOg2W3ZSUUVEkaMu73qLafddhaiM1b4iGXN8ItgMS83Qrs6RkXvCm6fvkZCkMTAP5U3zIJNnOwjhqaonOJcmrUOIJ3KXCp7t8JmYeHm4BgEIQKCsEcACn0KPymoX+Kxr05KQK0oKZSjpJhtvFPoxfsdZHOOJLO7RpvzD83TadBP/VgsLf/o5/kYuWmSoMICZSLBDqBYOvvXBx5kUVeJ5s9WH6TRckV6C+ObaOTRyNiVRmc3CrI1B1JRYeT517iyBz7SrKFaytM8fduB+Pu+PLvyjdsD9+vsCFxfFtxfjaCLXmnp1C9ZzaNfVcJE70f09bzUtYtWAVTsQy33k6+8He8X8hqsu8Xm7uP0VtGGTFHel0eyULP43uJ2HY8l3Pwz1yrsiPpUW5V33It/+QBT/PJZol9JEn/tYebN1PpNnWwOvwPdde0wk+lwMcGnkSiXRjAQCAQhAoDwSQIFPoddlAdVujhJZCrW4LKQkxSgn+KEJv6wICgfuu6c/NdpF8ohUZsLTDnTRMRKFSjvp2CNDA4IXXn7duzOElxEcK9pG/wFvBW/Tfj3hqMNsg6YFbkAvvjLAtEFPIonGIVGe4rierT5Mp22yOB/v2EmmzZiZcl+EuynI1SSWKLRg/9cz7+dY5eu89iaQ65ae/x9cZJSh6/YGCN95NVr+ILTk0y/0D+2pEKRTmMpn3NqSXm4n43NOO9kp5ZfYgBeest533Bzanfdk96w/dPft7nN4ol10zun2+P132U3XXB7VZScod/q6MIVyKUp2nUiQN5evwZoBtUHx9WOJdnsOD00bK10m5/Xdoc/6nb0f9NGHIsvK5NmWS1CwwZxC1L7qjCOxRCFM33UuVZKtt9jcdnL7RyAQgAAEyiMBXGhS7HVNZb8/8DMf//zDT77wP6xnnHy8tWvT2vvoasGprIJS0ORWIL/gl/s8ElroF1QnlwFZEWVNvPWu3nbu6V28JVELuKTs6gf5bWfdlg+sFojF2/lSVktZFuUrrNB+l19/i3c3aO/cHOSLLIXuN+dy8NCTz/oFgFrQp2nodKWSi5V98Tln2E133mNaKHnxNd3sxKMPt106b+/DRFapUtmH9Zs7f76PjPHtoCE+Wom2gs8HyVYfpnMv4qTnR/yf6fuKtwwf5nzK9fwoCorcm6Y4d6jvhwwz+T3vuevOoWr0HOzqNhD7zu3sKxec2+6+3853TJu6SCsSLYj+5bcxzsXkOb+BVab9HKo4yoGUdynxupdn3X1oNkquVHKniSdndDnevh402EdN6fPiy3blRecWSq5FstqZON7uxHJdS8V9becdtnN+8u94150u511qbd0sQXgs+cqVK3nLvzjqnoJZgkINy8GbTZ0riWZsxPaFV1530Wcqme5FBgB9R2iX2adf6OcHT/Lvl4tQcck37jP8fP/XfPHaDK3fU48UqSqTZ/vkY48y1THp9z/8YuOpM2bYcUcc6r9PpOBr8KWB4uPPvmgrVqz06wAucouTEQhAAALllQAKfIo9rygwvW690cfC/sYpIpOnTLVbevb2pUiBCXZYTVSsQsDd2e0663n/w84q+I898Wxf/ye/32Uu1vrKVat8EZt13NjucOlOPPsit2HLypjFXnjWqd6VQS4ysohffG03b5WvVbNGKEa2fGi7XnGxzXVb1vd5sX/MspK5IEXiluuutAefeMZbNfs5i6/+JArzGOmms9m6reqTKbu402SrD9NppzbS6n3HLa7fH/IbIn3uQhvqT23SX/hMRbSY+Refe4ZpEacGZXIv0V/16tXcQK1SyLpcqVJFF+/8Ur9x1nP9CpSudNqaKI8WhkqBn7VuQWHnbbdOqPxWcSEQr7jwHOvavaePZNPC+cVr981oCzMT1Z/sdX2GTj/pOK+ALl26zEaPGRcz6zPOmi0r/6knHBszTUld0IBNA/uHn3rW1G591vSnAbt8wIPZP7m0dXPx7Y8+9ZxCz0822zklzMd+1uy5/vkLX5OhujJ5tvXdec9tN7nv0nvduofx9vFnX/k/hcys6gwC4ftWaACj7zENehEIQAAC5ZUALjRp9Lymi7t3vcopsFf4nR1lcZaEK+9Sonbcbhu77vKLfJzmaNXoh/fJ/93t0wU/hpril/Iua6AiZNzf41a/2C/RYi39eN587RU+rKN2kpQyqB94+amrfYq8cbdzTdh/7z1cqLwNojUn5XNaOPjco/f7BYf6UQ0kXHmXq80JRx1uB++3d3A5L16z1Yfp3IyspY/17mld3CyM+lV9Jb/fQHmXMrvNlptHXcwn5e3FJ/7nZ1yCxcNS7vTcSJFXqMF7b7/JW5KjDQDSaW+sPPJ1D9/Z9IB99oyVtNB5Wdf332t3f7+P9XnBLrrmxqTcsFSIot0MHvaTxYoXX6gi90aRki64sqtX3rV+Zfutt/TsDt5/b9OfZq5222kHty6lvR9EyLqrQU+wo2xkeSX9/qhDD7Rbr78qNMui+jVg0rOiRcHnnn6y3XVLV+9DXpz9veN2W4dufYvNNnHx1auH3ocfZPJsa+bj/p7d/eyewnpKZLQIlHfF+Vd/PfNwb+8+E14vxxCAAATKG4FQxGCnQGR/pVuSNH/5dYxP2cn9MJRGETotKtR24lKitFFSQ2c9i9xwJtG9KSSefpzbtm7pFsvWTpQ87vVly5bbpClTvKtAm5YtitXCGTREVmFN48uNSAz0g5wv7ghBG2O9ZqsPY5Uf77xcJBRFRO5IWswpJV3hOhOJlDg9Lwo3KHcZhWnUYKAk5fpbe5g2cNLzOuCFJ1OKSKRY8k8938/7wmvWZqtOm3ulVPehaEG6Jw1A5W40e+5c74418pffvFL30pMPuc2M/ovqE+2e5XZx1iVXe2uxBheKWR+EXI2WXp9hRauRu5r88R+7r2e0ZDk7J5c0+YjL1UqKcqrfL5k2fNKUP/yszo7O7zxamNBo5af7bKss9d+sOXP8Gmy5PSXzmYjWBs5BAAJll0Bp1x8z6ZnQrz0KfCYYyQuB8kdAg4cu517ircFahKh1EamKZg4ef+ZF++TLb5LKqgGKwlj2dFZnzaLEk/seedK76chy29cp/MkonY8984IpQpBmrT58rW+JD4ji3Q/XIAABCECgMIHyrMDjA1/4WeAdBCCQJAFFwtEsgJRqLQxOR2S573rlJXbaicf6RZnTps80LWDUqyzhtZ3bizb60UyO4oMr6kj4rp/x6hw7oSByS8eN2iWlvKusYCKyZo0aKO/x4HINAhCAAARySgAFPqf4qRwCpZOAwvm9/vb7vvE777Ctc+lokdGNyB3Gu8R0zqiYQpmlhEu0aVQyIn/rwT/+5JNu1rFDMllIAwEIQAACEMgJARax5gQ7lUKg9BKQ20uv/z3iF0nL+q7FuPkoij4j0W6u37rNnOKJ/Mu73naX9zHXPWmRLQIBCEAAAhDIVwJY4PO1Z2gXBPKEgCK5vPX+x34X4tFjxvrFpEGkIYVn1ILPfJTjXfSj7wYP85Fouve6z0fo6eyiqTSoV88UJUqWef1p7wSF5gyiAF1+wdm2c+ft8vGWaBMEIAABCEDAE0CB50GAAATiEliwcKG98+HAQmkUwvLYww/xvuuFLuTRm9q1ato9t3czharUxlhS0vUXTRQFZyfnCnTkwQeYwrsiEIAABCAAgXwmgAKfz71D2yCQBwTkm65Fpgrrt9b9U4hH7Qir13wXbZjWvevVPgyl4sfPdbsky11mtdsBuZ4LU6kFsbLIa9fbhg3q5/vt0D4IQAACEICAJ0AYSR4ECEAAAhCAAAQgAIFSR6A8h5FkEWupe1xpMAQgAAEIQAACEIBAeSaAAl+ee597hwAEIAABCEAAAhAodQRQ4Etdl9FgCEAAAhCAAAQgAIHyTAAFvjz3PvcOAQhAAAIQgAAEIFDqCKDAl7ouo8EQgAAEIAABCEAAAuWZAAp8ee597h0CEIAABCAAAQhAoNQRQIEvdV1GgyEAAQhAAAIQgAAEyjMBFPjy3PvcOwQgAAEIQAACEIBAqSOAAl/quowGQwACEIAABCAAAQiUZwIo8OW597l3CEAAAhCAAAQgAIFSRwAFvtR1GQ2GAAQgAAEIQAACECjPBFDgy3Pvc+8QgAAEIAABCEAAAqWOAAp8qesyGgwBCEAAAhCAAAQgUJ4JoMCX597n3iEAAQhAAAIQgAAESh0BFPhS12U0GAIQgAAEIAABCECgPBNAgS/Pvc+9QwACEIAABCAAAQiUOgIo8KWuy2gwBCAAAQhAAAIQgEB5JoACX557n3uHAAQgAAEIQAACECh1BFDgS12X0WAIQAACEIAABCAAgfJMAAW+PPc+9w4BCEAAAhCAAAQgUOoIoMCXui6jwRCAAAQgAAEIQAAC5ZkACnx57n3uHQIQgAAEIAABCECg1BFAgS91XUaDIQABCEAAAhCAAATKM4G8UOArVaro+2DVqtXluS+4dwhAAAIQgAAEIACBJAgEOmOgQyaRpUwlyQsFvlrVqh7qgoULyxRcbgYCEIAABCAAAQhAIPsEAp0x0CGzX0N+l5gXCnzDhg08pVmz59icufMsGFXlNzpaBwEIQAACEIAABCBQkgSkI0pXlM4oCXTIkmxDPtRVIWjEWifBcS5e1Rl/zZqdi6qpEwIQgAAEIAABCECglBFo2qSxNVpnBC5lTc+4uXmjwOtOlixdanOdIr9s+XKs8Bl3LQVAAAIQgAAEIACBskVAPu9ym5HlvUb16mXr5lK4m7xS4FNoN0khAAEIQAACEIAABCBQLgnkhQ98uSTPTUMAAhCAAAQgAAEIQCANAijwaUAjCwQgAAEIQAACEIAABHJFAAU+V+SpFwIQgAAEIAABCEAAAmkQQIFPAxpZIAABCEAAAhCAAAQgkCsCKPC5Ik+9EIAABCAAAQhAAAIQSIMACnwa0MgCAQhAAAIQgAAEIACBXBFAgc8VeeqFAAQgAAEIQAACEIBAGgRQ4NOARhYIQAACEIAABCAAAQjkigAKfK7IUy8EIAABCEAAAhCAAATSIIACnwY0skAAAhCAAAQgAAEIQCBXBFDgc0WeeiEAAQhAAAIQgAAEIJAGART4NKCRBQIQgAAEIAABCEAAArkigAKfK/LUCwEIQAACEIAABCAAgTQIoMCnAY0sEIAABCAAAQhAAAIQyBUBFPhckadeCEAAAhCAAAQgAAEIpEEABT4NaGSBAAQgAAEIQAACEIBArgigwOeKPPVCAAIQgAAEIAABCEAgDQIo8GlAIwsEIAABCEAAAhCAAARyRQAFPlfkqRcCEIAABCAAAQhAAAJpEECBTwMaWSAAAQhAAAIQgAAEIJArAijwuSJPvRCAAAQgAAEIQAACEEiDAAp8GtDIAgEIQAACEIAABCAAgVwRQIHPFXnqhQAEIAABCEAAAhCAQBoEUODTgEYWCEAAAhCAAAQgAAEI5IoACnyuyFMvBCAAAQhAAAIQgAAE0iCAAp8GNLJAAAIQgAAEIAABCEAgVwRQ4HNFnnohAAEIQAACEIAABCCQBgEU+DSgkQUCEIAABCAAAQhAAAK5IoACnyvy1AsBCEAAAhCAAAQgAIE0CKDApwGNLBCAAAQgAAEIQAACEMgVART4XJGnXghAAAIQgAAEIAABCKRBAAU+DWhkgQAEIAABCEAAAhCAQK4IoMDnijz1QgACEIAABCAAAQhAIA0CKPBpQCMLBCAAAQhAAAIQgAAEckUABT5X5KkXAhCAAAQgAAEIQAACaRBAgU8DGlkgAAEIQAACEIAABCCQKwIo8LkiT70QgAAEIAABCEAAAhBIg0DFNPKUqSwLFi6y2XPnWoN69axB/XoJ7+3HET/b0mXLbIOmTWyjtm3ipv9r1mz7c9Ysq1G9ujVvtoF/jZuBixCAAAQgAAEIQAACEEhAIO8UeCnUq1atStDswpcbNWxQ+EQK74b+NMJeHvC2HX7Q/nbUoQfFzTl2wkR7tM/zVrVqVbvluitjptU9PPl8Xxs7fmIoTaWKFe3he3pYlSqVQ+c4gAAEIAABCEAAAhCAQKoE8k6Bf/ipZ2zylKkp3cfj9/eyqlWqpJQn1cRr1qyx/q+/Zeuvt55dcOaptkGTxjGL6PvqAK+8t2qxoe231+7275p/bdWa1SjvMYlxAQIQgAAEIAABCEAgWQJ5p8B32nQTa9qkSaH2z5kz1yZM/t1kad+oXdtC1/Rm/fXXL3Iu2yfe/mCgzfxrll1w9um25eabxix+/t8L7Keff/HuOLLSr+cUfgQCEIAABCAAAQhAAALZIpB3CvyRhxxY5N4GDf3RK/AbO+X9nNNOLnK9JE7UrlXTrrn0Auu4Ufu41c12gw1J+zatUd49Cf6DAAQgAAEIQAACEMgmgbxT4LN5c2v+/dcXJ7eXTEWuMKtWr05YjPzfJTVqVE+YNkigcuUjn46km3e1q7NimnWm007yQAACEIAABCAAAQhkh0B6WmN26i6WUtauXWsfffaF/TTyF5s6fYavo9kGTW33nTvb3rvvmnKdf7pIMm+8+4H9/sdUk3tMvbp1rF3rVnbCMUdYw/r1Q+VNmTrNfhg63Ib/PMqfGzzsJ/tt3AR/3KhBfbvq4vNDaXXw+dff2dDhI2zazJm2fPkKa9yoobVt1dKOPeJQq1+vbqG0ejNoyI/23sBP7aKzTrd67vqAd973sxJ/OreeypUrOZ/8JnbYgfvZNlt2KpI3ODFn7jx/L39Mm26z3ExB1apVrEXz5rbT9tvanrvuFCTjFQIQgAAEIAABCEAgjwmUKQV++YoV9ujTz9voMWOtoVOat992a9PiU0WD6fvqG/br2PF26XlnJd0dw0eOsj4v9reVLirOJh02si0229QUGvJHd/7XcePtsvPPDrnUTJj0u/29cKHVqV3L5s3/22rWrOGU42a+rrq1a4fqXLZsuYtk85xvS80aNUxuQTXc67QZM+yHYcNt1K9j7Lwzuvi6QpncweKlS3zdw0aMtGEulOXixUusbeuW3lVn1pw5Nm7CJHv4qWft9JOOj6qMa7DwXL9XTYy0uHanHba1RYsW+4HJCy+/5uu94MxT3GCAKDnh3DmGAAQgAAEIQAAC+UagTCnw7w/8zCvvnbfbxs459aSQi4jitj/4eB+/uPT7IcNsl87bJ+yHxUuWWJ++L9u/zqLf7erLnLLcKpRHseAVTvL5/q9Zj5uu94to5WKjP/nrT57SzzbfpKOdesIxoTzBwbsff+KVdy2EPf+MU61atarBJRvilOxnXZ1PPd/PenXvZjWjuOG89/Gn3sp+zqknF8r7zaDBXkF/4933bTc32xDuNrRw0SJ/ba2t9QOYcCv9kiVL7bFnXrARo36xDz/9wqKtQQg1kAMIQAACEIAABCAAgZwTyNw5POe3UNAAKamffvmNf3PMYQeHlHedqF6tmp3oXF4k7330iX9N9J8U5eXLl9v2W29ZSHlXvu3cOSngs2bPsaE/jUxUVOj63Hnz7bOvvvUhL889vUshBVyJOrsZg71338WWLF1q7340MJQv/EBx5M/sckKUvNt4P/rFTiFXPeGiCDqyvO+35x5FXGzkq3/BWada5UqVnOvRlxb48Ifn5xgCEIAABCAAAQhAIH8IlBkFfsy4ibZy5Urv6hJtY6fWLVt4pV6+33KJSSSjRv/mk8h3Ppq0a9Pan54+Y2a0y1HPjZ802bR4dPtttoy5K2vgpy9XmmiiKDhyvYkUKfYd3DVJpAL/m3P3kcTyc69Vs6Ztt81Wnt84t1kVAgEIQAACEIAABCCQvwTKjAvN7LkF4RvlG/7Esy9GJb5ehQr+vBZzNncLW2PJvy56zRxnxa7g0n/xzff+LzLtbFeGJAgbGXk92vsgbaOGDaNd9ufku6+49lLC1Y7IOPL169WLmbdmzYLIN2vcplGBKBLPPFeWIs40qB87bxO3iFaiAQ4CAQhAAAIQgAAEIJC/BMqMAq+FoxIp8ooWE00qOTcR/ckKHk/kjqPFr1LgR48ZFzNpjerVbb0UNpH6e8FCX5YWusYS1VnLLYCVK4vaUa9u4Yg0upaKLNK9OCW+Xpw6VV6ddQttA46p1EFaCEAAAhCAAAQgAIGSI1BmFPhAsT3y4APtwH33yoigosJIqriILI/c2yOjssIzN23cyL/9x80SxBP5sRco8jXjJUvqWt06dbzPvWYm4snixYv95XiDi3j5uQYBCEAAAhCAAAQgUDIEyowPfJPGjT0xxW3PVLSgU+4mWvj594Lo1vx06mjj4rxLIn3Uw8uS1V0zBA2cq0w2NlrSQKBVyw39JlQqO5bIZUjSZN0gI1Y6zkMAAhCAAAQgAAEI5JZAmVHg27mY6FJWFeJRoREzlfZtWvsivvruh0yLCuVv7RRpiWK5r1ixMnQ+/OC7wcP82/btWoefzui4jVvAK/nebQYVTdSW4SN/9vzCw2VGS8s5CEAAAhCAAAQgAIHcEigzCnyw26pivj/9Yj8fijESrfzaFfoxGTnm8EN8WMaPXWjFEaNGR80iS7qs9MlK1apVbd89d/MDjJffeNv7pofnnTJ1uqk+Wd6POuSg8EsZHe+x685us6jq9pGL865dWMNF/vH9B7xlctvZbafObkfXgpmM8DQcQwACEIAABCAAAQjkD4Ey4wMvpMcdcZhN/mOq/exCQHa7o5dt2mFja+yiq2j307nz59uY8ROs06ab2IVnnZawBxSK8sRjjrT+r79pDz35jHVo385atmhu1ZwSrh1Xp06b4ZXhHjd3tWZNmyQsL0hw8rFHObechfb19z/YlKnTbLOOHfyi1Wkz/7RhbiMnKdQnHHW4b3eQJ9NX+d5feeG5ds+Dj1mP3g/6HWpbNNvAFjm/91/dIt2p02eYBkBHH5a9QUOmbSY/BCAAAQhAAAIQgEB0AmVKgZeV+dbrrnKbIH1i2pn0h2HDC911O7eb6rZbdip0Lt4bbarUrk0rp8S/5XZX/cPGTZwUSq5dUnfbaQcXvSV2RJlQ4rADufmcf+ap9tpb79p3PwwNWcQVOnJDp1R3Of5o26htm7Ac2Tls16a1XX7hOTbgnQ9skNuNNhDFgNcOsscdeZifcQjO8woBCEAAAhCAAAQgkJ8ECgKju7atdZKfTUy/VdrRdM7c+Va1ahWrW6e2j8aSbmk+NryL/b7CbRZVu1Yt91ezSIz2VMvWYtW5LvylXHsUhz0bi1aTacM/zvKuUJuKUJPqACSZ8kkDAQhAAAIQgAAEIFB8BMq0Al982CgZAhCAAAQgAAEIQAACuSFQZhax5gYftUIAAhCAAAQgAAEIQKBkCaDAlyxvaoMABCAAAQhAAAIQgEBGBFDgM8JHZghAAAIQgAAEIAABCJQsART4kuVNbRCAAAQgAAEIQAACEMiIAAp8RvjIDAEIQAACEIAABCAAgZIlgAJfsrypDQIQgAAEIAABCEAAAhkRQIHPCB+ZIQABCEAAAhCAAAQgULIEUOBLlje1QQACEIAABCAAAQhAICMCKPAZ4SMzBCAAAQhAAAIQgAAESpYACnzJ8qY2CEAAAhCAAAQgAAEIZEQABT4jfGSGAAQgAAEIQAACEIBAyRKoWLLVJVfbkqVLbe7cebZs+XJbtWp1cplIBQEIQAACEIAABCBQLghUqlTRqlWtag0bNrAa1auXi3sOv8kKwZu1ToLjXL7OcYr7X7Nm57IJ1A0BCEAAAhCAAAQgUEoING3S2Bo5Rb48SV5Z4GV5l/JeoUIFa9K4kdWtU8c0wkIgAAEIQAACEIAABCAQEJCHxoKFC23W7Dled6xevVq5ssTnlQ+83GYkUt41kkJ5Dx5TXiEAAQhAAAIQgAAEAgLSEaUrSmeUBDpkcL2sv+aVAi+fd4ks7wgEIAABCEAAAhCAAATiEQh0xkCHjJe2LF3LKwU+WLCK5b0sPWLcCwQgAAEIQAACECgeAoHOGOiQxVNL/pWaVwp8/uGhRRCAAAQgAAEIQAACEMgvAijw+dUftAYCEIAABCAAAQhAAAJxCaDAx8XDRQhAAAIQgAAEIAABCOQXART4/OoPWgMBCEAAAhCAAAQgAIG4BFDg4+LhIgQgAAEIQAACEIAABPKLAAp8fvUHrYEABCAAAQhAAAIQgEBcAijwcfFwEQIQgAAEIAABCEAAAvlFAAU+v/qD1kAAAhCAAAQgAAEIQCAuART4uHi4CAEIQAACEIAABCAAgfwigAKfX/1BayAAAQhAAAIQgAAEIBCXAAp8XDxchAAEIAABCEAAAhCAQH4RQIHPr/6gNRCAAAQgAAEIQAACEIhLAAU+Lh4uQgACEIAABCAAAQhAIL8IoMDnV3/QGghAAAIQgAAEIAABCMQlgAIfFw8XIQABCEAAAhCAAAQgkF8EUODzqz9oDQQgAAEIQAACEIAABOISQIGPi4eLEIAABCAAAQhAAAIQyC8CKPD51R+0BgIQgAAEIAABCEAAAnEJoMDHxcNFCEAAAhCAAAQgAAEI5BcBFPj86g9aAwEIQAACEIAABCAAgbgEUODj4uEiBCAAAQhAAAIQgAAE8osACnx+9QetgQAEIAABCEAAAhCAQFwCKPBx8XARAhCAAAQgAAEIQAAC+UUABT6/+oPWQAACEIAABCAAAQhAIC4BFPi4eLgIAQhAAAIQgAAEIACB/CKAAp9f/UFrIAABCEAAAhCAAAQgEJcACnxcPFyEAAQgAAEIQAACEIBAfhFAgc+v/qA1EIAABCAAAQhAAAIQiEsABT4uHi5CAAIQgAAEIAABCEAgvwigwOdXf9AaCEAAAhCAAAQgAAEIxCWAAh8XDxchAAEIQAACEIAABCCQXwRQ4POrP2hNmgRmz51rS5YsTTN3Qba1a9farNlzbPGSJRmVk++ZV69ebXPnzbc/Z822VatW5ay5q1w7Zv41y5YszazfcnYDVAwBCEAAAhDIEYGKOaq3zFT777//2mVdb7GJk37399Sr+422VafN0rq/74cMszvu+Z/Pu/mmHaz3HbekXM6Ad9639wd+lnI+Zdhu663sknPP8Hml5J1z2TX+OJ3/etzc1Zpv0DRu1pl//mX3PvyE/b1gQaG642Zad3H6zD/t7Q8+tgmO++QpU0NKYJ3ata1dm5Z26gnH2pabb5qwqM+/+c6GDPvJpkybblOnz7SVK1f6PDVrVLcNmzWzYw4/2PbefRerUKFCwrJiJUi2X1e4us+/4rpYxRQ5f+HZp1vnbbcucj7aibHjJ9onX35jg3/8yf5yinu4NGxQ31577onwU1Zc/a8BUt9X37BhI372gwgNmiS1a9W09m3bWJfjjrKtt9i8UFt4AwEIQAACEIBAYQIo8IV5pPzuhZdft9/Gjg/lk0KfjkiJ7f3wk7ZynUV05arV6RRjCxYu8opoOpnbtGoZyia1SgpturIqQful1N79v0edtbvA+tq65X91x6tz+YoV1u+1N+21t99z1uOijBYuWmQ//Tza/+21287W7erLbL31ik40DftppD39Qn+b+PuUqNWpXWMnTLQe9z1k/Qe87QZTN1u9unWipo13MpV+TbXvli5dFq9qf+2fxYvt4aees8+++rZIWg1KpEAvWvRPkWvF0f/vfvSJPfL0835wEFRYuVIl/8wv+mex67Nf/N8uO25vt3W9Omq/Bfl4hQAEIAABCJRnAijwGfT+r05x7z/gLatWraotW7Y8g5LM7nnwcZPymWlZnTbbxE5Yk/wgYsHChTbwi6992zdo0jh0D+s7pfeEow4PvU/m4LshQ23GzL+scuXK1qB+3ahZNMDp0/dle+WNd/x1KdfJDnqU7qKrb7ApU6f7vK1abGiHHLCPtXUDDx0vXbbMK93P9XvNW5m//HaQtWjezM44+fhCbZk2Y6bd1OMePwCQErv7zp1tp+23tebNNrBmTZv4ciZP+cMr7uMmTLLf/5jqFPkH7Z7bbkpZqUylXxe6wVcgB+y9h9WpUzt4G/W15YbNop4PTkopvubm223i5Cn+lNIfesC+poFa29YtndW7lnejibTIK3G2+3/kL7+6gcSztsY9m00bN7IzTznBdthmK9OMie83N0PwvBsMj/5trH0/eJgfXJ1/5im+3fwHAQhAAAIQgEBhAuVOgZcF15kdrUqVKhm5RUhh73n/Q14h6XLc0dbnxf6Fyabw7p0PB9qQ4SO8y8mWnTa1Dz/5IoXchZPKpSJZtwrlfOalV3wB66+/vh156IGhwqRYp6JAyW/83Y8/8fn332t3q1WzZqis4ODvBQvt9nsesJ9H/+ZPHeXqk3L5i1PakhG1Scr4PQ897lxkjrFjDz/E1O5AGlg9r7DvtuMOdu7l19kM56LT7/U3bX+nDEsxD0RK/QVnnmajx4z15bRu2SK45F9laZf7z66unOu797AfR4zyFv1BQ3/05woljvMm1X7VAC6QM7qcYE0aNQzepvV66129Q8r7wfvv7dyjzrSq7rkPlw3doEV/kZLt/n++/2v+s6Ln4oGe3a2JU+IDqV6tmm2zZSfv8nTFDbeaBsaaYTntxGP9gDZIxysEIAABCEAAAgUEivoWlHEyR3Y52w4+/jSbMLnAZz3d233k6efsz79mO7/d1raP85FOV2QNfuK5vj77eWc4i2OBS3C6xaWUb/ny5fbuhwVK95677mSNG6avMEpZ1aBGFu3jjjy0SDvGTZxk5zn/binvUrovv+Bsu/S8swq5UxTJFOXE7jvv6P21NTsQrryHJ61ataqdfepJ/pQsvmPGTwi/7I81eLj52issUnkPT6h7OV99sk7GT5wcHCZ8TadfF4Qp8PUSWN8TNUD+7sFASYOday65oIjynqiMVK7H63/NnGitgkTPWbjyHl6H+jN4duTaM2Fy8rzDy+EYAhCAAAQgUNYJlDsFPhsd+u0PQ+2jz750CuR6ThE9x1avWZNWsWtcvh69H7IVK1Z6q/luO+0QWkSZVoEpZtJiV/lISwLFKcUifHJFMnnzvY/88Y7bb+Ot4JHlyKqthZFymZA/+REHH+CTBD7/kenjvZfFNpF02KhdKIkWuaYrcs2RIi9Jdk1Auv0auNBUcwMQuSFlIn1fHeCz16ldy048+ohMikqYN1H/a3ZmmRssSpo2+c/yHq3gpo3/c+OaM3d+tCScgwAEIAABCJR7AuXOhSbTHp//9wK7/9EnfTEnH3uUbdZxY+8jnU65cisYP2myV2qvu/xCX0Q6Cm06dUvJfP2dD3xWRWvZuF3bdIrxeT7+/CsXSWahPz7+yMOiliPr/m03XOPdQsItsCtXFn8Yw/XWKeBRG5bg5F8uakoQKUXRWpKRdPt14brFpHXrxvd9T9QGRZzRWgSJZiq0rqI4JVH/y9e+evVqpkW3f6xbvxCrPX9ML1jfoOsbNi/q2hMrH+chAAEIQAAC5YkAFvgUe/vuBx9zi03/sY4btbfTTzrO505H6Zb/9cvrFnJec+n5LsJJwaLPklBo1ejPv/7O5syd59t//FHRlW5/McF/Um5fe+s9n0qDgHihG7dwC2zDlXdl+ndtwYLbDHTsqC3UItRAmiUIZxmki/aqsIuBdNgo8SAnk35VFBpJXTdLkYl8O3hoKLsW+RanJNv/Wigs+fK7QfaHC9kZTTSofNlF/JG0a9Mqo0FltPI5BwEIQAACECgrBFDgU+jJt97/2BR+UAsBb7z60lBEkrX//ue4HrhbxCtWUTd63v+Ij76ixYW7dN4+lDyk0IbOFM/Bq2+96wtWZBJFYElXvhk0xC8WVf7jjirq+55uuZnmGzV6jC9CizG3TjMu/69jxlkfF2pS0qZVC7fWYVd/HOu/TPv1Pwt86uEqw9sU7Ekgd6XIxcRz58/3CrSU5WxIsv1/ilvordj6Cv155Y3dfbjI8PoVMee6W3v4CENVqlT2aySS+SyFl8ExBCAAAQhAoLwQwIUmyZ6W1fDJ51/yqS88+7SokTuSLMrH5VbovubNmtol55yRbLaspRvsNi76/Y9pvrxjj8hM6X7lzYJwkI1dxJS9dt05a23MpKBZc+baOy7muGSnHbZ1ftf/+VUnKleK5PSZM/3i3s+/+d5FTlnjQ1TK/UeDgXiieOuZ9GuwiHXqtBmmCDJz5/9t892fdixVFB39dXAzP4c6q3olFz89lkxaN/vQYp0LimYFXnWzJAqJqR1YJRUrVvRrFU45/mhTvPx0Jdn+1yzInTddbzfcdpffq+Cam++wHbfbxk485nAXDchFnXEDSrHXhk5ivfkmHdNtEvkgAAEIQAACZZ5AmVTgtUW8rKfRJIg5PuTHESZFKVI2cEqS/NrDRYsve97/sF9gKoXwsAP3C7+c0vE3gwbbQOczrogbN155qSliSklLoHTVdZFOFPIxXRkxarRXCpX/mMMOTqjgpltPqvmecgMt7ahaqVJFO/3EAjenWGUorOhJZ1/kL8t9KVhsqRMbt29r++6xq4+dnqifstGvS9ZtaqXwl/oLF629GO2eaUWX0ezJWaecGLXvpOwrrUQ+5H4X2Hsf9Dxk0d6gaWOvQCtikOLb33Hv/+wr59Zyk4vIU8kp9alIqv0vF6qnH7zHerkNvHQvck8Kd1E6cN89XXjPU318+lTaQVoIQAACEIBAeSOQ2i92KaHzy69jvJIQr7nP9Xs16uX9nEIbqcA/5xabKgyeIqlce2nBYtOomROcnOesqfc/+pRPJcvnJh02SpAj+5d/GzfeRjk+EkWCySTaSbAZU43q1f2GStlvbeolvvX+R6YNnCTnnnayD/OZqJTAdSUynQZZ8kv/Y/oM69D+v6g2kemy1a89b77e+r72htWqUdPPztR36yIqO3cSWeE1q/DD0OF+o6rZ7rjXA4/4ZkQOwJYuXRpqnizunzqFXxs3KaymnuuaNWr46wpz+eATfXx8e0VVUl8q3GQqkk7//+vWTARtiKxr0u9/eBcaKfoIBCAAAQhAAAKxCZRJBV5RL8LDCIbfvmJ5a+GdwgNWrVp4UxulC9+NVO+l7L76ZoG/uJR3Wa3TlbsffNS7CUhxT1VZSrfOyHyvvFFwL1LcjzykIJRjZJpk3k/6fYoNG/GzTyo//mRCOyZTbiZpZG1+7JkXfBE777CdJeMeVNm5otzZ7TqfZ+WqlT6aznwXUWeMG+iMGPWre51gr7j+1wzDuaef7F1PItuYrX7VAl/Fa48lemaGOKt197vv96FHpYBv6p6l8I2YljrLeiByk9KM0c3XXF5kpkebWfW+4xbvj6548f1ef8tb9CMXGQdlRb6m0/8aXD3+bF8fTlSfo5OPO8pvmKUQpMNHjvKDZG3kpOfpqovOy5sZnch75z0EIAABCEAg1y+6F2EAAEAASURBVATKpAKvWOT6iyYHHnuKdye44apLEka50KJEWTrldiO3mVhlRqsn8tyb733od/RUSL9uV/23ADYyXXG+l9VVSq5EllstckxXpNRKZKU+5vCD0y0ma/l+dIMJ7fKqjZtkwb3luiuSKlt+7Tt33i5q2lkuhGTvR570yuXr77xvNWtWdwOvYwulLel+7ez8xrUBVu+Hn/AbZ3346Rd23uldCrUpeKPFoNqsKnL31eC6XpX34mu7+c/Ej06JPmT/5KLWpNr/GgQHa0i030HXKy4JhbfUImr57d/rdtjVAFs7Ec+fv8D5zF+HEh/eWRxDAAIQgAAE1hGIvyqvnGN68IlnTHHAZa286JzT06YxxcW+fmpdNJOL3aLVTMIapt0Il1G+05p9kC90Jhs3SbGV37Rkj112zGgHV19Ihv/Jgnxzz3t9hBPNvPS8pWtGrkFBc2SNvqPbtda+TWt/qt/rb/sZlOB6rvr1oH33MinnkkmTp/jX4L9GLlZ9sNh2h222iqu8K494aUGrZKpzFUpGUu1/+fP36fuyL1oLZrVINTI2fbvWreyx3j1N9yaRb7w2GkMgAAEIQAACEChKoExa4IveZupn5Doj/2FJHTfd//BTz8YsJNhBUwkUE/3zb77zaRUr/tAD9vV5tahSllD5oOsvlgTRYaT09H7kiVCys92ixSBWfOhkCgda2BjcT6zdUpMt7rW33/OWbqWPtXFTsmVlmk79dOPtvbxLSdvWLe3u7t2y6s6jPttj1x1tonMZUh8qvvxW68JS6pnIRb9qANa6ZQu/gPj3qQXRhAKOUsYb1Ktrc1y0mUYNGwSnY75K2W/s0s38a5b/i5kw7EKq/T/AbRimaD5yV9IANpaoLVdceI5f4KrZIg04Dz9o/1jJOQ8BCEAAAhAotwRQ4GN0/cJFi0JXRv821vSXjAwZPiKUbPnyFV6BDzboUcQTuQckI1K4w9NqR81MFPgB737gLdSqOxOle9E//9hHn37pb8Hv4OoiteRKfnF9orCEihyzUbs2du/tN/swhNluj5TlQGR9DiSX/RrsLhtt0yfNHEiBH+sWsSYjixYv9smilRWZP53+D8JatmzR3Oq7wUU8UXhMDTClwP/512xb7vo2UQSgeOVxDQIQgAAEIFAWCaDAx+hV+YcHltYYSUKntUX8+EmT/Xu5W9SsWRDpQwtlJR2dm0Kd2rX8caL/ZOFVPGxtetO+bZtQ8nh+zKFEMQ7ky//eR5/6q4l2S41RROi0NrPSQESSyQ6uoQLTPFBs86639fTKu9xA7r39ppjRTdKsIpQtPKRj+ILRXPar3HckbdysQ6Qo6ozCNE507jWyfGudQixZvGSJLV68xF9usWGzWMlC59Pp/xXrnpdY0WdCha87UFSjQNa49ScIBCAAAQhAAAKFCaDAF+YReqeFkPf3uDX0Pt7B2PET7aJrbvRJtMnT1ltsXij5tZclH3pSSunQ4SN96L9k6y9UWZQ3Ut6XrAsvmMluqSucC8nbH3zsa8h0B9cozUz6lGL8X9/dKe/LltumLjTi3d1vtHClL+mCkkw40kWjkcjFo13b1v5Y/+WqX7UQOYhX365Nq1B7goNjjzjEPvjkc+/e8/YHA+MuMv7qux+CbNayefPQcbSDdPtfbVQYVoWJTEa0kFWijauKs1+TaQtpIAABCEAAAvlIoNwtYlVs8AvPOs0aNUjsH5yPHZZqm7QJldxnJJnuliqXniBmejIhGlNtazLpfx073q6X5d0p75027Wj33nZTykqe3DM0K5GMaCFlsNnQVp02TbgoNJkyo6WZ6dY8aOYlkWin194PP+mTacFqsOgzPJ8WXe+5607+1BPP9bWRvxQMQMLT6Fj1vfDy6/60Zou232bLyCSF3qfb/0EM/X+cq05/F64yniicZMB78006xEvKNQhAAAIQgEC5JVDuLPD5EPKwJJ82LVzVRkOSTHZLVShNhVKUZLqDqy8kjf8mTP7dWd57mFyWFIVl1x13sM++/japktq0amGbb9LRp9VOuAPe/dB2dCEZFRVFymvTxg1Dvtby8548Zapp8eUPw4b7PA2dstzt6suSqiudRIqp//gzL9ruLqqPlO9mTZuG2qTBxp9ukennX39nbzoXJi2c1ULWrldeYrVq1oxanWLGa+MnWeq797rPxbDvYvu4XWXliiW3GSn1Dz35bOjZuPyCs+O62mTS/wfvv49fNyE3s2fdBmpz5s2zE48+wsJjzuse33b39rLbUEp1yVf+fLcrKwIBCEAAAhCAQFEC5U6BL4qgbJ9RJA9JprulfunCRsr6K8l0B1dfSBr/aYddKe+SFStWuk2BXky6lKMOPTCkwCuTlOBvBg32f0EhUoblJqJr4dK8WVOvvGeyiDi8vFjHK1etss+++tb/BWmqVa0acpcJzmlH4PPPOKWIq1ZwXa8alDx8z512U497fL/d5+LZaxdg+aHLEh6IIsOcc9pJCdd7ZNL/lVxknO5dr7Irbuxu2kX2nQ8/8X9a56FIOZrV0aLtQDRAvOW6K/3Ox8E5XiEAAQhAAAIQ+I8ACvx/LMrckXylp06f6e8r091SXw3bwVUKfGkWuf/Inejr7we7nXZ/C4XEDFdsK1Wq6NchKGKPLOJBbPXiuu9999jNFz3w869d9JiJoWoCX3fVL5eZvZ0VvYvbwTSZnW8VVvOJ+++yR/u8YIqVL+U5uEfNYGzm1g9oU6hgsXWo0igHmfZ/0yaNre+TDzlL/Bc+PKQizCxestT/BdVpobfCRp5w9OFJ3V+Qj1cIQAACEIBAeSNQIbhht8HP2uA4V6+ysEo6uQWkCARKgoAs7n876+8CFzZUPuG1nIVarh2Jwh0WZ9vUJlmk/16wwJY4JVeDDS3oVIjFTETlKXpNUJ7ccHIlukeF5Jw9d57VdjMfzTZoUmxRhHJ1j9QLAQhAAAIlQ6A86o+hX3AU+JJ5yKgFAhCAAAQgAAEIQCB7BMqjAl/uotBk73GhJAhAAAIQgAAEIAABCJQ8ART4kmdOjRCAAAQgAAEIQAACEEibAAp82ujICAEIQAACEIAABCAAgZIngAJf8sypEQIQgAAEIAABCEAAAmkTQIFPGx0ZIQABCEAAAhCAAAQgUPIEUOBLnjk1QgACEIAABCAAAQhAIG0CKPBpoyMjBCAAAQhAAAIQgAAESp4ACnzJM6dGCEAAAhCAAAQgAAEIpE0ABT5tdGSEAAQgAAEIQAACEIBAyRNAgS955tQIAQhAAAIQgAAEIACBtAmgwKeNjowQgAAEIAABCEAAAhAoeQIo8CXPnBohAAEIQAACEIAABCCQNgEU+LTRkRECEIAABCAAAQhAAAIlTwAFvuSZUyMEIAABCEAAAhCAAATSJoACnzY6MkIAAhCAAAQgAAEIQKDkCaDAlzxzaoQABCAAAQhAAAIQgEDaBFDg00ZHRghAAAIQgAAEIAABCJQ8ART4kmdOjRCAAAQgAAEIQAACEEibAAp82ujICAEIQAACEIAABCAAgZIngAJf8sypEQIQgAAEIAABCEAAAmkTQIFPGx0ZIQABCEAAAhCAAAQgUPIEUOBLnjk1QgACEIAABCAAAQhAIG0CKPBpoyMjBCAAAQhAAAIQgAAESp4ACnzJM6dGCEAAAhCAAAQgAAEIpE0ABT5tdGSEAAQgAAEIQAACEIBAyRNAgS955tQIAQhAAAIQgAAEIACBtAmgwKeNjowQgAAEIAABCEAAAhAoeQIo8CXPnBohAAEIQAACEIAABCCQNgEU+LTRkRECEIAABCAAAQhAAAIlTwAFvuSZUyMEIAABCEAAAhCAAATSJpBXCnylShX9jaxatTrtGyIjBCAAAQhAAAIQgED5IBDojIEOWT7u2iyvFPhqVat67gsWLiwv/LlPCEAAAhCAAAQgAIE0CQQ6Y6BDpllMqcuWVwp8w4YNPMBZs+fYnLnzLBhVlTqqNBgCEIAABCAAAQhAoNgISEeUriidURLokMVWYZ4VXCFoz1onwXEuX9UZf82ancsmUDcEIAABCEAAAhCAQCkh0LRJY2u0zghcSpqccTPzToHXHS1ZutTmOkV+2fLlWOEz7mIKgAAEIAABCEAAAmWLgHze5TYjy3uN6tXL1s0lcTd5qcAn0W6SQAACEIAABCAAAQhAoFwSyCsf+HLZA9w0BCAAAQhAAAIQgAAEUiCAAp8CLJJCAAIQgAAEIAABCEAg1wRQ4HPdA9QPAQhAAAIQgAAEIACBFAigwKcAi6QQgAAEIAABCEAAAhDINQEU+Fz3APVDAAIQgAAEIAABCEAgBQIo8CnAIikEIAABCEAAAhCAAARyTQAFPtc9QP0QgAAEIAABCEAAAhBIgQAKfAqwSAoBCEAAAhCAAAQgAIFcE0CBz3UPUD8EIAABCEAAAhCAAARSIIACnwIskkIAAhCAAAQgAAEIQCDXBFDgc90D1A8BCEAAAhCAAAQgAIEUCKDApwCLpBCAAAQgAAEIQAACEMg1ART4XPcA9UMAAhCAAAQgAAEIQCAFAijwKcAiKQQgAAEIQAACEIAABHJNAAU+1z1A/RCAAAQgAAEIQAACEEiBAAp8CrBICgEIQAACEIAABCAAgVwTQIHPdQ9QPwQgAAEIQAACEIAABFIggAKfAiySQgACEIAABCAAAQhAINcEUOBz3QPUDwEIQAACEIAABCAAgRQIoMCnAIukEIAABCAAAQhAAAIQyDUBFPhc9wD1QwACEIAABCAAAQhAIAUCKPApwCIpBCAAAQhAAAIQgAAEck0ABT7XPUD9EIAABCAAAQhAAAIQSIEACnwKsEgKAQhAAAIQgAAEIACBXBNAgc91D1A/BCAAAQhAAAIQgAAEUiCAAp8CLJJCAAIQgAAEIAABCEAg1wRQ4HPdA9QPAQhAAAIQgAAEIACBFAigwKcAi6QQgAAEIAABCEAAAhDINQEU+Fz3APVDAAIQgAAEIAABCEAgBQIo8CnAIikEIAABCEAAAhCAAARyTQAFPtc9QP0QgAAEIAABCEAAAhBIgQAKfAqwSAoBCEAAAhCAAAQgAIFcE0CBz3UPUD8EIAABCEAAAhCAAARSIIACnwIskkIAAhCAAAQgAAEIQCDXBFDgc90D1A8BCEAAAhCAAAQgAIEUCKDApwCLpBCAAAQgAAEIQAACEMg1ART4XPcA9UMAAhCAAAQgAAEIQCAFAhVTSEvSUkJg1K+/2YKFi6xB/fq2WceN86bVi5cstZl//WV1atWyJo0b5U27ctWQWbPn2LiJk6yC+7fTDttaxYp8HHPVF9QLAQhAAAIQKE0E8s4C/8/ixTZn7rxCf/Pm/21r/v03aa6Dhv5oX3zzfdLp8z3h3wsW2JvvfWh/OYUvkcyY+ac9+MQz1vfVN6xa1SqJkpfo9Um/T7G77n/Y3vlwYInWm6+VPf1CP3uu36s2beZMlPd87STaBQEIQAACEMhDAnln8nt5wNv2w7DhRVCtv/761qRRQ2vapLFtt/WWttP22xZJoxOrV6+2Z196xdasWWPbbtXJ6tSuHTVdaTr51Xc/2Hsff2r/LF5ip590XNymv/T6m/avG+ycdcqJ1rZ1q7hpuZg7At/+MNQmTfnDNt+ko5149BG5awg1QwACEIAABCBQ6gjknQIfENysYwfnZtHQv12+YoXNnjPX/po1x7lgzLKffv7FvnMK0KknHmtNI1wx5IawxWab2GKn7NZ2rhplQTps1M4aDq1vm3bYKO7tfPbVtzZ2/ESv5O/Sefu4abmYOwKaUeo/4C3bbJMOdun5Z9l66+XdRFju4FAzBCAAAQhAAAIJCeStAr/bzp2t87ZbF7mBCZN/txdfft1+Gzfebut1n93R7Tpr2KB+oXSXnX92ofel/c2mHTa2e2+/OeFtVKpUya686Fw3gNk0YVoS5I7A3wsW2lGHHmh777YLrjO56wZqhgAEIAABCJRaAqXO9LdR2zbW/YZrbAen3MsyL1/vTGXlypVxi5D/fSo++EFhcudJJd+KFfHbEZQb63WPXXZ0VvrMFq2qzdmSTMpalcV26H4yKS+T+4jGsn3b1rb/Xnskpbxnu+5o7eEcBCAAAQhAAAKli0DeWuDjYVzfuRycfOyRNurXMe7vN+9Ss82WnUJZbr/nAVu2fLnddcsNoXM6GDTkR3tv4Kd2ybln2gbOl/6jz760H0f8bFOmTvNW/HAr99q1a931L+ynkb/Y1OkzfDnNNmhqu7uZgb1337VQueFv5OqjBadTpk33C3FVTr26dbyv86knHFNEaZPby7CfRtp0t/h06bJlVrVKFduw+QZ26AH72ZabF1jSg3bv4+rdd8/dwqvzx1r0+8a7H9gfrs5Zrv6qbvFqi+bN/TqBPXfdqUh6nRCjFs2b2ZldTvD1fz1osP0+ZapvQ726db0b0tGHHezckGpGzR/r5HLH/dW33rMx4yeYoqzUqV3LWrdsYUcecqBVdOsYJGvdv2jy56zZ/j5+/2Oqzf97gefWzvnxn3DMEdbQRdRJVVItL1Umev5efuNta9+mtZ196kkxm/d8/1ddtJnJdvyRh9nWW2weeg6z2Z8xK+cCBCAAAQhAAAJljkCpVODVC1qcuu8eu9n7TiH/5bexFq7AS3GUMhwpi5cucX70s23e/Pn2+dff2Zfffm+N3cJY+dtLyQ5Elv1Hn37eRo8Z6xX77Z21X4ti5V8ui/+vY8fbpeedFSQPvQ4ZPsKed1FFlF9uPZ027WirVq32AwAp1+FhAtU+1SFXoMrO9UVKe906dWzuvPk26fc/QmXqIGi3IvREylBXpyKZqM5WLTb04QgXLVpsUoJfePk1P8i54MxTrHLlyoWyipFCTYrfG+9+6PNu1WkzW+3uc9yESfb19z/4tvW4uatVcusKkpG5jmvvh5/wirvuf+cdtvPcdO+KPrNPlMFHUO7wkaOsz4v9beWqVbaJ8/WXG5D66kd3/lfHSG5RHTdqHyRP+JpOeaky6ejWJixw7jA/uKhHxx5xqB+sRDZsiQud+d3gYaZF2LovSXH0Z2S9vIcABCAAAQhAoOwSSE4zy9P7l9Ir+XPWrJRa+OZ7H5mUzasvOd9bxiMzvz/wM6+8d95uGzvHWVYDxVtK94OP9/EW/++HDLPwhaILFy1yirSi3/zrrdq777xjqFhZ4Rf980/ovQ7e++gTryBv3L6dXXT2aYWi5Sz6Z7HVqFG9UPpobwrqfNVbtDWgCB/ESHF87JkXbMSoX+zDT7/wFvDIMhSe8oOBn9sVF54bsvYrjQYDdzgLvRYMf/HNd3bA3nvqdEIZ8Pb7XnlXlKDzzzglxE33/4ablfjAcY0mi5cssT59X7Z/XbpuV19WKHqOZkge7fO8Pd//Netx0/VeEY5WRvi5TMpLhYkGRXLl+sbNXgwZ/pN3iwlvh46H/DTCD2L0LGl2JZ5k2p/xyuYaBCAAAQhAAAJlh0Cp84EPRx9EoPnTKZqpiCzC557WJaryLiXq0y+/8cUd41xIAuVdJ6pXq2YnOncOiRTwcHnXvZcP+9677+LcbP5T3pWmQoUKhRR0RSH5zM0AyLJ90dmnF7qm9HJbkZtQInn7g4Fe2d5vzz0KKe/KpwHABWed6q37chWStT2ayB0ocNUJrkvRlBIu+WPq9OB03FdZy4c6VyDlPduFsAznpvsXS4UBjSYKkSnXm+1dnZGhL9UOtU/WcZWfjGRaXipMdtups2+S3JyiyffO+i7Zbacdol0udC4b/VmoQN5AAAIQgAAEIFAmCSTWEvP4tmvWqOFbt2RpUXeZeM2WT3ak0hqkHzNuomlRq9wdGjVsEJwOvSqvlFP5msvdI5Bfx4zzh/JrTiTjJ0328eq332arqG4XifIH1+V+I4nl516rZk3bztWh+xk3YWKQrdCr2hBNAj5z5s2LdrnIOd2TLO3bbrWF88GvWuS6lHhZq6PJqNG/+dNaXxBN2rVp7U9PnzEz2uUi5zItLxUmWpCqXWU1KNSMRbjoGZnsYr3LnSgZ959s9Gd4/RxDAAIQgAAEIFA2CZRqF5pAuWwcRdGO112tWjSPeXn23Ln+muLIP/Hsi1HTreeUUYkWjzZ3C1u1cZJ812U1j6b0RxaifBIpfumKotvMc3VqMNGgfr2YxQRWbymT0STc9z/8evXqBS48q1evCT8d81izCpJ49xStLrGb4+5DCr52z422g+7sdby0QDiRZKO8aO1UvbGYyAo/4J33TTsAH3v4IaEmyjdeEljpQxeiHGSrP6MUzSkIQAACEIAABMoYgVKtwGtjJ0nTJk1S6pZ4u7MGiqgUeUVCiSaKt66/IMSf3FOkgEnxkyKaSOR/L6lbJ/1dYhc5Vx9fp4vyEk+Cew3uKzJtqlFmIvMH7+U7LlHUmVgStCX8ulyWtEBY3Eavm8UIvx4c13ADivXWRbEJzkV7zUZ5qTLRWghFHhrsdhAupMCv21FYi3kTSbb6M1E9XIcABCAAAQhAoPQTKNUK/LiJBW4hGzRJ35Id2YW1aha45Rx58IF24L57RV6O+r7mugWnybry1KpR05ejxZbpiiLWyN9cMwXxZPG6yDWxFOtkBhzxyg+u1axZcE9L47gzrVxZ4HJUwf4b5NRY5wZVxS0IfeTeHkFxab9mo7xUmWggtrnbVVVhJcc6VyW5y8h1RjMGissfudFYtJvLVn9GK5tzEIAABCAAAQiULQKl1gd+/MRJzuL5k49KkoyFM9lua9K4sU+qGOLJiqKRyLosX3NFkEkkgZtNLKt4ovy6LiWzVcsN/QZFsjrHErmnSOK5tsTKm8r5QEnVLqOxJLDSh8eBVwhNuQAp8k1wPVb+ZM5nu7xk6lSaXXcsWKQ65McRPovcafz5JBavKl2+9advPP9BAAIQgAAEIJCXBEqlAi8fcoUVlBy8397WvFlBOMlsEG7XuqVXphS+UKEYk5U2rVr4pN8PHpowixbCSoYOH+mV/oQZYiRos66c72NEQFFUnOEjf/b3ExndJUaRaZ9u6TaOkgz/eZRfExCtIFmno4k2QpJ89d0P/jXT/7JdXjLt0QZNmonRcyPXKr1Wq1bVL+pNJr/S5FN/Jttm0kEAAhCAAAQgUPIESpUCL+uufI1vvKOXi/0+2y8gPeyg/bNKLdhtVTHfn36xny1ZWlSJl8+2whqGi3YalSjm+mS3o2mkKExiIK2d5Vwx2+VC0+/1t7wPeHBNr4rmIot0Itlj1519uMiPXJ2KghIu8o/vP+AtV8dSv4hSO88Wpygai2Laa1ZBcfQj5WcXaUYuJtHkGLfwUyE1P3bhLkeMGh0tiV8knAwTZc52eVEbFHFSi4k7b7eN71M9AwsX/WM7bLO1D+MZkTTm23zqz5iN5AIEIAABCEAAAjknkLc+8Nr059sfhnhA2u1SriByUZHITeKoQw/y1vfweOP+Yhb+O+6Iw2yy28lUSmc3N1iQH7N2bF22bLnfAGrM+Alul9VN7MKzTgvVpl1QNRsg5e2uBx52O4lu4gcYik6jXVHlWvNo756h9Mcfdbg7P81vAjRx8u/WceP2frfUKe7clKnT/P3tv/ceofTRDhQH/0q3CdM9Dz5mPXo/aNoxtoWbjVjk/N4V1nLq9BmmAcnRhx0ULXvWz51w1GF2r9uJ9a33PzK5OHVwvuAajGhwIcV8r9128bvfRlYsl6ITjznS+r/+pj305DPWwQ0EWrpIQdVcOMq/Fy60qdNm+DK0K2yzpokXLGe7vMj2xnqvaDPa4feDTz73SXaLERYzVv58689Y7eQ8BCAAAQhAAAK5JZC3Cvw0xfyeUQBHrghS3Jq6xapNnY/6Ljtubw3r1y82ctoE6dbrrjJtzqRdNn9YF00kqLBd61a2rbOgR8pxRx5mG7Vra6+99a5XWH/6+RefRMp/+C6pOqnwjnfedJ2zwL/p0wbhE6tUqWytWrRI2i2oXZvWdvmF57gwhh/YILc7bCCKAb/fXrub2iTrdkmI3HRuvf4qe+6lV2zs+In269iCOPVSTLVh1VadNrOvv4/uJqMNsNq1aeWU+Lf8AtBxbgAQiFxTtBFSrIW4Qbrw12yXF152rGMN4lps2MymTZ/pn1c9J6lKPvVnqm0nPQQgAAEIQAACJUMgFA7EWUrXlkyVpa8WudHMmTvfbVBUxYd+VPSXRKJNnuRmU69uXe8bnSi9QlbKzWYDN1BJNQpKUPY/zvKuchTRJBVlN8ifzVf5gcvNSQtUtYNtKuJjubt1DivcjEvtWrX8zrTrJbEzbaw6sl1erHqyfT6f+jPb90Z5EIAABCAAAQikTwAFPn125IQABCAAAQhAAAIQgECJEyhVi1hLnA4VQgACEIAABCAAAQhAIM8IoMDnWYfQHAhAAAIQgAAEIAABCMQjgAIfjw7XIAABCEAAAhCAAAQgkGcEUODzrENoDgQgAAEIQAACEIAABOIRQIGPR4drEIAABCAAAQhAAAIQyDMCKPB51iE0BwIQgAAEIAABCEAAAvEIoMDHo8M1CEAAAhCAAAQgAAEI5BkBFPg86xCaAwEIQAACEIAABCAAgXgEUODj0eEaBCAAAQhAAAIQgAAE8owACnyedQjNgQAEIAABCEAAAhCAQDwCKPDx6HANAhCAAAQgAAEIQAACeUagYj61Z8nSpTZ37jxbtny5rVq1Op+aRlsgAAEIQAACEIAABHJMoFKlilatalVr2LCB1ahePcetyV31FYKq1zoJjnPxOscp7n/Nmp2LqqkTAhCAAAQgAAEIQKCUEWjapLE1cop8eZS8sMDL8i7lvUKFCtakcSOrW6eOaYSFQAACEIAABCAAAQhAICAgD40FCxfarNlzvO5YvXq1cmmJzwsfeLnNSKS8aySF8h48prxCAAIQgAAEIAABCAQEpCNKV5TOKAl0yOB6eXnNCwVePu8SWd4RCEAAAhCAAAQgAAEIxCMQ6IyBDhkvbVm8lhcKfLBgFct7WXzEuCcIQAACEIAABCCQXQKBzhjokNktPf9LywsFPv8x0UIIQAACEIAABCAAAQjkBwEU+PzoB1oBAQhAAAIQgAAEIACBpAigwCeFiUQQgAAEIAABCEAAAhDIDwIo8PnRD7QCAhCAAAQgAAEIQAACSRFAgU8KE4kgAAEIQAACEIAABCCQHwRQ4POjH2gFBCAAAQhAAAIQgAAEkiKAAp8UJhJBAAIQgAAEIAABCEAgPwigwOdHP9AKCEAAAhCAAAQgAAEIJEUABT4pTCSCAAQgAAEIQAACEIBAfhBAgc+PfqAVEIAABCAAAQhAAAIQSIoACnxSmEgEAQhAAAIQgAAEIACB/CCAAp8f/UArIAABCEAAAhCAAAQgkBQBFPikMJEIAhCAAAQgAAEIQAAC+UEABT4/+oFWQAACEIAABCAAAQhAICkCKPBJYSIRBCAAAQhAAAIQgAAE8oMACnx+9AOtgAAEIAABCEAAAhCAQFIEUOCTwkQiCEAAAhCAAAQgAAEI5AcBFPj86AdaAQEIQAACEIAABCAAgaQIoMAnhYlEEIAABCAAAQhAAAIQyA8CKPD50Q+0AgIQgAAEIAABCEAAAkkRQIFPChOJIAABCEAAAhCAAAQgkB8EUODzox9oBQQgAAEIQAACEIAABJIigAKfFCYSQQACEIAABCAAAQhAID8IoMDnRz/QCghAAAIQgAAEIAABCCRFAAU+KUwkggAEIAABCEAAAhCAQH4QQIHPj36gFRCAAAQgAAEIQAACEEiKAAp8UphIBAEIQAACEIAABCAAgfwggAKfH/1AKyAAAQhAAAIQgAAEIJAUART4pDCRCAIQgAAEIAABCEAAAvlBAAU+P/qBVkAAAhCAAAQgAAEIQCApAhWTSkUiCJQjAov++cd++W2sv+MOG7WzhvXrl6O751YhAIGAwD+LF9uoX8f4tx3au++CBnwXBGx4hQAEcksAC3xu+VN7HhKYMnWa3dzjXv83ep0in4fNzOsm/b1goX306Rc2e+7cvG4njYNAPAJTp80IfRf8PPq3eEm5liGBBQsX2aw5c+3ff//NsKTks69evdrmzptvf86abatWrUo+IykhkAcEyo0F/uU33raBn3/lkfe4uas136Bpxvh/GDbcnnyury/nyovOsy033zTjMikgPQLhfRFewnrrrWf169W1Rg0aWKOGDWyjdm1tl87bmc5nItff2sP92Myx1i1bWveuVyUsatzESXbPg4/ZmjVrrGmTxtb9+qusatWqCfOV1gS9HnjEho342Vq12NCee/T+0nob5bbdqT7f5RZUKbzxtWvX2oVX3WDLVyy3DZo0sbtuvSHhXQwZPsIef+YFn27zTTvaNZdckDDPhMm/W4/eD/p0++21u3U57uhCedSOz7/+zga8+4FNmz7Tli1f7q9XrFjRmjRqaHvttrMdf9RhVrNGjUL5Mn0zdvxE++TLb2zwjz/ZX05xDxfNsLz23BPhp0LHwWcidCLsoEb16tZyw+bWQn/Nm7nvveb+fViSuIexfr/iZTrntJNt1x13iJck5WsvvPy6ffnt9z7f4/f1smrVkv+N6nnfQzZ+0mSrV7euPdCze5G6w+8xWX3pvkeedLPhBTNgZ5x8vO25685Fyi3PJ8q8Ar9kyVLr9b9H7PshP4b6OVsj7aVLl9lU98UjWb7uyydUCQclSiC8LyIrnjJ1eqFTGrydcPThdsj++1iFChUKXUv2zcxZs2zGzL/cF1y1hFmmzZhpXbvfZQsXLfKDicvOO6tMK+8CMvOvWZ7LrNlzTFYu/SiXBlm+YoUtW7bM/wiVhvYWVxtTeb6Lqw2UWzwE9J1Xt25tGzp8sk2b8af/XqpTu3bcyr4dNCT0Wycr+aXuO6xK5cpx8/zoBvDB76OU23CRa9JV3W6zSb//EToto4r+9H0x48+/7KXX3rS33v/Ybr/xGtt6i81D6dI9UJ0PP/WcffbVt0WKEBMNKBYt+qfIteBE8JkI3ke+jnEDg3DpvO3WdvkFZ3uDTfj5aMfxfr+ipdc55cm2aOY06LN/16Y2E6LnQnmXLV8RtVnh95iMvvTI08/ZB5987svSQA7lvSjW0vGrWrTdSZ2ZNOUP637Xff7LQF8MJTk1l1QDSVQsBA7eb29v+VXhGqzNnf+3zZs/3/myjvU/VvpxuP/Rp/zUqUb1xSlzXb3X3XKnr7dmjep2d/cbrVkWZn+Ks83ZKPvkY4+0l15/0w7Zb59So7zrvu93Fp/PnFVw4Bv9rFKlStlAQRkQyDsC2265hVPgR3qldeQvv9keu+wYt42yVgeyYsVKk3K+S+ftg1NRX0eO+tWf129vuAKu3+E77v1fSHk/YJ897fgjD/WWa6WdM3eeDfzia3v1zXdtydKldvs9/7MnHujlrfJRK0ri5KJ/Fts1N99uEydP8albbtjMDj1gX2vTqqW1bd3Sateq5d1oIi3y0YrWTO6xhx8SuqT7kavgdGfQmT5zps12iuyaNf+aZi3OuuRqO+3EY/1Mgu4tGdHMw4bNNkiYtG3rVgnTlNYEGry9+d5HvvkH7buXXXDmqaX1Voq13WVWgf/Yucs8+EQf05eNpsU0gnusT8EUYLESpfCcE9htpx2s83bbFGmHlHlNnWpkr+ei76tv2GYdN7btt9mqSNpsnJDFp2Dada5VqVLZet7S1dq1aZ2NovO+jIPcIEp/pUn0QzzEKTUIBMo6gW226hS6xRGjRsdV4MdPnGzz/17g00t5lYI9yM1ox1Pg5SoYBALYuF3bQm4wWkvw44hRvrzjjjjULjz7tFBbdNCkcSOv9G7Uro3ddOc93vjxtrPEn3/mKYXSpfLm1rt6h5T3g/ff2y4590yrWqVKoSKkNCejOMsl8zg34IglGiw8/UI/+9CtAdKM3lPuWO5EN197Rawshc7v79yNov1+FUpUht+8P/Aze/alV/wdykXo6kvOL8N3m9mtJTckzKyOEs8t66r8jaWkKYrIY/f1TMkfrcQbTIUlQkAWVbnNXHXxeb4+TZm+/eHAYql7xcqVduPtvez3P6bZ+uuv733eN9+kY7HURaHZITB6zDjToAuBQFkn0M5Zb+vWKXCbGfnL6Li3G1jfGzlD2J677uTTyp9Z35+xZMz4CV551fVtwwYLej9uwiS9eDnxmMODwyKvO22/rVtjtKE/rzVE6YqMNsEC5FNPOMb770cq7+mWHS1f7Vo1vdL58D13hAYEX347yFvko6Xn3H8Evv1hiP3v8T7+hGZtbr7uiozXq/1Xetk7KpMWeC0okey752527aUX+KlwLVwpDbJs2XL7fepU+8NFP9BIv32b1tagfr2Um/73ggV+Sm+mcxeRArmBWzhZ35WzXhSfb9UTy11gqfMH/tP5M2uV/nLn2ybryAZNGycMraj6V65cZXXcj0T4l6V838a6L3C5sWihUrOmTUrcpWS/PXd3FpL+3oUm3AczZcgxMsiSK9etX8eO9z72Xa+4OCWLivL/MW26s9pMsZruWW7XppXnHqO60OniYi4/dvm0a2pYbWvgfsj1Y966ZYuYawiCtqxfcf2oz0pwPdvPxyr5z7qpbD33890zqBCgWjRcrWpha5ugVa5cKeTrvnjJEnv7g49DLP9y91w5woVGz348yeSzW1w84rW3pK/pGfr9j6mmdUltnNuCnp9KSayN0MyZLMDRniV9j+i7Xe4JzTZo4hWm4Ps/2ftT30+Y9Lupz+VOIdeEZNoVr/x077Ukn4NttuxkX3zzvfdbnufcDGP9zkhZl2zhgjRsu9UW9vrb75sixvzmvt8226RDVAwj1rnP6KLyhMtsZ8GXVHY+9FrwGE/0mZMRZM68gjzx0sa61vfVAf5Sndq17MSjj4iVLOvnN+2wsd1w5SV2yXU3+cHOg04xfe6xBxKuHch6Q0pJgZoJ6tH7If8bI8Prnd2uy/hzWEpuPe1mlkkF/tzTT7b27VrbPrvvGgIjZTKfRdONDzz2lFfcIy0bspScesKxdtShBya8Bf1wPPV8P/tm0OCEaYMEve+42fRlHoisx19/P9iHAQwsF8G14FULdM47o4v3IQzOhb/ece+DNvKXX019cdIxR/ofWc2MaHAi/8Bw2bh9WzeleYaVpIVaAyOFD5NSKj/LVH/0w9sfeXy3m/2R/6Pk0vPOtH32+O85jEwb/l6DG1kfvnLsV7o+CBc9A1dceI7tvnNsX9VsM9cXaj/nx/7Tz9EtdPXq1rGdd9jOTjzmiCJRnYK2aPHa8+5HK1KC69l6PjSw+OizL+25fq+Gpvsj64x8r2gaD/W63bvaDfz865DFUOlOv7DodPcX774WWYR/n43PbrZ5RG1oDk7qOX7y+Zfs48++CkUZCZohw8KWm2/ijCwXxh2gypp7xQ3dvRvah6/19crQo32e98rnwohFh1IK5d7Qxa3BSBTlSYOJnvc/HPLFDtpVqVJFk494V6d8VQ0b+EV+Lwfpg9ds3GtJPgfbrlPg1X59V0f7ntKAQi40ki0228S2ckq8GOtevx/6Y0wFXuVJ5DoYqeTLmCRRGTIMBe/9yYj/FMZT0qJZs4gryb3V4E4DeskJRx2eUlSV5GqIn2qTDhuZfLjlTqMBYv/X37Izu5wQP1M5vOpdjHreayvdYF2/GVorlkoEnHKIzN9ymXShkTUmXHnXnRb+8q2QN/0txaPPi/3tyhu72xQXLUXt1JeeFExNxUlk7Xj4qWet2513mzYZiiWKX65FM1Le9SO0l1sMowU0+kGLDHHZvFlT237rLb1LSdMIy+KHn3xhCgMYKO/6ILVv29rky1i9ekHUFSmosizIHzKeTJ4y1UUAGmZXdutuE3+f4pJW8IuVNDUaWDj1A3HZ9bfY8JEFfpHxysvWtdVrVvui1IbwGYJMy3/MhVr71E3ZSrRA9shDEg+6lFZ9f4EL7abpXv2wqU2yQmiGQhES9Ax073W/KaxWIskGc1ndrrv1zpDyrsg9Unj1XNaqWfBcKmKBFptlwi8bbRUPDZrERpZaLUzTYPfMLsfbgfvuabK8BaLnVz+qcgXYy/3p8zdo6HCr5T5r4T8YmmGQv2/4X1BG8JrNz25QZrZ4BOXl8lULBs+74nofSSQIEahZN4UWXX/99XxIVQ0Oz738Whe6blDCpsolUpbyG267y5cp5V3fkfpe0iyiRJ+dfq+9add37xm3PFmeL76mW0h51/eAPm+arVm9eo0PMXjR1TeYnvFkJNv3WhLPQbjRZsQv0Qfpg38cEfrtlAIv5X3rTpt5JIPc93o00YyJZh8lW2y6SREr6i47bu/7X9c14I4lCjEpg5REn+N05NvBQ0PZDjlgn9BxSR6ce/rJfhZcdcooghQmoFm0ru7zqig1+n649/ab/KLiwql4F41AmbTAR7vRfD335nsfWv8Bb/vmtWnVwq67/CLbqG2bkN+XVrc/+dxL/gfuB6doaIrp7tu6FbkdLRq6yynd+gHTj5nisCoebbjoR+vOdXF5jz704JgW/f322s1ef+d929NFJlCEAP3gBqIQXy+8MsD/SMplQJaw7l2vDi4XeR3krDT6cdZC4isvOte2c9OpsrxJ1ObX3n7PL1iRVV6DlD4P9S6RqCX6gZS0dsyD9vgTGfynfhzwzge+hKMPO9gPnpIpTn0mZVkzApoJkNVecZODEJdSStW3GuAorNbmbtpa/RJLMmWuftFzoj7R7Ei3qy8r8izJReUbF1pOi7RiTb3Hal/4+UzbqrLkNxkMmmRl0w9meMQHLSrrdkcvr1SI7wM9bvWKSNCOV5993B9q8BX030tPP1JE8QjSB6/Z+uwG5ek1GzzCy8vVsZ6LG26/y0V/+tv3xeknHecGsweEBn965rVg+L5HnnBGicU+KkmTxg1NbgfxRJFEFjsXHEUQkSVTs0CByKKugZwMApoV+cQNLvffe4/gcuhVSuFdDzzsn28ZOq52Mc33dsaOINSpZsJecRFQFAlDRpNEUhz3WhLPgdxTZMiRhTqWYjlkXfSZYOAlFjvtsK2fYVTIwOkz/wz5eQecpLyrfyXbbl3YfUbnZJQ49ID97B23/kghHfU9p9+GcEPA5998Z/c+/ISS+3074s08+kQx/pvoBnwShckMDA9BUkUIkzuXFq5m6zcgKDv8VXXLSCZFder0ghmF8Ovl+VjfD9e6KG0aKGuW+R6nvMtogiRHoExa4JO79dyn0oK5F10kFImsgo/27mnarjtc+WjcsKFfvX6ii1su0eY4Q38a6Y/D/9OPlqxTkrNPPamIwqXze+++i8n6IXnlzXf8a7T/tHFGf6fAnHfGKYWUd6XVj9zZp5zorbF6P3zkL3qJKVLyZSV7xinmcrsJ/6LUsdxrDnahBiX6QYiMpRuz4AwuyD0oiKog6102RFOkmkmRSPmWS1CyonBZUt71Q6ZINVI6AuVdZWhApilFhT6T9On7ctx9BzJlrulMlSG51EVriBwI6rxCYcp1JtMwnJm2VW15f+DnevGKwTmnnVTo86Pzev7kfiTRjJEse5lKNj+74W3JBo/w8nJ1/Mob73jlXfXf4haiafFguAIlS66iRT35wN1euVK6R5OIEibl/Rz3/aaF6OHKu/Jr5uU2Z0wIZvY++fJrnS4iL732hlfedeEO52erqB+B8q5zcr3Rc606Vq0qmKnT+VhSHPdaUs+BXIUkf/412++CGn6PMtb8uG5WNDwqihaXBqLZ1UgJ3Gd0Xm460URGimATIg2+Tz7nYh82UrO+UuhkqNIgQLPIt7pN79IVhZKWtGi+gX8dPWas3excNY4/8wI7/owL7MyLr7KDjjvVzr70mqRmgXwhafyngZJEg1XtBxJP5jtlVuuO4v3Jtam0iwZP13fv4TfTkmGll/uNi/ZbU9rvszjbjwJfnHQTlN3P+cMtXrzEpzrDWajCLRCRWeUDH/wAPvHsi5GXnW/5tNC5SHeZ0AV3IOutRIpMPHccnyjOfzuuC9Mo/3G5d8QTufDUcDHQY4l8BAORlaI4ZfCwn3yEItUh14ouxx+dcXX6EdP6hUA6btQ+OEz4qi+xl52yI9nHDbA6OTeVaKJB3cnrdjKU1SJ8ajha+kyYhysti0ogKksmbdW9T3GWV4l8bcMHiP7kuv/atWntFrJW9e+0ODhTyeZnN7ItmfKILK+k3+v74LW33vPVyjARz3oqK/CxRxzs044ZN8G++m5Q3ObqM3v04QXpoyVUeVttUeDiEfg+h6fTZjOffvmtP6UQsjvECSF7gBtIa+YwnhTnvZbEcxAeISbSCj/q1zGhzYKC73uxkIVUrnQShZOMlKAcWVT1uYsm+j7TBk0XnXO6nw0TR62VkCupZhrlwqZFjAq9GD64ilZWrHNa0B4YajZ0Cry+p6+5+U77fvAwP7hUMAa5zWmgotkbxaZXuEnly7aEh6cMNkqKVce9Dz1uJ7kBTbw/uVOWZlnu3OFudLOiwUx47do1i8zklOb7K6m2r1dSFVFPUQKjRo/xJ70/epwfEiXSF402KJLIX1rTf+Ey2/0wBaIvzliiDSsCSda/M0gf/qop1UASRQiItjgqyKtX+Z0Goog3mYp87X/6+Rf/QyCFQK4OT7kfh1PPv8x/acgfVz8g3a65PKPNQdRObfyhhWdyNwms5k8+19f51k5J6ja0QC8IXbhLgm2xOzof3UC09Xg8yYR5x43bh1xMdC+aJi9OyaSt8kPXRl2Sum6qOp7Iz12yYGFyfs3xysrmZzeynkx4RJaVi/cK+Se3EsnRhx6UsAlHHnxgaOCVaEZPi6bjGTpUWbAoco6b1ZJyFi7jJkx0n9U1/tRhB+0ffqnIsQaDkWupIhMV572WxHOwlfNnD2Z8R44q7J8dhI/Umqytt9y80K3LjUYid5lwQ5D6PZhFDfexL5R53Rt9dgvWIFUuclnrG34bNz40E1gkQRInljrjUiAKXdm9131+FvOuW2+wd/o/a/2eesQ+ePVFe+Hx/7kgDgX39+0PQ00zKtmW+vXqhYoMBhWhE+Xw4DHneis3t+A3UzNAyazvKoeo4t4yPvBx8RTvxcDa3GrD/3zM49WohZ+ByLqkEHmBhFuKpHDFcg0JFgXpizPcKhCUE+tVP4QK/yWLuyL6BG1X+sILhAuXoB+H8HYWvlrwLtw6Hyx2i5Yu2XPP9H0lblItxpJPbvjugHEzxLkYRME4yUW90PSf9h/QSnrtHvik2z0wUSSMcI4KXRdEfIhWZaAU6Vo8pTpT5mqHXFG08ZmsRVpkeOA+e9kRBx8QisscrX3pnMu0rcovVwr9KE7/M/ZAQ1Y1uSlJtNYkUwn6LRuf3fC2ZMojvKxcHWt9RCAtWzQPDmO+6vMvi6uidMR7rlVAMv6xQUQpKYiKqBVuwVUdgSTzHDQOM1QE+cJfi+teS+o50KyuNkySgjtiXeSY4P6C8JFbd9q8SOjDnTtv5zfCE2OtzQrW5GgvhWDQFBk+MihXr/q8dr2tZ2hzpR2338btxnqY98V/96NPvZuJ1hR97DZklKU+0dqI8LKD46Xr3AD1XqEoNei42RltIr+T9b3d+45bvPVfLjyaXZNblWZzsiXhBjZZ/uPJhWedFnMmNsgXvuA+OFeaXjW41rqA7jdc7QNmyCiptXIa9GmvFiQ5AijwyXHKeipZXQPLa6OG/yni8SoK/zHRD124q4y+LPWlry/UAW+/bze6hYeRosVZWtgl0dR2LHcDXZeP3UeffmmDXDQS+eLpCzemor5WOaKLlCu1K1eiLzrNFjRp1Mh/Ie+9+84uHNqmWWuO7k3+7kG0Gf0ADHQ/OtNmzHThCZ+x610M+Hgy88//Zhxu6nFPvKSFrsWL/pMN5toqvKKzQCokqQYOWnCmP7kdaIGutl7PRr9mo607bLuVD1Oo7d0ViUnxxSPlvY8+8Z8Nne/kImNkItn+7Ia3JRs8wsvLxXEwuFHdjRo0SKoJUsylXIfnjZYx3FAR7Xqic3/N+k+BT2RYUFkN6hdEt4lVbnh7s3mvJfkcyE9dCry+U3Q/ijil35fABUnKdaRorZbW5uh3QQtuAwU+3Iof7p4Tnl95Lu96i69Lg62brr3cr49SGs0InOLcGl93wQBeePk1X/41N91hd950XaFQx+HlJXOsWQS548SbvTnv9C528bXdvO+9fP+zqUjq9yCQlhHBJYLzwavWOmkWtCxL+7atrdetN/pnSGscLnQR2PQ7o13SN+vYIeuGorLKEgU+Rz0rP+ZAwt1agnPRXms7/89A5v/9X36d07TxMU6xUvSYz9wivX9dOEr5ULZs3txboSa6hYla/KgvafkCB7uRBuWFv+pDJCtIYEnRgjNtkqIFtfJBreJCHMp1JAgzGZ438jiwhkWeL873+rIPfDazoWTGa6u+iALlXem0WFLT9LIoKMTi1u7HUdacWBLufhSEwouVNvx8sB4i/FxwnC3mui8p6lpkq0W6crnSlLn+nni2vp3lFjMHP9xB3am+ZqOtXdzagKEuookUAy2AU7tkyannXMnk86xFq8G0uH6UpSRkItn+7Ia3JRs8wsvLxfHcef99NwWhcBO1Q5E6JIkW59WMs5YmUR2R5YeHF42Vt26dOrEu+fPFda8l+RzI+BNEQhvlDBBS4OWCGEj4AtbgnF61mFVRsaTsynCk79qRLr9Es7v6vYgmT7vF/hooaGZE0dL0HRou2lTwZDejqfUJ8onXrK/8wl984sGYGw6G5w+ONaujNqltKiue8q48CiOqNul3L9vRYqavU+DVpsgZgKC95en1rC4neuVd96wod/rd7PW/R02hYu+49wF7/L67Qm6c5YlLqveKAp8qsSylD1fapXgkI3+HpYv25Xjh2af5D8VTL/Tzm5wobGSkyN/+igvOibnaW2EhpbBJpOhoWlMWzkhF+COn0IUU+AqRteT2/fruSzuyvcXVosCHLyi/ihvshFsUtPveJs6aEmt1fXgIxmcf+T979wEvV1UtfnydSSEJJSQhjZZAQkkIvYQmIArSO4LyUBEQxfIs7/nk/54+y7M9n6iogIIoSkcQQu+9hNAEUoBQQkkvpCckd85/rT33zD1z79y5M2fanpnf/nxu7pRT9vmeyZ119ll77196N/6tzZRooxrZqBw2es/Nt9/lZmC0W6A2ZJ+NONHTXYbIplq/LeCwEZwu0FvyduFkX/adi407bkMPflnvlpRbqvF/t9w6+bS+dUiLSjQbbvS8u9+2nJViW7G7205Pr8cvkm1EkEL9hWxba9tz+e1x5//r9prPx2r1K6bYwAbR5Ew2S/aR2tfKLtKtWJpRvL9TfHuWkmIBvI2YY6O92AQ8UQpgd+kzdoEWDfl63JGHdQne49u3wN7+v1paol2IP/T4UwUbQ+Lr2mMLxofoXQL7W1VM6pV9ZwzTO0GWZhqlmnbeZpLn1l/N6mBlKzXyucTvOC3X/x+lXEja/ycr8f9j3R2rDriWU2zktRdfmerupFq602//+Gcd3vW8nGV40lWgfrkNXevSUq/YF0cUZEZTS/cEEF8uGpaq8zoWpES58jbxjo3jvZeOxXv8UYfrjIdflL/8/lddpraOtmGt6jdNutM9tfSc/9Xx5u32aVTPaDn7bcO5UfILRC0K9q7l9P9I8+FtcpN8JR7YV7rVJ9/+kr5m6VY2DOnv/vd/3Fi9FjRbsbsMxUzCk3S/xa5nQcYpxx/jFreLIuvnYBdONgyd3ZK/7Df/5+462QVWuaVa/3fLrZcv6w/Wi76oLFiwKHpY8PcCDdCs2PCk1SwjhnXkH0d9IgrtLwq8bJl8KYQ+H2uh44q/Zy3e0ehX1inXyrT2AL671ndbxoJ0C/ytvDLtVTfbdnTXtrv0GQvOrEXcyh675B9i0r3Z/o8NNRpdOL3VPndH/P2eHkd57HZhUkyJRt3qqUN8MduKlvndH/8SPdR+V+Xd/ctuqEoPto71x4un/fS0OzunUTpZvhTGnta39/9VGxajfil2YejD90ox9a7nMrTA10nfgmLMWZN8AABAAElEQVTLc7M/lDaEVXQLslB1Xn/jzezbUQCVfUEfWG6u5RZaK+S/f+1Lbgrn+Ps9PY5aXWw5SzWId/7qvO6sd9/reKlADnzHQq31yFoU7A7FXfc/5GagvfhPf9U/UGd3QYgH8NZ6NWFc/mEku6xYxxdsMq4LdTKks77yTTfMnA3PZoFyPcskzXG3Pgd2wWq5lT21rJZT12r83y2nPr6tGw1Va/WyOQWsv02hYncgF7XfXcz3d63QuqW+Z5NFRcX+hnVO34jei37HOx9Gr8V/+3ys8Xr29Nj+T9vwjfZdZBc2UTAWH/O98zbsYthGb7GheW189TVr17hF7G6XdXzNV+Id8TfaaEC+RXJes7QXazywC4Mo8M9ZoIcnNjeAday1mXJt9KFC/b5WrFyZHdZ5qy0zc270sPke37YZy21mdCuWVmR3tH0uo2Kdzm1emb17GB0vOhb73EQXb1EDYvResb/jd6+t4evC3/8xOxt5sdtoteVoga/jGbeZTq3YH0ybea5QsaG67nkg0wHVghRLbehcHtchsCx4t6vY+NjqnZfr7rl1Vo1K1HIRPY//tgk24jmS8fd43CHwNQ3YoxYF6wBqQ5R1LnYuo1xcm/0x/gXXeVmfntst6TGjR7kqVWJYxnKPzXJ4rYXUcmeTBu8D+vfPVmOW/j8qVCr9f7fQvhrtPet/EOW+W5+cfC3X8WP6uy4TBWf5OkzGly338bjtt8s2TNyqF32FitU7XxpifB2fjzVez54e77FbpjXc5oC47e773OLWz8Y6rRcqNqynlVd0SMCohXz7sWO6nfdjzDajbXFXLKjuqbwZCwzHjhnd0+Jd3j/l+KPdHWT7zrrljnu6vB9/4WFN0YmK9R0rt9gwib+6+LLsZqzfmd3t8LnYRUaU1nm9zuVQ7FDTl1zxN3dYdrckPrhGqcdqaVj/2j7pnvV9sLH5owuDUrfVCssTwNfxLB9+6CHZYOOv1/29y9juUdXsy+1SHY87Cu7OP/uz0Vs5v99rH77NOqr2NNtbzortT+L5eTNem5lvEfeadYaND8fW7YIt/kbUohBNIPSL317SZbZDyzG0HHMrdiFnHYh7+oMVBTvV4u0u3Se+P/tCjFJ+xm67Tfytmj+20ZUWtc+LUM4kTfH0jcef7nqxFT+wSv/fjW+73Md2R+Q/vv8T9/P3SXeUu7mS17c7FCe3T7ZkI5lcrxem3RUL4ia1B4w2rGuhFt/utlHK63bhecTHD3GrWNBpI6h0Vyw9rKdhLX0+1u6OK9/rNjFT1JBw+z33u0X23mPXvOmT8fWjCy5LNYpmbbXW/O6KpbpFHZbtc1FoEkD7O3eJ3rm0Ys5JhpK0O5yHHLif24Z9h8ZniXUvtv9j+dtXXnuje2YpkHbsSYvlvP/4lxe5u+HRHRz7zJXbeb6Y+tgET/Z/34boTBID2F33r533ebcru6P/s1/9rsdzZG5Rg95xOrdCKRMZ5jsmG/QhmvPGRkeyPn2U/AK987/Mq6UKPP3sC26c9J7Ws//EUdqEtVJ97byzdczwX7khu774je+4NAvL37U/chYkWQuEDeUX/eGxnEB7P1+x1hAbbcPy08/4wldlW7192D/Wqti3bx/XIckmTrIJSmyosngZr7e67ZalXShced2Nmt/YR2yb9qVnf0xtttfL9D+Tjfhht8mstZ9SWMBaFL5+/jny0wt/527PWovCRT/7Yc4Xo6Ur2ZempdDcee+DLpfUOo2O2Wa0GyvXOtLZF6TlJNrMh0/oz7WX/65qoxnYH+OL/niFdhg7WKe7nyjW3yKeO24Xd/ZH1cbAty/W/bUzWz2Ljeqwh04JP+X5F+XqG26Wx/SWtQ032KtX5s+bdZiynFa7qzReWxQn7rl73upazrwdj33W73ngYf3i3z/bn8Quauz2u71vpdL/d/NWKOGLdv7Mwsp+2oelnPKBjjwUtcgW2o7dvYhPPPTpU07U1IHJOqHZLPdZeef99+VU7aNgwZEZWiODjTN+ic4qbSNP2Gvnayf8WhTrE2Hn11qbbebNc3X4QOvfYcNK2rm3xolb7rjb9Qey1sj4qEP56ufzsearb77XrOXULqCsFTpqdY1G8sq3fPSamdldRPvbFQXj3eW/R+t8Q/8eWqBpf9O+fsH3tIP8aTpb78Ts/y1bziZxuvyv12a/9z77qVPc6DjRNkr5feZpJ7ux6i0twyZzsvNtn1X7rrO0GftuvegPV2TPs6U69pRqY2lDUbFtWMpR9POmdui1z7QVG77SPh+nn3x8tHiPv5/T/7+RZaGFrd9CvNHBLkKidB37bi80Ulmh7drf/AN0nH/7npmiQ/N+5otf0/qf4PoU2XfBhv0HuDk3Zr37vs64PCk7m6qNb3/e584otOmi37OLCJsQzFJz/q5Dilp/iehiseiNtMCCBPAVOsmWIlFM+Y6OCx4F8La8tQ6sXr1afqWjlVgu6H//9JduM/Yf0NJmbIbPqFig92Wderq7Yrc7bYKiv1xzg8tNtty/7sqftBXd0g3OPO2U7CL2ZWV/3H6rwduqVatdTrHlFVurieWoRi3Dlhf3nzrO/ElnnpO99Z3dCA+6CBx2yEEuH96Cc+vz8KerrpNzP/Pp7HL25Wl527/Wz4D9Abbppb/3k/9z79sXSTRzZHaFGjywmfGsZSVqlbKRBewLz77c45NtfUH/YFdyXP2kh/Zt7fNx/rcucEGBTT5VaLpyy3u2kYI651vb/0tLPbMOVDbqxec1xz+ae8H+b/5Nh7GLp5ZV8v9u0uPOt16UmmCfqwP1gr+cYg7xNIDutuUaBTQoiop9bv/3B/+ln+NfuBFN7r7/YTfChHV67KdBTTRihS1vDQT2d9EuWGtRbASv//nPb8tPLvytuwi9VG//2481mtjfYpuIzYr9Pf2RLnf62ee7xpTu6ubzsXZX53yvWzpQlEZiF1Q2+lgxxRp5otFn7G5jTy3lB+2/r5yhF1HX6IRJ9v/UGrAsb95GILJGo7nzF+Z428XVv3zy5GKqkncZu2j8rXa+t3k2bKAGm/HT8qs32nDD7FwstqJNbmgT2PXUUm53lf7fj36Wd1/xFw/Yd2/5yjmfy/mbEX+/u8cWsBZT7P9MPICPz/59wMS9cy6IitlefJkLvvlVdwFlfYusQfByHfqzULGA/yvnnlWxRiX7O/H973xTrFHTvm9+/pvf60AEv3ANM4Xq0WrvEcB7cMZt2K6xOhveDZpzZkP1WaActYLYFbz16j5T/4DZ7HfdFUtn+MkvfyuvaUdXuxVqM7FaK2SQyozXFKZD19pgaRqvamuJtRD8+eobxL54LcCMyonHHOGGgfrDX65yf+zsdfsStz/oNsGEjft92onHuef2h9GukCk9C3ztC593LesWnNtdkt31Tsxeu3fcprW8bfuD9fDjT+r7k2TWe++5cxQP3vv06S17akvzQdp3wsbir1axztXWSmn9MiyQtxIf6tQCw4l77S6nn3ScF8G7pZ+Zqd05slklLY8zPlPhh/pZX75ipfu/Yf+vLMC1C6SLf/mTnDsLdpzW8rOpXjzb7X37fxjdArcv9169e9kiOaUS/3dzNljmE8vbjgJ46zxazGRFZe6y29WtEeLCn3xfJt15r9xy593uLqPdVbQfK3ZxZJMI2fC3FkzVslgjxB9+/XP59cWXuyndLd82Sjmwv4kTNXi1VEXLWbYLvZ7+zvl8rMW6WgAfFbsbFR8uNXo9328bTtIajazY3eFCgx9E65+tczV8TANzayCwmVztoimelmkXRXZH2NILu7vjHG2rmN/bjt5aLr3wp/J7nV3aBhew/9fRRIr2HWsXa1/Vv9H2nVZqseO1eVi23GKkbDlSf/T3dppWWOvJmKKLKKu/3dEop9gdNftb+ImPHewCefubEv3/iLZrczJYbHLGqSfq90F5d/qibcZ/W4PKN84/N3uhbWlJv/yf75V1YRLffjM8zkR3eiT6h79uY4m8PHW6s9y5m9SQZoAu9hgsn3eOthJYi7dNNWxfHhYwFSp2O/rzX/mWm/DCAmwLFuMBTOd1bYxbG63Gbg1bvpoFMvmK5fJZa4O1qljKTDRkWL5lea2yAvbf0c7THP0ZMKC/9pUYqMHYoJqfA7uVa2M3W+BrF3E2TrK1mPrSGctyZK2jpH2Z/Pi738kOh5fvbJjpFXr3w6ZKt/LT/76g23QaS5mxW+L2f2tjTXWz0SziaUT5tp/k/26+7ZTzmgWaZ3/139wmvvqFs+TEY44sZ3MVXdcs5y1YoN814tL7NixzUqZKVm62nmtrqLBAL8rRLmf7Ph9rOcdVrXWtgWDu/PmyZs1aGTliuLvra39vqlXsb5qlgNpF5Oa6v56+Y6tVj0pu19KDLG3NLiZv+POlBdOAkuzX7ppZGqc1KllwbfvxobRy/EgLvA+fwFgdLJ/XggX7KbZYC6S1INkfI9fTXVsEChX7g2XD/tmturfeeceNEpHvD5i13tWzBa/QMTT7e3Y+7OKtc5pHrY/b7gzYzzajar3nnvc3f+FCnVgqM2/BOZqSFI1l3d2aZmq5qFEAb/nZ3eXD2wWKtS6VMqZxkv+73dU16etR2pylO1kfBp+KXfjZj4/FUhHi6Qjl1tHnYy332KqxvqXoFTMBUKX2baO45RvJrVLbr8d2ov/7R2mqrd3BqHSxfj89jUpU6X2yvcIC1bvELbxf3q2gwIzXMyPG7LjdGOnTQ/Ae7Ta64WK3rvMF79Fy/EbAVwG7ZRz1EekpeI+OwTopRp/3aKjD6L1m+B19iR968AHdDuXXDMfJMSCAQIeA3a21uxh218Imc6S0hgABfBOc5yh/tJie63a4loP69LOZXvQ77bhDEwhwCK0oEH3u7diL/ezbWPzRxWt8Ep5m8bMJdawcf9QnmuWQOA4EEOhBILpwt5GDbNAJSmsIFM61aA2Dhj9Ku61lHXOmznjVTRZkQ012Vyyv3Tq7Wm67tUTamKsUBBpRwDqJ2a1iy8m0znDWadNSR/IVa3m3Trm/ufRy9/YOercqSYe1fNv26bULf/x9/X+tHUR1pBUKAgi0hsABOhLQtX+6WIeOrG1n8NbQ9fcos70jtVWKTqz+nqeCNbPOJV/7j+/qkFzvu6DchsGyUUKGDBqknQ17u9ZJa6G0meFeeOmV7NCPX9cZz2ziBQoCjSpgw7faUKdWrFPVRz9ygOtw7YYE1A7hNkvs3HkL9MJ2cnacZwvcf/OzHxQ9ykaj2lBvBBBAoNkFWrkTKwF8k3y6rUPfxTpEls3CGOUF5zs0G293H53I5gS9xW5DqVEQaHQBmwTLJnCyUUQKFetYaDP8nXD0Jyoy0kihffEeAggggED1BQjg1ZgW+Op/0GqxBwvkbZY4G+/d0mXW62yDg7SHv03SZC3yu04Yz2QItTgR7KOmApYiY7OPvjXrXfe5t2EvbZjCwTrahH32bTQfuzNVzaHpanrA7AwBBBBAQAjg9UNAAM//BAQQQAABBBBAAIFGEWjlAJ5RaBrlU0o9EUAAAQQQQAABBBBQAQJ4PgYIIIAAAggggAACCDSQAAF8A50sqooAAggggAACCCCAAAE8nwEEEEAAAQQQQAABBBpIgAC+gU4WVUUAAQQQQAABBBBAgACezwACCCCAAAIIIIAAAg0kQADfQCeLqiKAAAIIIIAAAgggQADPZwABBBBAAAEEEEAAgQYSIIBvoJNFVRFAAAEEEEAAAQQQIIDnM4AAAggggAACCCCAQAMJEMA30MmiqggggAACCCCAAAIIEMDzGUAAAQQQQAABBBBAoIEECOAb6GRRVQQQQAABBBBAAAEECOD5DCCAAAIIIIAAAggg0EACBPANdLKoKgIIIIAAAggggAACBPB8BhBAAAEEEEAAAQQQaCABAvgGOllUFQEEEEAAAQQQQAABAng+AwgggAACCCCAAAIINJAAAXwDnSyqigACCCCAAAIIIIAAATyfAQQQQAABBBBAAAEEGkiAAL6BThZVRQABBBBAAAEEEECAAJ7PAAIIIIAAAggggAACDSRAAN9AJ4uqIoAAAggggAACCCDgRQDfp09vdybWrVvPGUEAAQQQQAABBBBAoKBAFDNGMWTBhZvwTS8C+P79+jnaD5YubUJiDgkBBBBAAAEEEECgkgJRzBjFkJXcdiNsy4sAfrPNhjirefMXyIKFiyS6qmoEQOqIAAIIIIAAAgggUBsBixEtVrSY0UoUQ9Zm7/7sJYiqEmqJHtfjt52MufPm12PX7BMBBBBAAAEEEECgwQRGDB8mQ9sbgRus6mVX15sA3o5k5apVslAD+dVr1tAKX/apZQMIIIAAAggggEBzCVjOu6XNWMv7hgMGNNfBlXA0XgXwJdSbRRFAAAEEEEAAAQQQaEkBL3LgW1Keg0YAAQQQQAABBBBAIIEAAXwCNFZBAAEEEEAAAQQQQKBeAgTw9ZJnvwgggAACCCCAAAIIJBAggE+AxioIIIAAAggggAACCNRLgAC+XvLsFwEEEEAAAQQQQACBBAIE8AnQWAUBBBBAAAEEEEAAgXoJEMDXS579IoAAAggggAACCCCQQIAAPgEaqyCAAAIIIIAAAgggUC8BAvh6ybNfBBBAAAEEEEAAAQQSCBDAJ0BjFQQQQAABBBBAAAEE6iVAAF8vefaLAAIIIIAAAggggEACAQL4BGisggACCCCAAAIIIIBAvQQI4Oslz34RQAABBBBAAAEEEEggQACfAI1VEEAAAQQQQAABBBColwABfL3k2S8CCCCAAAIIIIAAAgkECOAToLEKAggggAACCCCAAAL1EiCAr5c8+0UAAQQQQAABBBBAIIEAAXwCNFZBAAEEEEAAAQQQQKBeAgTw9ZJnvwgggAACCCCAAAIIJBAggE+AxioIIIAAAggggAACCNRLgAC+XvLsFwEEEEAAAQQQQACBBAIE8AnQWAUBBBBAAAEEEEAAgXoJEMDXS579IoAAAggggAACCCCQQIAAPgEaqyCAAAIIIIAAAgggUC8BAvh6ybNfBBBAAAEEEEAAAQQSCBDAJ0BjFQQQQAABBBBAAAEE6iVAAF8vefaLAAIIIIAAAggggEACAQL4BGisggACCCCAAAIIIIBAvQQI4Oslz34RQAABBBBAAAEEEEggQACfAI1VEEAAAQQQQAABBBColwABfL3k2S8CCCCAAAIIIIAAAgkECOAToLEKAggggAACCCCAAAL1EiCAr5c8+0UAAQQQQAABBBBAIIEAAXwCNFZBAAEEEEAAAQQQQKBeAgTw9ZJnvwgggAACCCCAAAIIJBAggE+AxioIIIAAAggggAACCNRLgAC+XvLsFwEEEEAAAQQQQACBBAIE8AnQWAUBBBBAAAEEEEAAgXoJ9K7XjkvZ75IPPpAFCxfJkqXLZIO+fWXTgZvI8KFDpX//fqVshmXLFHhqynMyd9582WG7MTJ+h+2zW7v9nvtknD4fM3pU9jUeIIAAAggggAACCFRHwOsA/ukpz8sDjz4mM998u8vR9+rVSyaM20E+eeJxsvmI4V3e54XKCky66175x+13ZTaqv8ZuO1qO/PihsmLlSrnljnvkI/vtW9kdsjUEEEAAAQQQQACBvAJeBvAffvihXHHVdTL5uRdcpbfaYnMZtdWWssXmI2Xt2rUyf+FCeXnqDBfYDx60ad4Dq9WLy1eskF9cdIl87byzZbMhg2u125rv59Enn5bT9GJpr913FWuJv+v+B+W3f7zC1WPfvfeQgZtsXPM6sUMEEEAAAQQQQKAVBbwM4C+78mp59sWXpN8GG8hnPnWq7Lf3nl3OTVs6LQs1rcaWqWd5aep0eff92dLW1lbPalR13ytWrpLDPnqQHHbIQZJKpeTYIw6Tjx18oLw8bYb07dNHdp0wvqr7Z+MIIIAAAggggAACHQLeBfCTn33eBe+9e/eW//q3f3Wt7h3V7XjUSwPJ4cOGdrzQzaN169dLH91WklLMui+89EqSTYvdZeir+fyFil0UWKpQsWWN3p0o5YLGLoKsmGWhstGGA+QThx6Ss0gfDdwn7rl7zmvFPCn1mIrZJssggAACCCCAAAKtJJAssq2i0N0PPOy2fuhHDug2eO9p9w888rg8o+k3786eLWvWrJVhQzeTbUdtLaccf4zkS7l5cvKzcpt2xDz/85+VQZqS8/dbb5fX33xL5sydp0F2Hxk5fLhrdd5j152zu57+6usuJ9yWs/LL3/8hG2wP2nSgfPtr57vXo21/5dyzdDvDNPXkIXn2hX/K2++861JufvHD77rl7B/rqPvYU5PFWvUtTWj16jWyycYbyTZa9xOOPlJGb71ldll7EIahPP7UM9pP4HGZo51L7aLALnyG6DFMGL+jHHLg/rKlph3Fi61j6S/Pv/iyvPPe++6tzUeOkIP2nyiHHnRgfFH3OKp/KTbxjZR6TPF1eYwAAggggAACCCDQVSDbvPt9LV3fru0r8xYsdMGzpWl8/UvnuuC5lBpYwPubSy8TC+DXajC73bbbyLbbjJaVq1bK1BmvyRNPT5EttxjZpeV++uuvy9Oa173RRhvKdTffKrPeeU+20KB2h7FjpE+f3vLGW2+7C4JNBw7UIHorVyULsleuWiVLdWScdevWuRFYhgwe5HLBhwwalE0ribZtaSb3PvSo3HnvA67l3bZjuf3xi4JfX3KZ1uN5GaCj62w3ZlvZasvN5f058+T92XPkiclTZO89dpONtY5RufrGm+Xm2+7M7F+Pc9z220laW9UtmH/z7Vmyjy4fz8u3FvqLLv2TPPz4k+5iYxet0wi9qHhPt//M8y+6VKDOrepR/Uuxiepnv0s9pvi6PEYAAQQQQAABBBDoKuBVC7y1SluxVvINNW2j1DLp7ntdoG7B8nmfOzNnmEnrEHvF366VP/7lavnZ9/9TLC2kc7nt7vtcQH3OmZ/OWdc6cP756uvlpkm3y0e0pdpSTiwH3H5+8PMLZeU7q+TTp54kIwqk9Nx8212ycPFi+dZXztPRc3bsvGv3/PSTjneBdXSRYC9aGs+ftUOvdRy9/Z775dzPfNotu1Lz0u1CxZx+9t+5x7N27Yeuhd+Ge4wXW/+V6TNk4l57yDlnfsq11tv7q1avlt9ccrk8/8+X3YXCARP3jq/mHpdiE1+5lGOKr8djBBBAAAEEEEAAgfwChZOf869TtVetNdvKcE15KbUsXLRY7n/4MZcDfu5nz8gJwG1b1rJ86EEHuFbzSXfdk3fzG2zQV84647Q86+7h8uitM6ftJ0mZ9e57Gnyf0W3wbtscs83obAt/tA/L39+3vROvtcRHZdGSJe7hmNGju1yM2HF0Dt6XLlsm9+kdACsnH3tUNni35wP695fTTz7eHsptOlxkvpLUppRjyrdfXkMAAQQQQAABBBDIFfAqgLeWYCsDdaKmUstrb7wp67W1eu89dpUNB3RtXbftRTnelv6Sr+y43VgNhjtSVKJlMgHxWPc0aQBvrepJR2sZt8N2bt8WhEfFhtS0iaymaov6fQ8/6lJnovfy/Z7+6kyXI2/bGrrZkC6LWP0sf97SmD7UlKDOpdI2+Y6p8z55jgACCCCAAAIIINBVwKsUGssdt7Lkg6Vda9rDK/M18LQydLPuW+8tH9xGdbEg3HLFLdc+Xga37z/+WvR4o40yFwVtbeujl0r6PWqrLYpa3saVn6b5+gsXL5HF2sq+ctVql+NuK2v/02yxNB4be/5XF18m19z4D7n3gUfk4AP3dRMq5RuT3TrFWlmxYqVcesVfs9uJP0gFgXtqHU+tD0C8lGNT7DHF98djBBBAAAEEEEAAgfwCXgXww4Zlgm8LIEstUdCfL3iNthVogGqdQD/QVB1rzR60ae4kUPEOotE6lfo9cJPCdxXWrFkjV153o45Q85K7k2B3EWw0G+s82t0wmNYq/pPvfkfuvO8BsdFibpp0p9x6570uXejUE47RDrUd+1ykFwRWLJBfvOSDvIdlQ0Paj93J6FyS2CQ5ps775TkCCCCAAAIIIIBAroBfAXx7aocFmMuWr3BDKOZWt/tnUQfS5drCXKhYHnsmkN+o0GI1fc+Gdvz1pZfLq6+/4TrRnnjMkTnDP1qn1C9+8z/y1slGvjnztFPk1BOOdaPs3PvQI64jqqUJ/ee3vpYdcScKwE846gg54uMfzbutSr5YzjFVsh5sCwEEEEAAAQQQaDaB3BySOh+dtYjbuOWW3nKbjihTSrGx0q0UylG3VndrXbZUHcv39qXYMI4WvFuKz/nnfC4neLc6frC055Qim8DJRsX58X/9h+y1+65iaSv/uOPu7CEOHzbMPbYhJmtRKnFMtagn+0AAAQQQQAABBBpNwKsA3vBs2EErDz/+lLz73mz3uJh/okmOprzwoliLdb7yuI4Db2XsmNHudyX+6aspJ1aWxTqYlrrd2XPmulVGaJCdb1bUV2e+UfQm7cLklOOOdsvPjQXrY0Zv7e482CRSNgRltUslj6nadWX7CCCAAAIIIIBAIwl4F8DvNG4HN9SitZT/z//9Wh587Im8npaisXTZ8ux7/fr1k48f8hEXnF570y3Spq348fK2Ts50t86CagHuiTqraaXKZu1pPy++Mi3xJqNRYWa8PrNLcD13/gKd3OqOLtu2IDzKa+/85uy5mQsCG6kmKtFsqzbSz2V/vdoNpxm9F/1ua2uTebq/SpQkx1SJ/bINBBBAAAEEEECg2QX8ySOJSX/53M/JNX//hzz25GT523V/l3/oJEg2g+rmw4fL8pUrZc7ceWKB7bajR8kF3/hKds1Pn3KiG8HmkSeechMZ7bTjDq7T6ruaojJFJ3KyoP60E4+TYQnGmc/upNODiXvuph1Ip8i9Dz7iAupx2491+fvHHXl4pyW7fzpKh3ActdWWYmPF//AXv3J58IM1nejd2bPlqWeek4P231denjZdh4HsGN5x3oIFeoHzGzfeuw0BaQGzjaP/5tvvaDrOTDfb6+EfPShnp6cef6y8Oesd+adebPznj34m43fY3lnYDLY2ydT0116XncePky99/jM56yV5kuSYkuyHdRBAAAEEEEAAgVYT8DKAt3zuz59xuuy+8wSxTpnvz54rM16b6X6iE2SdNy1YjhfrnHreWWfKDf+YJI8/9YwLiO19GzrScuvP+ORJst2228RXKfvxLjuNdykrt955jzyjFwn2Y3cDSgngLW3mK184S/567Y0aqM9wdwqsYjaijo0mc/hHD5Y//OVvYmO5R8WGddx9lwlinVXNJl5sptcTjznCXRTEX7dZW//729+USTpZk80ua7O7xssYvSDac9ed4y8lfpzkmBLvjBURQAABBBBAAIEWEsgM/K0HrCkpsVHG/ROwUWkWaStxfw2ObWjFfBMuxWttKTg2lrqlhdjMrtXutGr7s/STtDIOHzZUotz4eJ2KeWwpLjaMpnXo3WTjnkfKsf3asJgr9M6E2djQk3379i1mVy6NZsHCxXrBsYFsqpNn2YVTNUqpx1SNOrBNBBBAAAEEEECgWQQaJoBvFnCOAwEEEEAAAQQQQACBcgS868RazsGwLgIIIIAAAggggAACzS5AAN/sZ5jjQwABBBBAAAEEEGgqAQL4pjqdHAwCCCCAAAIIIIBAswsQwDf7Geb4EEAAAQQQQAABBJpKgAC+qU4nB4MAAggggAACCCDQ7AIE8M1+hjk+BBBAAAEEEEAAgaYSIIBvqtPJwSCAAAIIIIAAAgg0uwABfLOfYY4PAQQQQAABBBBAoKkECOCb6nRyMAgggAACCCCAAALNLkAA3+xnmONDAAEEEEAAAQQQaCoBAvimOp0cDAIIIIAAAggggECzC/T26QBXrlolCxcuktVr1si6det9qhp1QQABBBBAAAEEEKizQJ8+vaV/v36y2WZDZMMBA+pcm/rtPoh2HWqJHtfj9wIN3OfOm1+PXbNPBBBAAAEEEEAAgQYTGDF8mAzVQL4Vixct8NbybsF7EAQyfNhQ2XTgQLErLAoCCCCAAAIIIIAAApGAZWh8sHSpzJu/wMWOAwb0b8mWeC9y4C1txooF73YlRfAefUz5jQACCCCAAAIIIBAJWIxosaLFjFaiGDJ6v1V+exHAW867FWt5pyCAAAIIIIAAAgggUEggihmjGLLQss34nhcBfNRhlZb3ZvyIcUwIIIAAAggggEBlBaKYMYohK7t1/7fmRQDvPxM1RAABBBBAAAEEEEDADwECeD/OA7VAAAEEEEAAAQQQQKAoAQL4ophYCAEEEEAAAQQQQAABPwQI4P04D9QCAQQQQAABBBBAAIGiBAjgi2JiIQQQQAABBBBAAAEE/BAggPfjPFALBBBAAAEEEEAAAQSKEiCAL4qJhRBAAAEEEEAAAQQQ8EOAAN6P80AtEEAAAQQQQAABBBAoSoAAvigmFkIAAQQQQAABBBBAwA8BAng/zgO1QAABBBBAAAEEEECgKAEC+KKYWAgBBBBAAAEEEEAAAT8ECOD9OA/UAgEEEEAAAQQQQACBogQI4ItiYiEEEEAAAQQQQAABBPwQIID34zxQCwQQQAABBBBAAAEEihIggC+KiYUQQAABBBBAAAEEEPBDgADej/NALRBAAAEEEEAAAQQQKEqAAL4oJhZCAAEEEEAAAQQQQMAPAQJ4P84DtUAAAQQQQAABBBBAoCgBAviimFgIAQQQQAABBBBAAAE/BAjg/TgP1AIBBBBAAAEEEEAAgaIECOCLYmIhBBBAAAEEEEAAAQT8ECCA9+M8UAsEEEAAAQQQQAABBIoSIIAviomFEEAAAQQQQAABBBDwQ4AA3o/zQC0QQAABBBBAAAEEEChKgAC+KCYWQgABBBBAAAEEEEDADwECeD/OA7VAAAEEEEAAAQQQQKAoAQL4ophYCAEEEEAAAQQQQAABPwQI4P04D9QCAQQQQAABBBBAAIGiBAjgi2JiIQQQQAABBBBAAAEE/BAggPfjPFALBBBAAAEEEEAAAQSKEiCAL4qJhRBAAAEEEEAAAQQQ8EOAAN6P80AtEEAAAQQQQAABBBAoSoAAvigmFkIAAQQQQAABBBBAwA8BAng/zgO1QAABBBBAAAEEEECgKAEC+KKYWAgBBBBAAAEEEEAAAT8ECOD9OA/UAgEEEEAAAQQQQACBogQI4ItiYiEEEEAAAQQQQAABBPwQIID34zxQCwQQQAABBBBAAAEEihIggC+KiYUQQAABBBBAAAEEEPBDoLcf1ah8Laa9+pq8PHWGhGEoO4/fUXYat0PBnbA8PvEPSLU/D/F98RgBBBBAAAEEEChFoCkD+CuvvVHsJ17OOPVEOfvMT8Vfyj5meRF8sh8H99mp5uenY088QgABBBBAAAEEShdouhSaefMXyFU33NxF4tqbbpX3Zs/p8jrLZ0jwyThU+/PQ5QPICwgggAACCCCAQIkCTRfAvzrzDWlra+vCkE6n5dXX3+jyOstnSPDJOFT789DlA8gLCCCAAAIIIIBAiQJNF8AvW76iW4J87+V7LdpAvvfyvcbykYAIPsVZdCzFIwQQQAABBBBAoDSBpgvgRwwf1q3A8GGbdXmP5TtI8BGp9uehQ5tHCCCAAAIIIIBAMoGmC+B3nTBehg/tGqgPGTxI9th15y5KLJ8hwSfjUO3PQ5cPIC8ggAACCCCAAAIlCvSKlv++luhxrX/PX7DQ7XL4sKFl77pXKiW7TBgnL02dJkuXLXfb22LkCPnut78uI4cP77J9lhfBp+NjUe3PQ8eeeIQAAggggAAC5QhUMn4spx71WDeIdqrjpYfR41r/fnnqdLfLnXcaV9FdL17ygRsH3lqXiyksX1gJn8r6FN4a7yKAAAIIIIBAIYFqxY+F9unLe00dwPuCTD0QQAABBBBAAAEEKivQygF80+XAV/ajwdYQQAABBBBAAAEEEPBLgADer/NBbRBAAAEEEEAAAQQQKChAAF+QhzcRQAABBBBAAAEEEPBLgADer/NBbRBAAAEEEEAAAQQQKChAAF+QhzcRQAABBBBAAAEEEPBLgADer/NBbRBAAAEEEEAAAQQQKChAAF+QhzcRQAABBBBAAAEEEPBLgADer/NBbRBAAAEEEEAAAQQQKChAAF+QhzcRQAABBBBAAAEEEPBLgADer/NBbRBAAAEEEEAAAQQQKChAAF+QhzcRQAABBBBAAAEEEPBLgADer/NBbRBAAAEEEEAAAQQQKChAAF+QhzcRQAABBBBAAAEEEPBLgADer/NBbRBAAAEEEEAAAQQQKChAAF+QhzcRQAABBBBAAAEEEPBLgADer/NBbRBAAAEEEEAAAQQQKChAAF+QhzcRQAABBBBAAAEEEPBLgADer/NBbRBAAAEEEEAAAQQQKChAAF+QhzcRQAABBBBAAAEEEPBLgADer/NBbRBAAAEEEEAAAQQQKChAAF+QhzcRQAABBBBAAAEEEPBLgADer/NBbRBAAAEEEEAAAQQQKChAAF+QhzcRQAABBBBAAAEEEPBLgADer/NBbRBAAAEEEEAAAQQQKChAAF+QhzcRQAABBBBAAAEEEPBLgADer/NBbRBAAAEEEEAAAQQQKChAAF+QhzcRQAABBBBAAAEEEPBLgADer/NBbRBAAAEEEEAAAQQQKChAAF+QhzcRQAABBBBAAAEEEPBLgADer/NBbRBAAAEEEEAAAQQQKChAAF+QhzcRQAABBBBAAAEEEPBLgADer/NBbRBAAAEEEEAAAQQQKChAAF+QhzcRQAABBBBAAAEEEPBLgADer/NBbRBAAAEEEEAAAQQQKChAAF+QhzcRQAABBBBAAAEEEPBLgADer/NBbRBAAAEEEEAAAQQQKChAAF+QhzcRQAABBBBAAAEEEPBLgADer/NBbRBAAAEEEEAAAQQQKCjgRQDfp09vV8l169YXrCxvIoAAAggggAACCCAQxYxRDNlqIl4E8P379XPuHyxd2mr+HC8CCCCAAAIIIIBAiQJRzBjFkCWu3vCLexHAb7bZEAc5b/4CWbBwkURXVQ2vywEggAACCCCAAAIIVEzAYkSLFS1mtBLFkBXbQYNsKIjqGWqJHtfjt52MufPm12PX7BMBBBBAAAEEEECgwQRGDB8mQ9sbgRus6mVX15sA3o5k5apVslAD+dVr1tAKX/apZQMIIIAAAggggEBzCVjOu6XNWMv7hgMGNNfBlXA0XgXwJdSbRRFAAAEEEEAAAQQQaEkBL3LgW1Keg0YAAQQQQAABBBBAIIEAAXwCNFZBAAEEEEAAAQQQQKBeAgTw9ZJnvwgggAACCCCAAAIIJBAggE+AxioIIIAAAggggAACCNRLgAC+XvLsFwEEEEAAAQQQQACBBAIE8AnQWAUBBBBAAAEEEEAAgXoJEMDXS579IoAAAggggAACCCCQQIAAPgEaqyCAAAIIIIAAAgggUC8BAvh6ybNfBBBAAAEEEEAAAQQSCBDAJ0BjFQQQQAABBBBAAAEE6iVAAF8vefaLAAIIIIAAAggggEACAQL4BGisggACCCCAAAIIIIBAvQQI4Oslz34RQAABBBBAAAEEEEggQACfAI1VEEAAAQQQQAABBBColwABfL3k2S8CCCCAAAIIIIAAAgkECOAToLEKAggggAACCCCAAAL1EiCAr5c8+0UAAQQQQAABBBBAIIEAAXwCNFZBAAEEEEAAAQQQQKBeAgTw9ZJnvwgggAACCCCAAAIIJBAggE+AxioIIIAAAggggAACCNRLgAC+XvLsFwEEEEAAAQQQQACBBAIE8AnQWAUBBBBAAAEEEEAAgXoJEMDXS579IoAAAggggAACCCCQQIAAPgEaqyCAAAIIIIAAAgggUC8BAvh6ybNfBBBAAAEEEEAAAQQSCBDAJ0BjFQQQQAABBBBAAAEE6iVAAF8vefaLAAIIIIAAAggggEACAQL4BGisggACCCCAAAIIIIBAvQQI4Oslz34RQAABBBBAAAEEEEggQACfAI1VEEAAAQQQQAABBBColwABfL3k2S8CCCCAAAIIIIAAAgkECOAToLEKAggggAACCCCAAAL1EiCAr5c8+0UAAQQQQAABBBBAIIEAAXwCNFZBAAEEEEAAAQQQQKBeAgTw9ZJnvwgggAACCCCAAAIIJBAggE+AxioIIIAAAggggAACCNRLgAC+XvLsFwEEEEAAAQQQQACBBAIE8AnQWAUBBBBAAAEEEEAAgXoJEMDXS579IoAAAggggAACCCCQQIAAPgEaqyCAAAIIIIAAAgggUC8BAvh6ybNfBBBAAAEEEEAAAQQSCBDAJ0BjFQQQQAABBBBAAAEE6iVAAF8vefaLAAIIIIAAAggggEACAQL4BGisggACCCCAAAIIIIBAvQQI4Oslz34RQAABBBBAAAEEEEggQACfAI1VEEAAAQQQQAABBBColwABfL3k2S8CCCCAAAIIIIAAAgkECOAToLEKAggggAACCCCAAAL1EiCAr5c8+0UAAQQQQAABBBBAIIEAAXwCNFZBAAEEEEAAAQQQQKBeAgTw9ZJnvwgggAACCCCAAAIIJBAggE+AxioIIIAAAggggAACCNRLgAC+XvLsFwEEEEAAAQQQQACBBAIE8AnQWAUBBBBAAAEEEEAAgXoJEMDXS579IoAAAggggAACCCCQQIAAPgEaqyCAAAIIIIAAAgggUC8BAvh6ybNfBBBAAAEEEEAAAQQSCBDAJ0BjFQQQQAABBBBAAAEE6iVAAF8vefaLAAIIIIAAAggggEACAQL4BGisggACCCCAAAIIIIBAvQQI4Oslz34RQAABBBBAAAEEEEggQACfAI1VEEAAAQQQQAABBBColwABfL3k2S8CCCCAAAIIIIAAAgkECOAToLEKAggggAACCCCAAAL1EiCAr5c8+0UAAQQQQAABBBBAIIEAAXwCNFZBAAEEEEAAAQQQQKBeAgTw9ZJnvwgggAACCCCAAAIIJBAggE+AxioIIIAAAggggAACCNRLgAC+XvLsFwEEEEAAAQQQQACBBAIE8AnQWAUBBBBAAAEEEEAAgXoJ9K7XjtkvAjURaFsnsniuhIvn6G/9WTRHwqULRNauFvlwTfvPagnb1tekOuwEAQQQaDaBoJeGEn3760+/zM8G/SUYOFRkyEiRwSMl0B/7LbYcBQEEKiIQRFsJtUSP+Y1Awwqk20TmvCnhrGn6M1Vk9kwJ12sQT0EAAQQQqJtA0LuPyOZjJRi1k/6MFxm5rUiqV93qw44RaHQBAvhGP4PUXwX02nPWdAlfeVzC16ZIaC3rFAQQQAABbwUCa6Xffi8JdjpQZNQ4rWc2HPG2zlQMAZ8Esv9jaIH36bRQl6IEli2S8IUHJJz2hITLFhe1CgshgAACCPglEGwyWILxB0iwx8dFNh7sV+WoDQKeChDAe3piqFYBgSXzJHz6NgmnauBO7noBKN5CAAEEGkfAcumDCQdKsO8xIpsOb5yKU1ME6iBAAF8HdHaZUEA7n4aP3ijh9MkShumEG2E1BBBAAAGfBYJUSoIdJ0pw0Kki1hmWggACXQQI4LuQ8IJ3AtrKHk6+Q8KnJmmH1A+9qx4VQgABBBCovEDQp68E+x0nwT5HM4JN5XnZYoMLEMA3+Als+uq//Yqk77tSh4Gc2/SHygEigAACCHQVCAaPkNRhnxUZPaHrm7yCQIsKEMC36In3/rB1OMjw4eskPeVu76tKBRFAAAEEqi+Q2udICQ4+jeEnq0/NHhpAgAC+AU5Sy1Vx2UJJ3/o7CWe/0XKHzgEjgAACCHQvEGw+RlLHf0Vkk826X4h3EGgBAQL4FjjJDXWIb/5T0rddIuGalQ1VbSqLAAIIIFAbgaDfhpI69nyRbXepzQ7ZCwIeChDAe3hSWrVKbiKmuy6X0GZTpSCAAAIIINCNQKCzuAZHnZOZCKqbZXgZgWYWIIBv5rPbQMcWPnOny3nXCcUaqNZUFQEEEECgXgJBEEhwyOk6Ss1R9aoC+0WgbgIE8HWjZ8eRQPjIDZLWiZkoCCCAAAIIlCqQsqEmbcx4CgItJJBqoWPlUD0UsPHdCd49PDFUCQEEEGgQgbTNEaJ3cSkItJIAAXwrnW3PjtXlvD9yvWe1ojoIIIAAAo0mYMMOh1Mfb7RqU18EEgsQwCemY8WyBHS0mdA6rJLzXhYjKyOAAAIIiPsuCe+8XOTNl+BAoCUECOBb4jR7dpA2zrsNFcloM56dGKqDAAIINK6Afaekb7tYRL9jKAg0uwABfLOfYd+Oz/7A3vJbxnn37bxQHwQQQKAJBGwOEZsIUGggaoKzySEUEiCAL6TDexUXcHmKc96s+HbZIAIIIIAAAiZgs3iHD9O/ik9DcwsQwDf3+fXr6N5+RdJT7varTtQGAQQQQKDpBNJT7hLR7xwKAs0qQADfrGfWt+NqWy/pe6/0rVbUBwEEEECgSQXS9+l3jn73UBBoRgEC+GY8qx4eUzj5dgmXzPWwZlQJAQQQQKAZBcLFc8XmGqEg0IwCBPDNeFZ9O6alCyR8iplWfTst1AcBBBBodoHw6Uki+h1EQaDZBAjgm+2Meng84aM3Srj+Qw9rRpUQQAABBJpZIFz3odh3EAWBZhMggG+2M+rb8SyZJ+H0yb7VivoggAACCLSIQDhDv4P0u4iCQDMJEMA309n08FjCp2/TGfLSHtaMKiGAAAIItIJAmE6LfRdREGgmAQL4Zjqbvh3LskUSTn3Ct1pRHwQQQACBFhNw30X6nURBoFkECOCb5Ux6eBzhCw9IyBBeHp4ZqoQAAgi0loB9F9l3EgWBZhEggG+WM+ndcYQSTqP13bvTQoUQQACBFhXIfCeFLXr0HHazCRDAN9sZ9eV4Zk2TcNliX2pDPRBAAAEEWlzAfSfNmt7iChx+swgQwDfLmfTsOMJXaH337JRQHQQQQKDlBcJXHm95AwCaQ4AAvjnOo19HkW6T8LUpftWJ2iCAAAIItLyA+27S7ygKAo0uQADf6GfQx/rPfkPCD9f4WDPqhAACCCDQwgLuu0m/oygINLoAAXyjn0EP6x++M83DWlElBBBAAAEERMJ3yIPnc9D4AgTwjX8OvTuCUDuwUhBAAAEEEPBRIJw11cdqUScEShIggC+Ji4V7FGhbJzJ7Zo+LsQACCCCAAAJ1EbDvKPuuoiDQwAK9G7juVN1HgcVzJFzPH0YfT03Zdeq/scgmg0X6bCCyfIn+6DChjdgZrN+GHRTrPxRphM9rs9h3yPv5qHcfkd59O+q2ZmXHYx41jYD7jlo8V2ToVk1zTBxI6wkQwLfeOa/qEYeL9I8ipXkEhm0twW4flWD8/hJsMCDnuMJQJ0RZ8I5O2PWU+3EBffsSbvljzstZ3j2xYHmFBf9LJFy6QMKXHhF577Wuy7W/kjr3f0UGDe/2/fgb4YPXSPjsPfGXuj7ecnvpdcZ3s69bLmz62p9kn3f3oFLH0932876e1P7gT0ow8ejMJjWdLX39z/NuPv5i6huX6YVZJnBN3/RrkTdeiL8t5ZyHLnYfLJD0FRf0eOGUOukbImN3c/VI//2XIm++5B4Hh5+ln8lDcupX7JPwvr8WnI0zdfK3JBi9U3Zzbdf8WOTdGdnnPGgegVAbmwIC+OY5oS14JATwLXjSq3rI+keR0gQCQSDBRz8lqb2P7PZgAl1Gho2SQH/Sg0dKeNflOcsGQZ4MPWu9HzTC/QQyTmTngyR8/3VJT/q9yLJFOeu7J7qNvNvpuqSEovXpoQQTPpK7xFY76l2FzXTfC3Nfz/Msbz1KPZ482+3yUtn2eu7a7UM7R8UU22d0vvKtUuZ5yG7b6qIXZMH+J0j46I2FaxavU/zc5rxeeBOd3y34GdlY7y6N0s9krAQTDpSQAD4m0kQP+a5qopPZmodCAN+a5716R80fxerZ1mrLGqylPvnvEoyekN2ja21fMk/CuW+JaFpBMFiDcG29CjYc6JYJn703u2znB2HbepE5b2Ze7qsB/IabZtezF4MttpPU8V+V9NU/KpiSE34wX1vvP+i8+Y7nKwu8Z0tpekSw40S3fKipP0GqlwatGrhOOEDCJ2/t2E4Pjyp1PHl3U2H7vPso88Wyz4PuP9jnKAmn6mRvi2aXXpvliyScP6vregOH6V2i/u71cNWyzJ2ezkutXt75lezzYKcDshcx2c/HDvuItdqLpVpRmktgEY1NzXVCW+9oCOBb75xX9YgtLYLS2ALBfsdJTvCuF2Xpf1wksvC97IFp8owWbarVdINgyx1cKk32zc4PVq/IBOfx1/UCIPWRUzWg3se9Gmw+RtMiDpXw+fviS+U8DiffLuGLD+W8VsqTYPu9OgK8Fx8U0f25IF5b5UsJ4KVCx5Ov7hW3z7eTMl8r9zzY7oNevSX1ibMkbSkqJRY7V/nOV+qT3xbZZme3tfDlxyR8+LqSthzsnLk7Y/nR4cuPSLD7x93nJdhh78zFRklbY2HfBey7Kt/NJt/rTf0QiATy3OOO3uI3AgkE1q5OsBKreCOgqTDB/sdnqxNqfnr6yu/lBO/ZNzVpRd5+RcLHb+p4qdhH2oEsfdvFEi54t2ONkdt0PK7Co3j6jOXty7uvur0ElmOvufFllUocT63syzrQ8lYOZ0zObiDQ9KVAU6i8KJuP1btKIzNV0ZSZcNrT2WrFPzfZF3nQ+AJ8VzX+OWzxIyCAb/EPQMUPnxlYK05ayw1azq+1jkYlrR1DpVrnVNNY4hOqVLVD2UaD3N0CO67Q0ijenynhq1Oiw9Q0mk658dl3SnhQ5vHU1L6Ew6rkou6CcHosiD/kdJF+G1VyF4m2FT//4Rsvuo7V4cqlmW1ZXvwmQxJtl5U8FqjW3zWPD5mqNZcAAXxznc/6Hw1/FOt/DsqoQZQjbptwgcycN8rYWhGrpmJ/gtZrrnyViuW5Rx0p3XHp3YPwtSkShmm3R3fcNoRguaWM46m5fbnHmmR97fQbPniVhO2tn8GAjbWztAbx9Sy9tG/EuEzfCKtGONNG4NHPR/sFnn1uLD+e0mQCfFc12QltvcOJfXu23sFzxFUQ+JAUmiqo1maT2iHVpZO07y1sH7avaju3TqRbaetmtL9Yjn30WqV+57SwRi3A1sLaPqW6dX60HPmySjnHU2v7sg60jJVt1B7tiBwfgcal0ZSbwlRGlYLt9pCgfW6A0Dpbt/fjCadrmlV7sbsjlCYT4LuqyU5o6x1Ox73y1jt2jhgBBOICG20af6bjtOuoL9UqFrDqMJXBZlu4PdgoNz2N4R7se6zmTB+cv0bampa+/mf53xupHWSHbJ7Zj6XPaN5+VMLpT0swKjPutwX5Ljc+erOU3wmOJ2fztbTP2XHpTxKfB9uVBfBawhful1A7jQYjtnEjAaV0bPf0X/6r4ChEbsUq/BN1XnX1sr4RUdH+H+GyxRLo5GUuP15HSxId8pSCAAII+CBAAO/DWWimOvTtL1JgqLZmOtSmO5ZOQaQs7Xls9KIMtHXTTcpjC1uaio23bWOBx3Ltwweu6qajbMcegoFDRewnTwnXrsrzaualYOeO1tNwhua9x2aPtTSJ8LDPZupiE/hsrLnyNstsoVKh48nZRbXsc3ZSmSdJz4PbezTLqV6wpe/5s6Q+832X2hQM3TIztOTTt1WmksVuRS+8ZHT7yDWaThXO6Oi8apuwTrfBPke6rbkx4Qngi5X1fzn7rqIg0MACBPANfPK8rHrffgTwXp6YIiqVzuSDZ5eMBbrZ1xI8CCxo1zSFfCW00VseulZk5vP53s55zU1/bmPK5yvd5bPqRUIwbr/sGvG0CPeijmnvWuTH7JYJJDXXOXz69uzy+R5U6nhytl0l+5x9VOhJovMQ7VvH3c8WnVMgfP5+CfY83L3kJnfSOyJRCkt2uSo+cGO/R/0WbFSiTvMMuM9LFMCP21fC+/VCs21dFWvEpmsmYN9VFAQaWIAAvoFPnpdV54+il6elqErZREnxYjOUaoBdzZK+6zI34kcx+wgf+FvJ48AHY2P5zTq+t2s9tuOKdsxd0QAANnlJREFUldAmpmp/7tJoegjgY6t2eVjK8eSsXAf7nP2X8CTJeehu8+Fjf5dQJ0sK9A5E0KevpA77jKT//svM4hW6gOxu3/Z6fBjLcOUy7azacbcmWi/Ui8NA/64FGwzQfhJ7iqVdUZpAgO+qJjiJrX0IBPCtff4rf/TtMyFWfsNsseoCmjJjo7JEo7UEAzezkd7LLjYcX/r3X81uJ/jYv0iqvdU1dfjnNPf5uzlpLdkFK/Agnt9sLefB0V8ouFWXK68581Jg9J2qHE+V7HWmqoLHm32z2OWyK1TogY5GEz54tQTHfdltMNA7IaITJ4mlNundlujCqkJ7y92M5d+398GwN1I2Ek1sNJrchTPPXBoNAXw+msZ7je+qxjtn1DhHoMi/7jnr8ASBbgVcC2e37/KG1wLW4qmd9rJFJ7epSNF8Z70yyP6Ej90k0RjbNvZ7MPGYiuymy0Ysv3mbXbq83NML8Zz5vMvGjsWOqyLHU0n7FbEcfhv/vqfSfyNxaUHRcmu6708QLVLJ39aiHb71cnaTKb3AE2sdXf9h9rVqPEg0sozly3fur1CNyrHNqgvwXVV1YnZQZQFa4KsM3HKbH9I+m2HLHXhzHHA4+w1NM8mkmFh+cPjELRrUV6gza0SkHU7Dh6/PtobbzK/hq5Mrnq4TjN9fG6AzbRTh8sUSTrk7qkHX3yNGS0qXt2I58+EDV2uuczf59p3XrtDxVMo+XPh+Rw3tXOrwlvGOux1vtj+KZiCN3li2KHpUs9/pe6+U1Nk/0QuJvhJoJ+fgI6eIrFtbvf3bkJ/j98tuP/3SI9qJOuaWfSfzwI28Y2PW6+fJ/b+YfEenJXjacAJ8VzXcKaPCuQK0wOd68Kxcgc7BQLnbY/2aCoRP3Cxhe4dKGyUmOOQ0jWgrn8gQvvKYhO0jeljrb+qIcyp+nPH0mXDqExrA39X9jwbs2ePWUWYsd76UUonjqZh9bDx9dw53O7TgoaT2zoyyYguFNgZ6pS/YCu69/c0P5kn4VMcINMEeh2WGbixm3STLjN1dgv4buzWtU66l8RT8fMRGp4nPKZBk16zjiQDfVZ6cCKqRVIAAPqkc6+UVcOMl532HFxtCYNFsCa01sr2kdOSN1Kf+n6YNdJOKobNYio2jbr9LLNbqmg2at9pBgt0+WuIWCiw+fJRYek5UwmlPRg/z/161LGd8+Hjwn3+Frq+WfTyVstc+B+GMZ7IVDD5yski+SaqsFXr/EySwnPP2Er74UPSw5r/DybdLuHiO269r6R49oWp1SOkY9Nnyxosi7TPDZl/r9MAuAKPi8uY1f57S2AJ8VzX2+aP2OiozCAhUVGDwCJdP64aaq+iG2VitBMLHNUd9zK4ulcH2GWy1o6S+eKHIovclnP+ODhO6QmRDHTVkkyEi1hFQW9DbLvqSvl7i8HrzZ+moMg+Itba6/RxyemYa+05D+bk3rR6aK1+o9TN87t7sCCHx5cIF74oseC/aTLe/LUgLtm3Pmbfcecuht9laiy0lHk++zVbKPn2fpqRsPU4CS/vQOwq9TvxXPXfqbWkiK5Zm0qRG6rmLjchjs5BaK3RPpZTz0NO2ct7XlKX0vX+RXqdfkPNyxZ8M2ERk212zm03HJ2/KvtrpgaaWhUvm6kzFI9wbdoEX6jCYlMYUcH0+9LuKgkAjCxDAN/LZ87Hu1hJrnR/bp6j3sYrUqQcBGzXmTxdIcPjnNC88kyfsJl0apq3a+lPJEj6qwwjuOFEDzU3cMH2pj+swgrdclHcXwabDROynm5JtdXb5zZl8dlu02NlVw9efk+yQgZbrrDnxxQS08eqUcjzx9bKPK2WvdxTS//iNpI46pyPoLHD+Qh0DPT3pd0Xl/Rd9HrIHVcKDWdMkrRdSKe1/Ua1iue+B9QvQElrLu7XAF1HCqU9KcOBJbslsP4kaDHVZRNVYpFQB+45KcNew1N2wPALVFCCFppq6LbrtaGr6Fj385jhs65h528Ua1P1ewjf/6aaU73xgoY3AMvdtSdu46R8m7HDY3gE02rZL59huz+hpst82KZO2PFtxdSymhdUW1k6TFsRHJUkajVTieCpl/54G5Xohln70Rk1NmavpSjrKUKzYkKHhuzMkfdflkr7mx10mMYotWtOH4YPXiI3NX60SP6/ha1OKnpjJAvioBDpyj5TYTyJal9/1FwhGja9/JagBAmUKZHun6RddWOa2WB2BjIB2Tmy76odoNJuAjZs8ZAuNinXG1lXL9Ufzxqs5Ukiz+ZVzPJWwt1bnTYeKDNDUIDt3NtxkdzPYllNX1kXAc4FeZ3xXZMvtPa8l1UOgsAApNIV9eDeJwMht3cyFlo5AaSIBSzeYPbOJDqiBDqUS9tYCbzPrVnl23QZSpaotKGCz6srmY1rwyDnkZhMghabZzqgPx2M5yNt3jGzhQ5WoAwIIIIAAAu67qb0PBBoINLIAAXwjnz2P655olkOPj4eqIYAAAgg0vgDfTY1/DjmCjAABPJ+E6giM0iHsNhlcnW2zVQQQQAABBEoUcN9J+t1EQaAZBAjgm+EsenkMgQ7DV72h4Lw8ZCqFAAIIIOCtQOY7KTt2h7f1pGIIFCNAAF+MEsskEgh2/5i48cMTrc1KCCCAAAIIVEbAvovsO4mCQLMIEMA3y5n08Th0ps6gihOy+HjI1AkBBBBAwD8B911ks0dTEGgSAQL4JjmRvh5GsO+xOushHzNfzw/1QgABBJpdIAh0ZmX9LqIg0EwCRFbNdDZ9PJZBwyXYcaKPNaNOCCCAAAItIBCM0+8g/S6iINBMAgTwzXQ2PT2W4KBTJejT19PaUS0EEEAAgWYVCHr3FfsOoiDQbAIE8M12Rn08noFD9fblcT7WjDohgAACCDSxQLCffvfodxAFgWYTIIBvtjPq6fEEE4+WYPAIT2tHtRBAAAEEmk0gGDRC7LuHgkAzChDAN+NZ9fGYdAiv1GGf9bFm1AkBBBBAoAkFUofrd45+91AQaEYBAvhmPKu+HtPoCZLa+0hfa0e9EEAAAQSaRCC19xEi+p1DQaBZBQjgm/XMenpcwSGnSbD5GE9rR7UQQAABBBpdIBi5rQSHnN7oh0H9ESgoQABfkIc3Ky6Q6iWp478iQb8NK75pNogAAggg0NoC9t2SOuGrIvpdQ0GgmQUI4Jv57Pp6bJtsJqljz9cJnvgD6+spol4IIIBAownYd0rq2C+J6HcMBYFmFyCAb/Yz7OvxbbuLBEedI0EQ+FpD6oUAAggg0CAC9l0SHHmOyLa7NkiNqSYC5QkQwJfnx9plCAQ7HUieYhl+rIoAAgggkBGwnPdgwoFwINAyAgTwLXOq/TzQYJ+jJGUTbVAQQAABBBBIIJDa91ix7xIKAq0kkM1fCLW00oFzrH4JhM/cKeHD1wkfQ7/OC7VBAAEEfBVwaTPW8k7w7uspol5VFCCAryIumy5NIJz6uIR3Xi5huq20FVkaAQQQQKClBKzDquW8kzbTUqedg40JEMDHMHjogcCbL0n6toslXLPSg8pQBQQQQAAB3wTcUJE22gwdVn07NdSnhgIE8DXEZldFCixbKOlbfyfh7DeKXIHFEEAAAQRaQcAmArS5RBgqshXONsdYSIAAvpAO79VPQNNowoevl/SUu+pXB/aMAAIIIOCNQGrvIzIjlzGHiDfnhIrUT4AAvn727LkYgbdfkfR9V0q4eG4xS7MMAggggECTCQSDR0jqsM+KjJ7QZEfG4SCQXIAAPrkda9ZKoG29hM/cIeFTkyRc92Gt9sp+EEAAAQTqKBD07iuBDjMcTDxapFfvOtaEXSPgnwABvH/nhBp1J7B0gYSP3ijhjMk6Uk26u6V4HQEEEECggQWCICXBuIkSHHSqyMChDXwkVB2B6gkQwFfPli1XS+CDedoaf5uEU5+QUFvnKQgggAACjS8QaCt7sNMBEujETDJoeOMfEEeAQBUFCOCriMumqyywfLGEz98v4TQN5JctrvLO2DwCCCCAQDUEgk0GSzBeA/fdP6ajywypxi7YJgJNJ0AA33SntBUPSCcRnjVdW+R1IqjXnpVw7epWROCYEUAAgYYRCPr2k2D7vTMTMY0ap/XOhiMNcwxUFIF6CmT/x+gU9hoFURBocAGbxXXOmxLOmqY/U0Vmz5Rw/boGPyiqjwACCDS2QNC7j8jmYyUYtZMEW2vAruO5C8NBNvZJpfZ1FSCArys/O6+6gOXIL56jw1DOcb9lkT7WzrBirfQfrmn/WU0ufdVPBDtAAIFmFbDcdenbX3/6ZX426C+BdT4dMlJk8EgJ9Ed0KEjppUE8BQEEKiJAAF8RRjaCAAIIIIAAAggggEBtBFK12Q17QQABBBBAAAEEEEAAgUoIEMBXQpFtIIAAAggggAACCCBQIwEC+BpBsxsEEEAAAQQQQAABBCohQABfCUW2gQACCCCAAAIIIIBAjQQI4GsEzW4QQAABBBBAAAEEEKiEAAF8JRTZBgIIIIAAAggggAACNRIggK8RNLtBAAEEEEAAAQQQQKASAgTwlVBkGwgggAACCCCAAAII1EiAAL5G0OwGAQQQQAABBBBAAIFKCBDAV0KRbSCAAAIIIIAAAgggUCMBAvgaQbMbBBBAAAEEEEAAAQQqIUAAXwlFtoEAAggggAACCCCAQI0ECOBrBM1uEEAAAQQQQAABBBCohAABfCUU2QYCCCCAAAIIIIAAAjUSIICvETS7QQABBBBAAAEEEECgEgIE8JVQZBsIIIAAAggggAACCNRIgAC+RtDsBgEEEEAAAQQQQACBSggQwFdCkW0ggAACCCCAAAIIIFAjAQL4GkGzGwQQQAABBBBAAAEEKiFAAF8JRbaBAAIIIIAAAggggECNBAjgawTNbhBAAAEEEEAAAQQQqIQAAXwlFNkGAggggAACCCCAAAI1EiCArxE0u0EAAQQQQAABBBBAoBICBPCVUGQbCCCAAAIIIIAAAgjUSIAAvkbQ7AYBBBBAAAEEEEAAgUoIEMBXQpFtIIAAAggggAACCCBQIwEC+BpBsxsEEEAAAQQQQAABBCohQABfCUW2gQACCCCAAAIIIIBAjQQI4GsEzW4QQAABBBBAAAEEEKiEAAF8JRTZBgIIIIAAAggggAACNRIggK8RNLtBAAEEEEAAAQQQQKASAgTwlVBkGwgggAACCCCAAAII1EiAAL5G0OwGAQQQQAABBBBAAIFKCBDAV0KRbSCAAAIIIIAAAgggUCMBAvgaQbMbBBBAAAEEEEAAAQQqIUAAXwlFtoEAAggggAACCCCAQI0ECOBrBM1uEEAAAQQQQAABBBCohAABfCUU2QYCCCCAAAIIIIAAAjUSIICvETS7QQABBBBAAAEEEECgEgIE8JVQZBsIIIAAAggggAACCNRIoHeN9sNuEEAAAQQQKE3g9eckXL/OrRNsPkZk4NDS1mdpBBBAoEkFCOCb9MRyWAgggEAjC4TTnpT0bZe4Qwi22lGCsbs38uFQdwQQQKCiAqTQVJSTjSGAAAIIlC2w4gMJ77/KbSbYagdJnfpvIn02KHuzbAABBBBoFgFa4JvlTHIcCCCAQDMIhKGkJ/1ewtXLJTVuXwmO/oJIrz7NcGQcAwIIIFAxgSDaUqglesxvBBBAAAEE6iKwdIGErzwustGmEuz60bpUgZ0igAACvgsQwPt+hqgfAo0i0KadDTX1wZUN+ov02yi35iuXiqz/MPOapUMM2CT3/c7PNJBzZYMBuq0Nc9+Nb2vgZvpe9k9Z7nLRM9vW0oUS6nqBbWvjwSKDR4ikekVLZH73dAzxpdNtIvPfybwS6P6Hj46/2/VxfNvRu4FmMZpD7wq0MNv2F88V+WC+iLXH2DEOGtb1PNi+89UlqlP8t51DO5edy4olIkvmSajnOxiwcfu+1NMcOpdSz9WaFSILZ0u4bKEE1ml1sy3z16HQfsr9fHXeNs8RQAABzwRIofHshFAdBBpWYM5b0nb1j1z1U3sfIcGhZ+QcSvr2SyR8e6p7LdCgMHXOz7WVdVDOMtknbeul7dJvuqepfY+V4OBPZt+yB/Ft9fr6H7sJ8EIJX3hQwhf1Jwq0Y1uxQD7YYW8J9juuY3STHo4htrqEM57RTpYXZ1/qdeb3RWyklO5KbNudFwn6a6A8eKQEe3xcAk0bEQvsiy16IRFOuVvCyXe4tJP4aoFtZ8vtJNjlYAkmfKTjrQJ16VhIr28O/bQEex/Z8dL8WZJ+5AYJ33yp47X2R8GGAyXYfi8J9HzJJkOy7xd1rvSCI3xG62/HYQF/pxLo9oIDTnTH0emt7NP4fsr9fGU3ygMEEEDAU4ESviU8PQKqhQACDScQrl0t6QcynRSrUvk1KyV9wy8kfe9f8gbvts9Qlwlffkzzq5O1Y4Sv6Lqx0vl57K0eH4arV0j4/utu1JW0XQRZ636RJbznz5J++LouwbutHoZpCd99VWTu20VurcBii2ZL+ur/yRu821oWeIcvPVL63YQlcyV91Q/1GK7PG7y7bS9bJOm7Lpf0TReKrFpWoJKZt6r++eqxBiyAAAIIVFcg2TdXdevE1hFAoAUErAVbdv6nyLa7Vvxo0//4jYTvTHfbDfr0lWD/E8SGIpTNthBZvkTChe+JDVMY9NX0kO7uAhSqlaWQRHcThm3tLhLC6U9L8LF/KeqCINhxoqT2+oQL1MOVGpDOfl2D30clXLtKA/mZEj56owSHnF6oBpn39BjTFjRrcS3g+x8vwba76Igt/TRlSHPJZ011dwqCXQ9xy+T7J1uXfG+69KTMG2m9UAg/XOOeuM6l1qK/xVgRazFfoJ6vTdEme/1K6Sk1Kr4f67B686/1fLzvXg0s7/2gUyUYsY3Ippr+Y2k6szMe7iJn5guSvuMPOirNv8e3kvdxNT9feXfIiwgggEANBQjga4jNrhBAQAPNoZrTrAGb9ZtP3/dXSZ39s9JbbQtAhi/c3xG8ax546pRviWiQnS2aUx9oIG+Ba9ISvvKEa90ONIc+palCbdf9NNOi//rzut19etxssLGmDm2xnVvOZY3rOsGO+2pL9A+cS/jac0UF8OH7r2X3FexzlKbgHJZ9LpbSsvlYTRE6vuO1PI/idcnzduYlbcmXOW+6x5bzHhylI8NEefvWR8HSfzQdqdTi0pui4H346MxwkVrvbNHzFtiPXpSkr/u5hNpa79J33tIUnm30QiVPqfbnK88ueQkBBBCouQApNDUnZ4cItLZAoJ0SLSfbSqgdLsMnb6koSPjsPdntudz5ePCefae8B9l0mS23Fxk1XoJNrCOtHk+ntJqS9hKfafSDeSLr1va8+oqOfHEL1qtW1uidgagD8lC9GIqC93J2qB1pw8dvym4hdeinxC468hb1DQ48KftW+qHrso87P6j256vz/niOAAII1EOAAL4e6uwTgRYWCNd9qK3Lp2VGL1GH8Jk7RTS/uiJFO1mGNhKLlkBHmQnG71+RzeZsZM4bErbXN9huD/dWttXdWobzdMLMWb/QExs9xhVtly8mN3/IyOzWwhce0MfR+tmXK/NAO9m6jra2NU33EXUuu+h5Clctd5sJtPVdth5fcJPWuTewkXW0hAveFdF0o3ylqp+vfDvkNQQQQKAOAgTwdUBnlwi0tIC1LOvwhMFHtcVVS6gjzlh+dSVKOPft7GaCLbR1PN+whtklkj0IX37crRjotoMdMmk4buQYfTVMa6fRqU8k27B2YhUdOtGV4aM0n7xXj9sJxu8nNuKKlbTm9Kdv/L+OoS17XLt9Actrt+E/8/3EthHsdqh7ZgFy+pqfSPjcvR3DgsaWK/qhDXfZXgI73p6KnUtLv4qK5sfnLVX8fOXdHy8igAACdRAgB74O6OwSgZYWWK8BvBYb1jCwjpvvzsj8vPyoBDsfVB5NNA69bWVTHUO80kUvNsLpT2W2uuUOOv655rJb0U6XwaARmRxtnYTI8tELFh11xt110IBfVn7gRqCx1B/rF2BDP6Y+cnLB1bNv6oVQ6pgv6cylvxMLrC0/vE1/Ak3rSe1ztHYQzp8nnl1fH6T/+bCI/eQpvb59pZ6oTDuPDbcZzH1LwrdeznS2vf9vEjzxDwl2/5gEex5eWudV3VcYD8Bjw07mqUb2JWuBj+4x2Pqus2v23fYH1fx8dd4XzxFAAIE6CdACXyd4dotAywpoEByV1CfOkqA9VSTUoRDFJvEpp6xd2bF2d/nUHUuU/Cic+bzrrGorWut3vATjMq3xLr1j3tvxt7o8TmuQ33b5f0jbFRdI2/U/l/TjN7vtWmt6cMx5pY3MM3Z3SZ3xPQm2HpfdTzhrmrTdqMNoaqdY6zBckaKTI1mH4NRBp2Qmw9KN2sgw6SdvlfSl35Dw6dtK2018OEgbB7+Y0l8njYpKfP3oNftdzc9XfD88RgABBOooQAt8HfHZNQItLzBkc9daHT41yeVDh9o5MTjynE7pI1GbaxFaGw/pWCjeGt/xalmP3Ljx7VsItO6iw1Fmi3XubC+2nMvrjl4o4rebfOjcX3TfkbPQNjQFJfWp/yeidzPSk28X0VZ4a823ISnTOkJO6jMayHfTym35+6k9dUjLfKXzhFKa1mOj2thoN+Hz92kajf7Y+O/W+q8TPKV0fP/Ok27l26x7LV6fYs+V3q2Iik3u1GOp9Oerxx2yAAIIIFAbAQL42jizFwQQ6EYgsLHLpz0loY1bHqXR6OguQSrlcsq7WS3vy8GgYR2v6+Q/FS3WOdU6qbaXtmt+HD3s8tvSbAKdxbS7PPaUpQ/ZDLBawmlPSPqJWzQtZbUbxSaYeEyX7RX9go51n7Lx7m3G1Dsvl1DvBFiAnb77T5L65LfzbsZ1DLXRdEopNhSnBfKapuNmgNWRhFxfBm2F76V3BKIhMgttMrBx3qOyfHH0qODvcFlsuU2HF1w2erOSn69om/xGAAEE6i1ACk29zwD7R6DVBXr3ldRhn3UKbmz4e67IzETaq0/pMgM7gkKb2VTD49K30c0aNvGTdVItprjRVd54sftF+2+oY6ePcD9ukilrzdcSak652BCS5ZZh2iJ/8jf0Iqi9I6xZZEe4KXfjsfU1/ckFyLG+C+F7r8YWKPBwUEcAbncKejxXNoxlfPSb+MVagd1IJT9fhfbDewgggEANBQjga4jNrhBAoBuBMbtmJwKyWTnd0JKac11ysaEj22cPtaEewxk6O2iFSpQ+Yzn7vU7/jvQ647+6/KSOOje7t7Sm0RRVbDKowz7jFnUjvNz956JW63EhG3KxvWXdzaBabv+CAjvM6Q9Q7J0PbUEP2ofBdBM0vVr4XIXa0dZy7q0Eo3fSsej7usdF/VOpz1dRO2MhBBBAoPoCBPDVN2YPCCBQhEDqY2dK0LefW9JN7qQT/ZRcLEf7oFOzq4UPXSOiI6eUXebp+PI29riVMbvp5E0aQNooNJ1+bBSdbGrIm/8UWb08s05P/+r2orHkw1lTXSpRT6u49wu11q9YIuLuQmjAax164x1Ai9p4bCE7Dk3x6a6E0yd3vDV0q47HhR7psJCp9qFEbbHwwWtFFryTf433XtMJv25177lReiw9qcRSkc9XiftkcQQQQKBaAuTAV0uW7SKAQGkCOiRjoMMnhg9c7TpFlrZyx9I2eVPwzF2Z/G9tDU5f9UPtdPlxkZFjMi2+lmturcQW3Fqny2O/1LFyN4/iM6zmtDbnWT7YaX9NhcnkhIea2++GWMyzXOeXUoeeIWnrfKrjsocPXiOBXSgM2KTzYjnP0zf/RkddWafB/0QdI30rvfugQ2day7QG9unJd7i8dFsh2H6vnPXiT+yOh2jfg3wlUDPZbItM59jbLnEXL8HoCZmLFGvhX7NSwrdf0QuOR9zqdgEWbLNzvk3lf23M7jrk5U7iLlp0DPz0337gOsjKyG3dsbihJmfP1A6z92v6UltmH7scpMe6df7tFXq1Qp+vQrvgPQQQQKBWAgTwtZJmPwgg0KNAoKOhBDrEYqgt3uWU1Cf/XdJ3/UncsI82dvuUu/NuLth8rAR534m9qIGj5b9bccM8atBZqAQ7HSCiAbwVNxqNjZFeTNGA2DqGho9c74aUDG2c9eO+3OOaNvNs1Dqdb2EbKz342Bn53nKvuXHddWz3fCWlLd2BBfBawvXrRDTNJewm1cVNbHWkphDZRUQJJXXS1/Wi7SpJv/RIZjQbvfDIV6xTs3XwDQ48Kd/bRb1Wqc9XUTtjIQQQQKCKAqTQVBGXTSOAQIkCllZhY8N3Hr6wxM1Yy7V14kzpkJSBjWijo6ZExQWCliuvrdLBBA22eyraGdV1StXlgu20Jbt3D51rdUKnQFuQrdgoMBKl3rhXCv8T7HNkNi88Pf1pkUIdYXVTwd5HSKCjzuTzslQey61P/ct3RZJ0CI5XVS8CUrsfmknFib9udVCPYAcdivKsH2fTgDotUviptdrreeqlY8xbbnuw0aY5y9twkXY3InXGdzPpUVHH3JylinxSqc9XkbtjMQQQQKBaAtnGJx39oXLDNVSrtmwXAQQQSCqwXHPCNeVDBg8vP6BNWodqrWeTF63SPHWb3MguMKwjbymdPEup19pVOnus7udDzYm3NJoqTJjlzpOm1IiNKqSTW1EQQAABBHIFCOBzPXiGAAIIIIAAAggggIDXAqTQeH16qBwCCCCAAAIIIIAAArkCBPC5HjxDAAEEEEAAAQQQQMBrAQJ4r08PlUMAAQQQQAABBBBAIFeAAD7Xg2cIIIAAAggggAACCHgtQADv9emhcggggAACCCCAAAII5AoQwOd68AwBBBBAAAEEEEAAAa8FCOC9Pj1UDgEEEEAAAQQQQACBXAEC+FwPniGAAAIIIIAAAggg4LUAAbzXp4fKIYAAAggggAACCCCQK0AAn+vBMwQQQAABBBBAAAEEvBYggPf69FA5BBBAAAEEEEAAAQRyBQjgcz14hgACCCCAAAIIIICA1wIE8F6fHiqHAAIIIIAAAggggECuAAF8rgfPEEAAAQQQQAABBBDwWoAA3uvTQ+UQQAABBBBAAAEEEMgVIIDP9eAZAggggAACCCCAAAJeCxDAe316qBwCCCCAAAIIIIAAArkCBPC5HjxDAAEEEEAAAQQQQMBrAQJ4r08PlUMAAQQQQAABBBBAIFeAAD7Xg2cIIIAAAggggAACCHgtQADv9emhcggggAACCCCAAAII5AoQwOd68AwBBBBAAAEEEEAAAa8FCOC9Pj1UDgEEEEAAAQQQQACBXAEC+FwPniGAAAIIIIAAAggg4LUAAbzXp4fKIYAAAggggAACCCCQK0AAn+vBMwQQQAABBBBAAAEEvBYggPf69FA5BBBAAAEEEEAAAQRyBQjgcz14hgACCCCAAAIIIICA1wIE8F6fHiqHAAIIIIAAAggggECuAAF8rgfPEEAAAQQQQAABBBDwWoAA3uvTQ+UQQAABBBBAAAEEEMgVIIDP9eAZAggggAACCCCAAAJeCxDAe316qBwCCCCAAAIIIIAAArkCBPC5HjxDAAEEEEAAAQQQQMBrAQJ4r08PlUMAAQQQQAABBBBAIFeAAD7Xg2cIIIAAAggggAACCHgtQADv9emhcggggAACCCCAAAII5AoQwOd68AwBBBBAAAEEEEAAAa8FCOC9Pj1UDgEEEEAAAQQQQACBXAEC+FwPniGAAAIIIIAAAggg4LVA76h2Tz31VPSQ3wgggAACCCCAAAIIIOCpQBDVa82aNWH0mN8IIIAAAggggAACCCDgpwApNH6eF2qFAAIIIIAAAggggEBeAQL4vCy8iAACCCCAAAIIIICAnwIE8H6eF2qFAAIIIIAAAggggEBeAQL4vCy8iAACCCCAAAIIIICAnwIE8H6eF2qFAAIIIIAAAggggEBeAQL4vCy8iAACCCCAAAIIIICAnwIE8H6eF2qFAAIIIIAAAggggEBeAQL4vCy8iAACCCCAAAIIIICAnwIE8H6eF2qFAAIIIIAAAggggEBeAQL4vCy8iAACCCCAAAIIIICAnwIE8H6eF2qFAAIIIIAAAggggEBeAQL4vCy8iAACCCCAAAIIIICAnwIE8H6eF2qFAAIIIIAAAggggEBeAQL4vCy8iAACCCCAAAIIIICAnwIE8H6eF2qFAAIIIIAAAggggEBeAQL4vCy8iAACCCCAAAIIIICAnwIE8H6eF2qFAAIIlC3wu2d6yX6X9ZEla8reFBtAAAEEEPBIgADeo5NBVRBAAIFKCfzh2ZT829295YU5KTn7lt6yPl2pLbMdBBBAAIF6CwRRBdasWRNGj/mNAAIIINC4Ale+mJLzJvXWA8j+iZeTxrfJ305eL706XmrcA6TmCCDQEgL9friBt8e55ntr61o3+wtPQQABBBBoEoFrX07JF2/LDd57pUK5eVov6a33XP98IkF8k5xqDgOBlhHo38efNubV6/xoBSGAb5mPPweKAALNLnDz9Ey6TBgGct7ebfKHKb3cIf/1pPVy5k295YZXMkH85cevl5Qf30HNfko4PgQQqIDAkgs+rMBWKrMJX+4KkANfmfPJVhBAAIG6Ctz+Wko+o0F6WoP3z+3eJr8+cn22PiePT7uW91QQyjUv9XIt9P60Z2WryQMEEEAAgSIFaIEvEorFEEAAAV8F7pkZyKdutI6q+nvnNrn4mPWx7PdMrU+bkNb318s5t/aWv76YaYn/fZ7lfD1G6lVbgedmB3LfGyntBB3I1PmBLF4dyDJN+R3UX2SLTULZfONQxg4OtW9FWvbdMtnl4OT3ArlpWkpmLg5k9vJA3l8WyJLVIpto2vPg/qHsNCyU3UeG8vExadlr82T7qK0ae0OgdgIE8LWzZk8IIIBAxQUeeiuQT97QR9a1BXKydlS9/ITu02PO2CUTxFsH1yuezwTxFx3V0VJf8cqxwYYSWKFZCpdq2tVlz/WSWR/kz7FasFJkwcpAXpyTObSLnhbZZlAop+uF49f3a5OBPfQ5tIuAXz3VS657uZe8tST/PhZrEG8XDDMXi9w6Q+T7D4mM2jSUc/dsky9qathGfRuKlcoiUBUBAviqsLJRBBBAoPoCT2sL5snX9ZG16wM5Zoc2uVJz3XsaZeazu2WC+C/f3lv++KwF8aFceERb9SvLHrwWsM7P39JhRy1wtrJh31A+MVZb17cKZcKwtAzfSGRjfc3ef3dpIO8sFXlxbkpumppygfhPH83c2bnkmHVy+Nj8reX36p2iL93ex7W02z4GaMfEk3dKy24jQtlqYChb64+1vC///+3dCZAU1R3H8f90z+zFcsihKIKIEkKM4oGoSKIRoiSKN4dgAiRGE41KjMFKSq2UYtQENUaFMrEixqByRESlEAo0REBF41GW8UANimiQoOFaYGe6J+8/Y+8MK+LsTvdu9/b3VS0zzM686ffp2d1fv379Xn1C1m8VeXW9JdpLv+htK3dAcfXSpNy60pZbhmfMmSbmRVVDSnwFCPDx3fe0HAEEIi7wxoaE1JkZEU4+2JEHzs3kZpkppUk/PNI1PfYZmbQwJbPMha03DHOkmr8GpdC1uee4JmtfbA7mZryUv+D5K11cmTzEkXNNsK7azWdCQ7YG7nxxzcGfmIujLbnzOVte32DJ6Q9UyIUDHbndnNnx+tf1PSYtzB8w6uv6d3PlkkGOjDYhvP1ue9PN8JluIicdmD+w3GFOEs01Bwq/XW7LWxstmTgvJcvW5IeKcTH2Z7uCm9gJ7ObHM/oGL5oxe73N6bbOZqweBQE/Bcx6CVJXVyepVEratWsnlsV14H76UlfTBCYc4UqXmrR824wRrsjnr5Ir+PHRrhnPnJbDTBgjvJfM1uaeeOWifHjXC5yvPsHJhXedbrTUogFcDwjPH+CK1vUnc1ZHz+xU2FmZeko+gE9enH9M67zADIPRHvTKJnxe9UBC6x9jAr+G+CnL7NwBR3XKDMcxdVEQiKNAmwrwutKgTpU273U7d2pu9aR66UKIj+PnOrA2b9++XbLZrNTX14vjONKhQwdCfGDaVFyKwIh+zR9KoBe2UuIrsHJtQqatsiVhwvsMM/xqlOl1b27RQH6H6XUf3NOVC801Fnc+l5RenfK16X0dqvVHM33p2DKGvuiBxa++6cjBXbIy/uGkTDfbPvIQx7ynd0aguVvP68IqcPi+zf9MhrVNfm1XE46z/XrLYOopDu/6DnpaefVG7wReMO9JrfETqKgonO/VAL9582ZxXX7BxO+TQIsRiL7ALSvy3eDag15OeC+W0LHpU4Z+1vO+yJbJ5kvLFDNMq5zwXvweuq26zVq8NhR/n/ttR+DZH6VFvyifF2gTPfCOOfieMC/f8+41cWif5k9t5dXBLQKNBWpqanKBXXvgtXghnp74xlL8HwEEwi6gF6FqGX+4vxcxX3asI0++qxef5sO7XqNxuXnMz6LbfI+ZLcdrg591U1ewAiveD2/n6vG9onM2J/IBXi+O+YEJ73Nfy/+i0I/dN3u7Mmc0R2zB/gjGs/ZEIiG1tbWybds22bnTzIdmiob4TZs25YbT2HbhcxhPIVqNAAJREdB517XoFI1+Fq11+oiM9Lkt//twegDrDfQ2U1dq8dqQ+w//REJg6IzCmeywbfCOa/N/18O2XbvbnkgHeA3vuiiJzqLglSEHuDLvvLQZA+89wi0C/gpoiNcLWPVWL2rVosNodDiN9sQT4v31jmNtZzzQvF/N88eWdkFf0PXHcZ9Fuc3mV5nvpVNVocpOXItWwOBeg4Au0BWWssQsWha10ry/EiFopR57X/RYMrcsuLc5x5mLZx4x4b0d4d0j4TYgAS/Ea/XFIV574jt27EiID8g9LtV6Qw+a3t7SAnzQ9Td9u3kFAgjETeDxceEZKVF13ZesQBbCnRPJAK/hXeetvd8sB+6VY/Z35VHzYWCFNk+E25YQ8HridXYaLTpDjTecJpmM5I9XS7DxHiUKPDgymD9wTa33vDn0ipS4y3gaAggg0CICkUsYGt4vXZCUe80y4F4Z2MOVx0x43/2CEN6zuEUgGAG9sFV75HV+eC0a4r3hNIT4YMzjUutZ/YM5xRxUvXHZL7QTAQQQaG2ByA360dXc9Mpzrxy5nyt6GqZD9M5+eE3gtg0IVFdXiwZ5r3ghPp0OpgfVex9uEUAAAQQQQCB+ApEK8Fc8YcvdzxfC+4Duriw4Py3FF8vEbxfS4rAIaIjXITVeIcR7EtwigAACCCCAgJ8CkQnwvzCLQUxbVRjxc+g+riz8Xlr2KrrS3U8Y6kKgOQJVVVW5aSaLX6vDabx544sf5z4CCCCAAAIIINAcgUgE+F8useUOsxSzVw7ZOx/eOzM1lUfCbYgEKisrPxfit2zZQogP0T5iUxBAAAEEEIiyQOgD/NVLbbltZSG89+/myhPfT0vXwnDjKPuz7W1UQEN8+/btd2mdhnhv8addvsF/EEAAAQQQQACBJgiEOsD/+ilbpq4ohPd+XfPhvRvhvQm7mKe2lkBFRcXnQvzWrVsb5o1vre3ifRFAAAEEEEAg2gKhDfDXL7PlpqcL4b1vF1cWmZ73fQrXCEZbnq2PhYCGeF2dtbhs27ZNvHnjix/nPgIIIIAAAgggUIpAKAP8FBPeb1hWCO8Hdc6H9+61pTSJ5yAQLoFUKpUL8TpXvFd0znhCvKfBLQIIIIAAAgg0RSB0Af6mp22ZUhTe+3TO5nre99t1OHFT2shzEWh1geLw7m2MTjNJQQABBBBAAAEEmioQugC/aeeuTahOZqWaVbx3ReF/kRLIZDK5lVmLA3vjhZ8i1SA2FgEEEEAAAQRaVSB0Af7GYY5cekymAeW1jy0Z/peUfLK94SHuIBAZAV2JVeeBLw7vumJr8aqtkWkMG4oAAggggAACoRAIXYBXld+d4shPi0L8q+st+e5fU/LpjlCYsREIlCSwu/CuK7Vq7zsFAQQQQAABBBBorkAoA7w2ZqoJ8RcPchra9fJHlpxqQnzjITYNT+AOAiES0JVXtee9uNTW1oqu1EpBAAEEEEAAAQTKEQhtgNdG3To8IxcdXQjxL36YD/GbG42TLweA1yLgt4CGd120qbhoeNfFnSgIIIAAAggggEC5AqEO8Nq4338nIxccVQjxL6yzZMTMlGypL7fpvB4B/wV0pdXG4V1XZCW8+29NjQgggAACCMRVIPQBXmfOvuPUjEw4ohDin/vAktNNiN9KiI/r5zaU7dbwriutFhcN77qYEwWB1hAY/XVH9IuCAAIIINC2BAqrJYW4XRrip4/IiGOmzb7/ZTu3pc+steTMB1Myf2xa2jHNZIj3Xjw2bceOHaIrrBYXXYFVF3GiINBaAvedXZjRq7W2gfdFAAEEEPBfIPQ98F6TNcTfbUL82MMKvUnL37PkbBPi69Les7hFoOUFdEXV4vCuizYR3lt+P/COCCCAAAIIxEUgMgFed4hlUvw9Z2R2OSW8bI0l5zyUku10NMXlMxuqdmp4r6ura9gmwnsDBXcQQAABBBBAICCBSAyhKW67hvg/n5UfTjP3tfxwmqf+bcnIWSmZOzotVZFrUXHruB8lAQ3uGuC94oX3ZJIPoWfCLQIIIIAAAlET0GnLw14imTRsE+JnaIh3Rea9ng/xS96xZNTspMwZnZHK/ENht2f7IiygQ2Z03LtXLMvKDZuxbT58ngm3CCCAAAIIRFFg6bvhH6ASyQCvH4aksb3/HDMmfq7Io2/kQ9Pit20ZM1tk1qiMVJCjovgzE/ptzmazuSEzhPfQ7yo2EAEEEEAAgWYJPDkx/NMcRjbA6x7RED/z3EwutC94K5/YF6625bw5Ig+ZEJ8K/wFUsz5YvKj1BHTIDOG99fx5ZwQQQAABBIIWGNzTTHsY8hL5iKsh/cGRGRnetzA7jYb5ifMifWwS8o9NfDdPV1n1ig6X6dixozBsxhPhFgEEEEAAAQRaQiDyAV6RdLiMDps5+WAzKP6zohe4vrlRJ5+kIOCfQHV1teh4d12cSaeK1PsUBBBAAAEEEECgJQXaTDe1Xrg6e1TaXMiaksVvW9K5Ois9O4T/FEhL7mzeq3yByspK0S8KAgggECeBLebko6698sp/ErL6k4RsNLPn1jsJ6VaTlR7mb+3QPq6c0DubG9q6J5eM6WdbtiYhepHgus0J2VCXMJ1wWelSI9K3c1YGdM/KkANcac8C1nti5HsISJsJ8LovdQrJR83KrKvWJaRf16zUhH8WID6CCCCAAAIIhFJgvVlc+vE3LTNRhCU6XbMG9i8qt64U6WrC/PVDMzLhiMLZcO/52p024yVLrlmalP+a0L6nooH+Wwe6cvpXXTmtnyv7tNvTs/keAvEUaFMB3tuFg3rQ8+5ZcIsAAggggEBTBJ5Zm5Dbn7Vzwd3NFsJ2z45ZOb6XKweZnvK922Wl2iSIdz81PfJmuOrTpnf+420J+cljKZn/hiP3mqmevVJvLlEbNzcpT5hJJrToa79hetn7dslKn72yuYUY9bXvmJ79Fe9bsnZTQhaZWeX069IF2VyQv/xYR46LwIWFXpu5RSBogTYZ4INGo34EEEAAAQTamsB809M+dYUtz68rXNtz1H6ujD7UlTP6OXJApy9u8VYzxObm5bb8wQR/DerjHy48d/zDSTO01ZbKZFY0iE8e4kjtHobIvPc/kflv2jLrVUv++aElj5j1XvRrYA9XrjzekTNNzzwFgbgLEODj/gmg/QgggAACsRb4xxpLbllpy4smLGupMkF73ABXLhnkyNe6lXZGWwP59Sc5Zhy8KyNm6rVo+d52rU/vJxJZ+duYtAzr8+X16YHCZcc4ua9/bUjIXatsmfmKJS+YA4sxsy050hxU/HxwYeY5fQ8KAnETKBxmx63ltBcBBBBAAAEEzPCWVC6816Sy8rPBGVk9qV7uOjVTcngvJtSAfpXpYW9c9LFSwnvj1+kBhG6LbtMVZtt0G/VAQ7eZgkCcBeiBj/Pep+0IIIAAArEX0N7xiebC02tPzEj32vI5rjnRkftetuWjLfnx8/u2z4o+Vk7pZmap+c0w0ytvhuBc9/ek3GsuiM0Wjc8vp25e2zoCe924h3FUrbNJkXpXAnykdhcbiwACcRLYXrgOME7Npq0tJDBugCMfmAtGbz45I4eb6Rv9KrbJ7Wf1d2WaGfqiRe/rY34UPcCYdlpGLhyYkKsWJ2V/c2EtJZoC29M+fSii2fyyt7pBzywPz09B2ZxUgAACCJQvUHVdONca2HHtzvIbRw2xEFj+fkKGzcj3sC6ZUC9DehExYrHjaWSLCdAD32LUvBECCCCAAALxEBhspnw82swao0XvUxBAwF8BeuD99aQ2BBBAAAEEEEAAAQQCFWAWmkB5qRwBBBBAAAEEEEAAAX8FCPD+elIbAggggAACCCCAAAKBChDgA+WlcgQQQAABBBBAAAEE/BUgwPvrSW0IIIAAAggggAACCAQqQIAPlJfKEUAAAQQQQAABBBDwV4AA768ntSGAAAIIIIAAAgggEKgAAT5QXipHAAEEEEAAAQQQQMBfAQK8v57UhgACCCCAAAIIIIBAoAIE+EB5qRwBBBBAAAEEEEAAAX8FCPD+elIbAggggAACCCCAAAKBChDgA+WlcgQQQAABBBBAAAEE/BUgwPvrSW0IIIAAAggggAACCAQqQIAPlJfKEUAAAQQQQAABBBDwV4AA768ntSGAAAIIIIAAAgggEKgAAT5QXipHAAEEEEAAAQQQQMBfgf8D/2YyVdGqwO4AAAAASUVORK5CYII=;" vertex="1" parent="1">
                    <mxGeometry width="520.91" height="1100" as="geometry"/>
                </mxCell>
                <mxCell id="5" value="users" style="swimlane;fontStyle=0;childLayout=stackLayout;horizontal=1;startSize=26;fillColor=none;horizontalStack=0;resizeParent=1;resizeParentMax=0;resizeLast=0;collapsible=1;marginBottom=0;fontSize=15;strokeWidth=3;" vertex="1" parent="1">
                    <mxGeometry x="620" y="290" width="120" height="234" as="geometry"/>
                </mxCell>
                <mxCell id="6" value="user_ID" style="text;strokeColor=none;fillColor=none;align=left;verticalAlign=top;spacingLeft=4;spacingRight=4;overflow=hidden;rotatable=0;points=[[0,0.5],[1,0.5]];portConstraint=eastwest;fontSize=15;" vertex="1" parent="5">
                    <mxGeometry y="26" width="120" height="26" as="geometry"/>
                </mxCell>
                <mxCell id="7" value="username" style="text;strokeColor=none;fillColor=none;align=left;verticalAlign=top;spacingLeft=4;spacingRight=4;overflow=hidden;rotatable=0;points=[[0,0.5],[1,0.5]];portConstraint=eastwest;fontSize=15;" vertex="1" parent="5">
                    <mxGeometry y="52" width="120" height="26" as="geometry"/>
                </mxCell>
                <mxCell id="8" value="fullname" style="text;strokeColor=none;fillColor=none;align=left;verticalAlign=top;spacingLeft=4;spacingRight=4;overflow=hidden;rotatable=0;points=[[0,0.5],[1,0.5]];portConstraint=eastwest;fontSize=15;" vertex="1" parent="5">
                    <mxGeometry y="78" width="120" height="26" as="geometry"/>
                </mxCell>
                <mxCell id="10" value="email" style="text;strokeColor=none;fillColor=none;align=left;verticalAlign=top;spacingLeft=4;spacingRight=4;overflow=hidden;rotatable=0;points=[[0,0.5],[1,0.5]];portConstraint=eastwest;fontSize=15;" vertex="1" parent="5">
                    <mxGeometry y="104" width="120" height="26" as="geometry"/>
                </mxCell>
                <mxCell id="11" value="phone" style="text;strokeColor=none;fillColor=none;align=left;verticalAlign=top;spacingLeft=4;spacingRight=4;overflow=hidden;rotatable=0;points=[[0,0.5],[1,0.5]];portConstraint=eastwest;fontSize=15;" vertex="1" parent="5">
                    <mxGeometry y="130" width="120" height="26" as="geometry"/>
                </mxCell>
                <mxCell id="12" value="address" style="text;strokeColor=none;fillColor=none;align=left;verticalAlign=top;spacingLeft=4;spacingRight=4;overflow=hidden;rotatable=0;points=[[0,0.5],[1,0.5]];portConstraint=eastwest;fontSize=15;" vertex="1" parent="5">
                    <mxGeometry y="156" width="120" height="26" as="geometry"/>
                </mxCell>
                <mxCell id="13" value="password" style="text;strokeColor=none;fillColor=none;align=left;verticalAlign=top;spacingLeft=4;spacingRight=4;overflow=hidden;rotatable=0;points=[[0,0.5],[1,0.5]];portConstraint=eastwest;fontSize=15;" vertex="1" parent="5">
                    <mxGeometry y="182" width="120" height="26" as="geometry"/>
                </mxCell>
                <mxCell id="14" value="user_type" style="text;strokeColor=none;fillColor=none;align=left;verticalAlign=top;spacingLeft=4;spacingRight=4;overflow=hidden;rotatable=0;points=[[0,0.5],[1,0.5]];portConstraint=eastwest;fontSize=15;" vertex="1" parent="5">
                    <mxGeometry y="208" width="120" height="26" as="geometry"/>
                </mxCell>
                <mxCell id="15" value="" style="shape=flexArrow;endArrow=classic;html=1;fontSize=15;entryX=0;entryY=0.5;entryDx=0;entryDy=0;exitX=1;exitY=0.368;exitDx=0;exitDy=0;exitPerimeter=0;fillColor=#a20025;strokeColor=#6F0000;" edge="1" parent="1" source="4" target="10">
                    <mxGeometry width="50" height="50" relative="1" as="geometry">
                        <mxPoint x="400" y="420" as="sourcePoint"/>
                        <mxPoint x="450" y="370" as="targetPoint"/>
                    </mxGeometry>
                </mxCell>
            </root>
        </mxGraphModel>
    </diagram>
</mxfile>